<?xml version="1.0" encoding="UTF-8"?>
<svg width="800" height="600" viewBox="0 0 800 600" xmlns="http://www.w3.org/2000/svg">
  <!-- Background -->
  <rect width="800" height="600" fill="#f8f9fa"/>
  
  <!-- Title -->
  <text x="400" y="50" font-family="Arial, sans-serif" font-size="24" text-anchor="middle" font-weight="bold">Astigmatism</text>
  
  <!-- Normal Eye vs Astigmatic Eye Comparison -->
  <text x="250" y="100" font-family="Arial, sans-serif" font-size="18" text-anchor="middle" font-weight="bold">Normal Cornea</text>
  <text x="550" y="100" font-family="Arial, sans-serif" font-size="18" text-anchor="middle" font-weight="bold">Astigmatic Cornea</text>
  
  <!-- Normal Cornea Front View -->
  <g transform="translate(150, 150)">
    <circle cx="100" cy="100" r="80" fill="#d6eaf8" fill-opacity="0.6" stroke="#2c3e50" stroke-width="2"/>
    <circle cx="100" cy="100" r="30" fill="#7fb3d5" stroke="#2c3e50" stroke-width="1"/>
    <circle cx="100" cy="100" r="15" fill="#2c3e50"/>
    
    <!-- Surface Curvature Indicators - Even -->
    <path d="M20,100 C60,80 140,80 180,100" fill="none" stroke="#3498db" stroke-width="2" stroke-dasharray="5,5"/>
    <path d="M100,20 C80,60 80,140 100,180" fill="none" stroke="#3498db" stroke-width="2" stroke-dasharray="5,5"/>
    
    <text x="100" y="210" font-family="Arial, sans-serif" font-size="14" text-anchor="middle">Uniform Curvature</text>
  </g>
  
  <!-- Astigmatic Cornea Front View -->
  <g transform="translate(450, 150)">
    <ellipse cx="100" cy="100" rx="90" ry="70" fill="#d6eaf8" fill-opacity="0.6" stroke="#2c3e50" stroke-width="2"/>
    <ellipse cx="100" cy="100" rx="33" ry="27" fill="#7fb3d5" stroke="#2c3e50" stroke-width="1"/>
    <ellipse cx="100" cy="100" rx="17" ry="13" fill="#2c3e50"/>
    
    <!-- Surface Curvature Indicators - Uneven -->
    <path d="M10,100 C60,70 140,70 190,100" fill="none" stroke="#e74c3c" stroke-width="2" stroke-dasharray="5,5"/>
    <path d="M100,30 C80,60 80,140 100,170" fill="none" stroke="#e74c3c" stroke-width="2" stroke-dasharray="5,5"/>
    
    <text x="100" y="210" font-family="Arial, sans-serif" font-size="14" text-anchor="middle">Irregular Curvature</text>
  </g>
  
  <!-- Astigmatic Eye Side View -->
  <g transform="translate(100, 320)">
    <!-- Title -->
    <text x="300" y="0" font-family="Arial, sans-serif" font-size="18" text-anchor="middle" font-weight="bold">Astigmatic Eye - Side View</text>
    
    <!-- Outer Eye Shape -->
    <ellipse cx="300" cy="100" rx="250" ry="100" fill="#f0f0f0" stroke="#2c3e50" stroke-width="3"/>
    
    <!-- Lens -->
    <ellipse cx="130" cy="100" rx="30" ry="70" fill="#d6eaf8" stroke="#2c3e50" stroke-width="2"/>
    
    <!-- Irregular Cornea -->
    <path d="M70,60 Q100,90 70,140" fill="none" stroke="#e74c3c" stroke-width="3"/>
    
    <!-- Iris -->
    <path d="M130,30 Q130,50 130,170 Z" fill="#7fb3d5" fill-opacity="0.6" stroke="#2c3e50" stroke-width="1"/>
    
    <!-- Pupil -->
    <circle cx="130" cy="100" r="15" fill="#2c3e50"/>
    
    <!-- Retina -->
    <path d="M550,30 Q550,100 550,170" fill="none" stroke="#2c3e50" stroke-width="3"/>
    
    <!-- Eye Labels -->
    <text x="130" y="20" font-family="Arial, sans-serif" font-size="14" text-anchor="middle">Lens</text>
    <text x="70" y="40" font-family="Arial, sans-serif" font-size="14" text-anchor="end">Irregular Cornea</text>
    <text x="550" y="20" font-family="Arial, sans-serif" font-size="14" text-anchor="middle">Retina</text>
    
    <!-- Light Rays - Parallel Incoming -->
    <line x1="0" y1="70" x2="70" y2="70" stroke="#ff9800" stroke-width="2"/>
    <line x1="0" y1="100" x2="70" y2="100" stroke="#ff9800" stroke-width="2"/>
    <line x1="0" y1="130" x2="70" y2="130" stroke="#ff9800" stroke-width="2"/>
    
    <!-- Light Rays - Irregular Refraction -->
    <line x1="70" y1="70" x2="130" y2="80" stroke="#ff9800" stroke-width="2"/>
    <line x1="70" y1="100" x2="130" y2="100" stroke="#ff9800" stroke-width="2"/>
    <line x1="70" y1="130" x2="130" y2="120" stroke="#ff9800" stroke-width="2"/>
    
    <!-- Light Rays - Different Focal Points -->
    <line x1="130" y1="80" x2="480" y2="40" stroke="#ff9800" stroke-width="2" stroke-dasharray="5,5"/>
    <line x1="130" y1="100" x2="520" y2="100" stroke="#ff9800" stroke-width="2" stroke-dasharray="5,5"/>
    <line x1="130" y1="120" x2="480" y2="160" stroke="#ff9800" stroke-width="2" stroke-dasharray="5,5"/>
    
    <!-- Multiple Focal Points -->
    <circle cx="480" cy="40" r="6" fill="#e74c3c"/>
    <circle cx="520" cy="100" r="6" fill="#e74c3c"/>
    <circle cx="480" cy="160" r="6" fill="#e74c3c"/>
    
    <!-- Focal Points Label -->
    <text x="450" y="180" font-family="Arial, sans-serif" font-size="14" text-anchor="middle">Multiple Focal Points</text>
    
    <!-- Blurred Image at Retina -->
    <circle cx="550" cy="100" r="30" fill="#e74c3c" fill-opacity="0.2" stroke="#e74c3c" stroke-width="1" stroke-dasharray="3,3"/>
    <text x="580" y="130" font-family="Arial, sans-serif" font-size="14" text-anchor="start">Blurred Image</text>
  </g>
  
  <!-- Astigmatism Correction -->
  <g transform="translate(550, 150)">
    <!-- Title -->
    <text x="90" y="250" font-family="Arial, sans-serif" font-size="16" text-anchor="middle" font-weight="bold">Correction</text>
    
    <!-- Cylindrical Lens -->
    <path d="M40,280 C80,260 100,310 140,290" fill="#3498db" fill-opacity="0.3" stroke="#3498db" stroke-width="2"/>
    <path d="M40,280 L40,330 C80,350 100,300 140,320 L140,290" fill="#3498db" fill-opacity="0.3" stroke="#3498db" stroke-width="2"/>
    
    <text x="90" y="360" font-family="Arial, sans-serif" font-size="14" text-anchor="middle">Cylindrical or Toric Lens</text>
  </g>
  
  <!-- Descriptive Text -->
  <g transform="translate(100, 500)">
    <rect width="600" height="80" rx="10" fill="#edf2f7" stroke="#2c3e50" stroke-width="1"/>
    
    <text x="300" y="30" font-family="Arial, sans-serif" font-size="16" text-anchor="middle" font-weight="bold">Astigmatism Explained</text>
    
    <text x="20" y="60" font-family="Arial, sans-serif" font-size="14">
      Astigmatism occurs when the cornea or lens has different curvatures along different meridians,
    </text>
    <text x="20" y="80" font-family="Arial, sans-serif" font-size="14">
      causing light to focus at multiple points rather than a single point on the retina, resulting in blurred vision.
    </text>
  </g>
</svg> 