<svg xmlns="http://www.w3.org/2000/svg" width="600" height="340" aria-hidden="false" viewBox="0 0 600 340"><path fill="#fff" d="M0 0h600v340H0z"/><ellipse cx="300" cy="150" fill="#fff" stroke="#333" stroke-width="2" rx="150" ry="100"/><path fill="#E6F7FF" stroke="#333" stroke-width="2" d="M150 150q-20-60 0-100 20 60 0 100"/><ellipse cx="200" cy="150" fill="#E6F7FF" stroke="#333" stroke-width="2" rx="25" ry="40"/><path fill="none" stroke="#333" stroke-width="2" d="M450 70q20 80 0 160"/><path stroke="gold" stroke-width="2" d="m100 100 150 50m-150 50 150-50"/><path stroke="#F90" stroke-width="2" d="m100 125 150 25m-150 25 150-25"/><path stroke="gold" stroke-width="2" d="m250 150 70-20m-70 20 70 20"/><path stroke="#F90" stroke-width="2" d="m250 150 170-20m-170 20 170 20"/><path stroke="gold" stroke-dasharray="5,3" stroke-width="2" d="m320 130 130-20m-130 60 130 20"/><path stroke="#F90" stroke-dasharray="5,3" stroke-width="2" d="m420 130 70-10m-70 50 70 10"/><circle cx="320" cy="150" r="5" fill="gold"/><circle cx="420" cy="150" r="5" fill="#F90"/><ellipse cx="320" cy="150" fill="none" stroke="gold" stroke-dasharray="2,1" rx="5" ry="20"/><ellipse cx="420" cy="150" fill="none" stroke="#F90" stroke-dasharray="2,1" rx="20" ry="5"/><circle cx="370" cy="150" r="15" fill="none" stroke="#F50" stroke-dasharray="2,1"/><text x="300" y="260" fill="#333" font-family="Arial" font-size="16" font-size-adjust=".5" text-anchor="middle" text-rendering="optimizeLegibility">Astigmatism: Light focuses at different points</text><text x="320" y="125" fill="gold" font-family="Arial" font-size="14" font-size-adjust=".5" text-anchor="middle" text-rendering="optimizeLegibility">Vertical focal line</text><text x="420" y="125" fill="#F90" font-family="Arial" font-size="14" font-size-adjust=".5" text-anchor="middle" text-rendering="optimizeLegibility">Horizontal focal line</text><text x="370" y="180" fill="#F50" font-family="Arial" font-size="14" font-size-adjust=".5" text-anchor="middle" text-rendering="optimizeLegibility">Circle of least confusion</text><text x="450" y="60" fill="#333" font-family="Arial" font-size="14" font-size-adjust=".5" text-anchor="middle" text-rendering="optimizeLegibility">Retina</text></svg>