<svg xmlns="http://www.w3.org/2000/svg" width="400" height="300" aria-hidden="false" viewBox="0 0 400 300"><defs><linearGradient id="b" x1="0%" x2="100%" y1="0%" y2="0%"><stop offset="0%" stop-color="#d9f2ff"/><stop offset="100%" stop-color="#80d4ff"/></linearGradient><linearGradient id="a" x1="0%" x2="100%" y1="0%" y2="100%"><stop offset="0%" stop-color="#444"/><stop offset="100%" stop-color="#222"/></linearGradient><filter id="c" width="140%" height="140%" x="-20%" y="-20%"><feDropShadow dx="2" dy="2" flood-opacity=".3" stdDeviation="3"/></filter></defs><path fill="#f8f8f8" d="M0 0h400v300H0z"/><text x="200" y="40" fill="#333" font-family="Arial" font-size="20" font-size-adjust=".5" font-weight="bold" text-anchor="middle" text-rendering="optimizeLegibility">Bioptic Telescope</text><g transform="translate(200 150)"><path fill="none" stroke="url(#a)" stroke-width="5" d="M-120 0c5-20 50-30 80-30h80c30 0 75 10 80 30-5 20-50 30-80 30h-80c-30 0-75-10-80-30Z"/><ellipse cx="-70" fill="none" stroke="url(#a)" stroke-width="4" rx="40" ry="25"/><ellipse cx="70" fill="none" stroke="url(#a)" stroke-width="4" rx="40" ry="25"/><ellipse cx="-70" fill="url(#b)" filter="url(#c)" opacity=".7" rx="36" ry="22"/><ellipse cx="70" fill="url(#b)" filter="url(#c)" opacity=".7" rx="36" ry="22"/><path fill="none" stroke="url(#a)" stroke-width="5" d="M-30 0h60"/><path fill="none" stroke="url(#a)" stroke-width="4" d="m-120 0-30 20M120 0l30 20"/><g transform="translate(70 -10)"><rect width="30" height="20" x="-15" y="-10" fill="#222" filter="url(#c)" rx="2"/><circle r="8" fill="#444"/><circle r="6" fill="#666"/><circle r="5" fill="#111"/><rect width="8" height="8" x="10" y="-4" fill="#333" rx="1"/><path fill="#333" d="M-2-15h4v5h-4z"/><rect width="10" height="3" x="-5" y="-18" fill="#222" rx="1"/></g></g><text x="270" y="115" fill="#333" font-family="Arial" font-size="12" font-size-adjust=".5" text-anchor="middle" text-rendering="optimizeLegibility">Telescope</text><path stroke="#333" d="M270 120v15"/><text x="200" y="90" fill="#333" font-family="Arial" font-size="12" font-size-adjust=".5" text-anchor="middle" text-rendering="optimizeLegibility">Eyeglass Frame</text><path stroke="#333" d="M200 95v25"/><text x="320" y="170" fill="#333" font-family="Arial" font-size="12" font-size-adjust=".5" text-anchor="middle" text-rendering="optimizeLegibility">Temple Arm</text><path stroke="#333" d="m320 175 30-10"/><text x="200" y="270" fill="#333" font-family="Arial" font-size="14" font-size-adjust=".5" text-anchor="middle" text-rendering="optimizeLegibility">
    Used to magnify distant objects for low vision patients
  </text></svg>