<svg xmlns="http://www.w3.org/2000/svg" width="600" height="300" aria-hidden="false" viewBox="0 0 600 300"><defs><linearGradient id="a" x1="0%" x2="100%" y1="0%" y2="0%"><stop offset="0%" stop-color="#d0e8ff" stop-opacity=".7"/><stop offset="100%" stop-color="#a0c4ff" stop-opacity=".7"/></linearGradient></defs><path fill="#f8f8f8" d="M0 0h600v300H0z"/><text x="300" y="30" fill="#333" font-family="Arial, sans-serif" font-size="20" font-size-adjust=".5" font-weight="bold" text-anchor="middle" text-rendering="optimizeLegibility">Concave Lens (Negative / Minus Lens)</text><path stroke="#999" stroke-dasharray="3,3" d="M50 150h500"/><path fill="url(#a)" stroke="#333" stroke-width="1.5" d="M280 50q-20 50-20 100t20 100h20q20-50 20-100T300 50z"/><path stroke="#a0c4ff" stroke-width=".5" d="M280 75h20m-20 25h20m-20 25h20m-20 25h20m-20 25h20m-20 25h20m-20 25h20"/><path stroke="red" stroke-dasharray="2,1" stroke-width="1.5" d="M170 145v10m220-10v10"/><text x="170" y="175" fill="#c00" font-family="Arial, sans-serif" font-size="14" font-size-adjust=".5" text-anchor="middle" text-rendering="optimizeLegibility">F</text><text x="390" y="175" fill="#c00" font-family="Arial, sans-serif" font-size="14" font-size-adjust=".5" text-anchor="middle" text-rendering="optimizeLegibility">F</text><path stroke="#333" stroke-width="1.5" d="M290 145v10"/><text x="290" y="175" fill="#333" font-family="Arial, sans-serif" font-size="14" font-size-adjust=".5" text-anchor="middle" text-rendering="optimizeLegibility">P</text><path stroke="#fc0" stroke-width="2" d="M50 100h240"/><path fill="none" stroke="#fc0" stroke-width="2" d="m290 100 260-40"/><path stroke="#fc0" stroke-width="2" d="M50 200h240"/><path fill="none" stroke="#fc0" stroke-width="2" d="m290 200 260 40"/><path stroke="#fc0" stroke-width="2" d="M50 150h240m0 0h260"/><path stroke="#fc0" stroke-dasharray="3,2" d="m290 100-120 50m120 50-120-50"/><path stroke="#f45d00" stroke-width="2" d="m50 80 240 70m0 0 260 70m-500 0 240-70m0 0 260-70"/><text x="50" y="90" fill="#333" font-family="Arial, sans-serif" font-size="12" font-size-adjust=".5" text-rendering="optimizeLegibility">Incident Rays</text><text x="450" y="90" fill="#333" font-family="Arial, sans-serif" font-size="12" font-size-adjust=".5" text-rendering="optimizeLegibility">Refracted Rays</text><text x="290" y="215" fill="#333" font-family="Arial, sans-serif" font-size="14" font-size-adjust=".5" text-anchor="middle" text-rendering="optimizeLegibility">Optical Center</text><text x="300" y="270" fill="#333" font-family="Arial, sans-serif" font-size="16" font-size-adjust=".5" text-anchor="middle" text-rendering="optimizeLegibility">Negative Diopter Value (e.g., -2.00D)</text><text x="300" y="50" fill="#555" font-family="Arial, sans-serif" font-size="14" font-size-adjust=".5" text-anchor="middle" text-rendering="optimizeLegibility">Diverges light rays from a virtual focal point</text></svg>