<svg xmlns="http://www.w3.org/2000/svg" width="700" height="500" aria-hidden="false" viewBox="0 0 700 500"><path fill="#fff" d="M0 0h700v500H0z"/><text x="350" y="40" fill="#333" font-family="Arial" font-size="24" font-size-adjust=".5" font-weight="bold" text-anchor="middle" text-rendering="optimizeLegibility">Contact Lens Parameters</text><g transform="translate(350 220)"><circle r="120" fill="none" stroke="#80B3FF" stroke-width="3"/><circle r="80" fill="none" stroke="#80B3FF" stroke-dasharray="5,3" stroke-width="2"/><path fill="none" stroke="#F96" stroke-dasharray="7,3" stroke-width="3" d="M-120 0Q-60-70 0-70T120 0"/><path stroke="#6C6" stroke-width="3" d="M-120 0h240m-245-5V5M125-5V5"/><path stroke="#96C" stroke-width="2" d="M-80 20H80m-165-5v10M85 15v10"/><path stroke="#F66" stroke-width="3" d="M0-15v30"/><circle r="5" fill="#F66"/></g><path fill="#E6F7FF" stroke="#80B3FF" stroke-width="2" d="M160 400c30-15 120-15 150 0-30 10-120 10-150 0"/><path fill="none" stroke="#F96" stroke-dasharray="5,2" stroke-width="2" d="M160 400c30-30 120-30 150 0"/><path stroke="#F66" stroke-width="2" d="M235 395v10"/><text x="75" y="40" fill="#333" font-family="Arial" font-size="14" font-size-adjust=".5" text-anchor="middle" text-rendering="optimizeLegibility" transform="translate(160 400)">Side View</text><g transform="translate(500 400)"><rect width="180" height="140" fill="#f8f8f8" stroke="#ddd" rx="10" ry="10"/><text x="90" y="30" fill="#333" font-family="Arial" font-size="16" font-size-adjust=".5" font-weight="bold" text-anchor="middle" text-rendering="optimizeLegibility">Key Parameters</text><path stroke="#6C6" stroke-width="3" d="M20 50h20"/><text x="50" y="55" fill="#333" font-family="Arial" font-size="14" font-size-adjust=".5" text-rendering="optimizeLegibility">Diameter (14.0mm)</text><path fill="none" stroke="#F96" stroke-width="2" d="M20 80q5-10 10 0"/><text x="50" y="85" fill="#333" font-family="Arial" font-size="14" font-size-adjust=".5" text-rendering="optimizeLegibility">Base Curve (8.6mm)</text><path stroke="#F66" stroke-width="3" d="M25 110h10"/><text x="65" y="115" fill="#333" font-family="Arial" font-size="14" font-size-adjust=".5" text-rendering="optimizeLegibility">Center Thickness</text><text x="95" y="130" fill="#333" font-family="Arial" font-size="14" font-size-adjust=".5" text-rendering="optimizeLegibility">(0.08mm)</text></g><text x="350" y="330" fill="#6C6" font-family="Arial" font-size="16" font-size-adjust=".5" font-weight="bold" text-anchor="middle" text-rendering="optimizeLegibility">Diameter</text><text x="350" y="120" fill="#F96" font-family="Arial" font-size="16" font-size-adjust=".5" font-weight="bold" text-anchor="middle" text-rendering="optimizeLegibility">Base Curve</text><text x="450" y="250" fill="#96C" font-family="Arial" font-size="16" font-size-adjust=".5" font-weight="bold" text-anchor="middle" text-rendering="optimizeLegibility">Optical Zone</text><text x="280" y="220" fill="#F66" font-family="Arial" font-size="16" font-size-adjust=".5" font-weight="bold" text-anchor="middle" text-rendering="optimizeLegibility">Center Thickness</text><g fill="#666" font-family="Arial" font-size="14" font-size-adjust=".5" text-anchor="middle" text-rendering="optimizeLegibility"><text x="350" transform="translate(0 470)" font-size-adjust="0.5" text-rendering="optimizeLegibility">
      Other important parameters include power, water content, oxygen permeability (Dk/t),
    </text><text x="350" y="20" transform="translate(0 470)" font-size-adjust="0.5" text-rendering="optimizeLegibility">
      edge design, and replacement schedule.
    </text></g></svg>