<svg xmlns="http://www.w3.org/2000/svg" width="600" height="300" aria-hidden="false" viewBox="0 0 600 300"><defs><linearGradient id="a" x1="0%" x2="100%" y1="0%" y2="0%"><stop offset="0%" stop-color="#d0e8ff" stop-opacity=".7"/><stop offset="100%" stop-color="#a0c4ff" stop-opacity=".7"/></linearGradient></defs><path fill="#f8f8f8" d="M0 0h600v300H0z"/><text x="300" y="30" fill="#333" font-family="Arial, sans-serif" font-size="20" font-size-adjust=".5" font-weight="bold" text-anchor="middle" text-rendering="optimizeLegibility">Convex Lens (Positive / Plus Lens)</text><path stroke="#999" stroke-dasharray="3,3" d="M50 150h500"/><path fill="url(#a)" stroke="#333" stroke-width="1.5" d="M280 50q40 0 40 100t-40 100-40-100 40-100Z"/><path stroke="red" stroke-width="1.5" d="M390 145v10m-220-10v10"/><text x="390" y="175" fill="#c00" font-family="Arial, sans-serif" font-size="14" font-size-adjust=".5" text-anchor="middle" text-rendering="optimizeLegibility">F</text><text x="170" y="175" fill="#c00" font-family="Arial, sans-serif" font-size="14" font-size-adjust=".5" text-anchor="middle" text-rendering="optimizeLegibility">F</text><path stroke="#333" stroke-width="1.5" d="M280 145v10"/><text x="280" y="175" fill="#333" font-family="Arial, sans-serif" font-size="14" font-size-adjust=".5" text-anchor="middle" text-rendering="optimizeLegibility">P</text><path stroke="#fc0" stroke-width="2" d="M50 100h230"/><path fill="none" stroke="#fc0" stroke-width="2" d="m280 100 110 50"/><path stroke="#fc0" stroke-width="2" d="M50 200h230"/><path fill="none" stroke="#fc0" stroke-width="2" d="m280 200 110-50"/><path stroke="#fc0" stroke-width="2" d="M50 150h230m0 0h270"/><path stroke="#f45d00" stroke-width="2" d="m50 80 120 70m0 0 110-70m0 0h270M50 220l120-70m0 0 110 70m0 0h270"/><text x="50" y="90" fill="#333" font-family="Arial, sans-serif" font-size="12" font-size-adjust=".5" text-rendering="optimizeLegibility">Incident Rays</text><text x="450" y="90" fill="#333" font-family="Arial, sans-serif" font-size="12" font-size-adjust=".5" text-rendering="optimizeLegibility">Refracted Rays</text><text x="300" y="215" fill="#333" font-family="Arial, sans-serif" font-size="14" font-size-adjust=".5" text-anchor="middle" text-rendering="optimizeLegibility">Optical Center</text><text x="300" y="270" fill="#333" font-family="Arial, sans-serif" font-size="16" font-size-adjust=".5" text-anchor="middle" text-rendering="optimizeLegibility">Positive Diopter Value (e.g., +2.00D)</text><text x="300" y="50" fill="#555" font-family="Arial, sans-serif" font-size="14" font-size-adjust=".5" text-anchor="middle" text-rendering="optimizeLegibility">Converges light rays to a focal point</text></svg>