<svg xmlns="http://www.w3.org/2000/svg" width="800" height="500" aria-hidden="false" viewBox="0 0 800 500"><style>.face{fill:#ffdfc4;stroke:#d4a985;stroke-width:2}.eyeglass{fill:none;stroke:#333;stroke-width:2.5}.desc,.label{font-family:Arial,sans-serif;text-anchor:middle}.label{font-size:16px;font-weight:700}.desc{font-size:12px}</style><path fill="#f8f8f8" d="M0 0h800v500H0z"/><text x="400" y="40" font-family="Arial,sans-serif" font-size="24" font-size-adjust=".5" font-weight="700" text-anchor="middle" text-rendering="optimizeLegibility">Face Shapes Guide for Eyewear Selection</text><text x="400" y="65" font-family="Arial,sans-serif" font-size="14" font-size-adjust=".5" font-style="italic" text-anchor="middle" text-rendering="optimizeLegibility">Matching frame styles to different face shapes</text><path d="M150 290c0-50 40-120 100-120s100 70 100 120c0 60-40 120-100 120s-100-60-100-120Z" class="face"/><path d="M200 260h-10s-5-5-5-10 5-10 5-10h120s5 5 5 10-5 10-5 10h-10" class="eyeglass"/><path stroke="#333" stroke-width="2.5" d="M200 260h100"/><text x="100" y="280" class="label" font-size-adjust=".5" text-rendering="optimizeLegibility" transform="translate(150 170)">Oval</text><text x="100" y="300" class="desc" font-size-adjust=".5" text-rendering="optimizeLegibility" transform="translate(150 170)">Most frame shapes work well</text><g transform="translate(400 170)"><circle cx="100" cy="120" r="120" class="face"/><path d="M40 90H30s-5-5-5-10 5-10 5-10h140s5 5 5 10-5 10-5 10h-10" class="eyeglass"/><path stroke="#333" stroke-width="2.5" d="M40 90h120"/><text x="100" y="280" class="label" font-size-adjust=".5" text-rendering="optimizeLegibility">Round</text><text x="100" y="300" class="desc" font-size-adjust=".5" text-rendering="optimizeLegibility">Angular and rectangular frames</text></g><g transform="translate(650 170)"><rect width="200" height="200" y="20" class="face" rx="30" ry="30"/><path d="M50 100H40s-5-5-5-10 5-10 5-10h120s5 5 5 10-5 10-5 10h-10" class="eyeglass"/><path stroke="#333" stroke-width="2.5" d="M50 100h100"/><text x="100" y="280" class="label" font-size-adjust=".5" text-rendering="optimizeLegibility">Square</text><text x="100" y="300" class="desc" font-size-adjust=".5" text-rendering="optimizeLegibility">Round or oval frames</text></g><path d="M150 430c60-40 140-40 200 0l-40 120H190Z" class="face"/><path d="M210 480h-10s-5-5-5-10 5-10 5-10h100s5 5 5 10-5 10-5 10h-10" class="eyeglass"/><path stroke="#333" stroke-width="2.5" d="M210 480h80"/><text x="100" y="150" class="label" font-size-adjust=".5" text-rendering="optimizeLegibility" transform="translate(150 430)">Heart</text><text x="100" y="170" class="desc" font-size-adjust=".5" text-rendering="optimizeLegibility" transform="translate(150 430)">Frames wider at bottom</text><path d="m500 430 80 80-80 120-80-120Z" class="face"/><path d="M460 510h-10s-5-5-5-10 5-10 5-10h100s5 5 5 10-5 10-5 10h-10" class="eyeglass"/><path stroke="#333" stroke-width="2.5" d="M460 510h80"/><text x="100" y="220" class="label" font-size-adjust=".5" text-rendering="optimizeLegibility" transform="translate(400 430)">Diamond</text><text x="100" y="240" class="desc" font-size-adjust=".5" text-rendering="optimizeLegibility" transform="translate(400 430)">Oval or rimless frames</text><g transform="translate(650 430)"><rect width="160" height="200" x="20" class="face" rx="30" ry="30"/><path d="M50 80H40s-5-5-5-10 5-10 5-10h120s5 5 5 10-5 10-5 10h-10" class="eyeglass"/><path stroke="#333" stroke-width="2.5" d="M50 80h100"/><text x="100" y="220" class="label" font-size-adjust=".5" text-rendering="optimizeLegibility">Rectangle</text><text x="100" y="240" class="desc" font-size-adjust=".5" text-rendering="optimizeLegibility">Oval or round frames</text></g><text x="400" y="480" font-family="Arial" font-size="12" font-size-adjust=".5" text-anchor="middle" text-rendering="optimizeLegibility">© Optician Trainer - Face Shape Guide for Eyewear Selection</text></svg>