<svg xmlns="http://www.w3.org/2000/svg" width="800" height="500" aria-hidden="false" class="mobile-optimized" viewBox="0 0 800 500"><path fill="#f8f9fa" d="M0 0h800v500H0z"/><text x="400" y="40" font-family="Arial" font-size="30" font-size-adjust=".5" font-weight="bold" text-anchor="middle" text-rendering="optimizeLegibility">Eyeglass Frame Anatomy</text><ellipse cx="250" cy="200" fill="none" stroke="#333" stroke-width="3" rx="100" ry="80"/><ellipse cx="550" cy="200" fill="none" stroke="#333" stroke-width="3" rx="100" ry="80"/><path fill="none" stroke="#333" stroke-width="3" d="M350 200c20-20 80-20 100 0m-300 0c-30 0-60-100-90-100m590 100c30 0 60-100 90-100"/><path fill="none" stroke="#333" stroke-width="2" d="M60 100c-10 0-20 10-20 20v40c0 10 10 20 20 20h20c10 0 0-80-20-80m680 0c10 0 20 10 20 20v40c0 10-10 20-20 20h-20c-10 0 0-80 20-80M370 220c10 10 20 20 10 30-5 5-15 5-20 0-10-10 0-20 10-30m60 0c-10 10-20 20-10 30 5 5 15 5 20 0 10-10 0-20-10-30"/><path stroke="#06c" stroke-dasharray="5,3" stroke-width="1.5" d="M250 120 150 80"/><text x="120" y="70" fill="#06c" font-family="Arial" font-size="17.5" font-size-adjust=".5" font-weight="bold" text-rendering="optimizeLegibility">Rim/Eye Wire</text><text x="120" y="90" fill="#06c" font-family="Arial" font-size="15" font-size-adjust=".5" text-rendering="optimizeLegibility">Surrounds the lens</text><path stroke="#c30" stroke-dasharray="5,3" stroke-width="1.5" d="M400 180v-60"/><text x="400" y="110" fill="#c30" font-family="Arial" font-size="17.5" font-size-adjust=".5" font-weight="bold" text-anchor="middle" text-rendering="optimizeLegibility">Bridge</text><text x="400" y="130" fill="#c30" font-family="Arial" font-size="15" font-size-adjust=".5" text-anchor="middle" text-rendering="optimizeLegibility">Connects the two eye wires</text><path stroke="#093" stroke-dasharray="5,3" stroke-width="1.5" d="M700 140V80"/><text x="700" y="70" fill="#093" font-family="Arial" font-size="17.5" font-size-adjust=".5" font-weight="bold" text-anchor="middle" text-rendering="optimizeLegibility">Temple/Arm</text><text x="700" y="90" fill="#093" font-family="Arial" font-size="15" font-size-adjust=".5" text-anchor="middle" text-rendering="optimizeLegibility">Extends over the ears</text><path stroke="#90c" stroke-dasharray="5,3" stroke-width="1.5" d="M60 140H20"/><text x="20" y="130" fill="#90c" font-family="Arial" font-size="17.5" font-size-adjust=".5" font-weight="bold" text-anchor="end" text-rendering="optimizeLegibility">Temple Tip</text><text x="20" y="150" fill="#90c" font-family="Arial" font-size="15" font-size-adjust=".5" text-anchor="end" text-rendering="optimizeLegibility">Plastic cover for comfort</text><path stroke="#f60" stroke-dasharray="5,3" stroke-width="1.5" d="m150 200-50 30"/><text x="80" y="240" fill="#f60" font-family="Arial" font-size="17.5" font-size-adjust=".5" font-weight="bold" text-rendering="optimizeLegibility">Hinge</text><text x="80" y="260" fill="#f60" font-family="Arial" font-size="15" font-size-adjust=".5" text-rendering="optimizeLegibility">Allows temples to fold</text><path stroke="#669" stroke-dasharray="5,3" stroke-width="1.5" d="M400 240v40"/><text x="400" y="300" fill="#669" font-family="Arial" font-size="17.5" font-size-adjust=".5" font-weight="bold" text-anchor="middle" text-rendering="optimizeLegibility">Nose Pads</text><text x="400" y="320" fill="#669" font-family="Arial" font-size="15" font-size-adjust=".5" text-anchor="middle" text-rendering="optimizeLegibility">Support the frame on the nose</text><text x="400" y="360" font-family="Arial" font-size="22.5" font-size-adjust=".5" font-weight="bold" text-anchor="middle" text-rendering="optimizeLegibility">Frame Measurements</text><path stroke="#036" stroke-width="2" d="M150 200h200"/><text x="250" y="390" fill="#036" font-family="Arial" font-size="17.5" font-size-adjust=".5" font-weight="bold" text-anchor="middle" text-rendering="optimizeLegibility">Eye Size / Lens Width</text><text x="250" y="410" fill="#036" font-family="Arial" font-size="15" font-size-adjust=".5" text-anchor="middle" text-rendering="optimizeLegibility">Horizontal width of the lens</text><path stroke="#900" stroke-width="2" d="M350 200h100"/><text x="400" y="440" fill="#900" font-family="Arial" font-size="17.5" font-size-adjust=".5" font-weight="bold" text-anchor="middle" text-rendering="optimizeLegibility">Bridge Width (DBL)</text><text x="400" y="460" fill="#900" font-family="Arial" font-size="15" font-size-adjust=".5" text-anchor="middle" text-rendering="optimizeLegibility">Distance between lenses</text><path stroke="#060" stroke-width="2" d="m650 200 90-20"/><text x="600" y="390" fill="#060" font-family="Arial" font-size="17.5" font-size-adjust=".5" font-weight="bold" text-anchor="middle" text-rendering="optimizeLegibility">Temple Length</text><text x="600" y="410" fill="#060" font-family="Arial" font-size="15" font-size-adjust=".5" text-anchor="middle" text-rendering="optimizeLegibility">Length of the side arms</text><path stroke="#606" stroke-width="2" d="M250 120v160"/><text x="180" y="440" fill="#606" font-family="Arial" font-size="17.5" font-size-adjust=".5" font-weight="bold" text-anchor="middle" text-rendering="optimizeLegibility">Lens Height</text><text x="180" y="460" fill="#606" font-family="Arial" font-size="15" font-size-adjust=".5" text-anchor="middle" text-rendering="optimizeLegibility">Vertical height of the lens</text></svg>