<svg xmlns="http://www.w3.org/2000/svg" width="800" height="500" aria-hidden="false" viewBox="0 0 800 500"><path fill="#f0f0f0" d="M0 0h800v500H0z"/><text x="400" y="40" font-family="Arial" font-size="24" font-size-adjust=".5" font-weight="bold" text-anchor="middle" text-rendering="optimizeLegibility">Eyeglass Frame Measurements</text><ellipse cx="250" cy="200" fill="#fff" stroke="#333" stroke-width="3" rx="100" ry="80"/><ellipse cx="550" cy="200" fill="#fff" stroke="#333" stroke-width="3" rx="100" ry="80"/><path fill="#fff" stroke="#333" stroke-width="3" d="M350 200c20-20 80-20 100 0"/><path fill="none" stroke="#333" stroke-width="3" d="M150 200c-30 0-60-100-90-100m590 100c30 0 60-100 90-100"/><path stroke="#06c" stroke-width="3" d="M150 200h200"/><path stroke="#06c" stroke-width="2" d="M150 190v20m200-20v20"/><text x="250" y="185" fill="#06c" font-family="Arial" font-size="16" font-size-adjust=".5" font-weight="bold" text-anchor="middle" text-rendering="optimizeLegibility">A</text><path stroke="#c30" stroke-width="3" d="M350 200h100"/><path stroke="#c30" stroke-width="2" d="M350 190v20m100-20v20"/><text x="400" y="185" fill="#c30" font-family="Arial" font-size="16" font-size-adjust=".5" font-weight="bold" text-anchor="middle" text-rendering="optimizeLegibility">B</text><path fill="none" stroke="#093" stroke-width="3" d="M650 200c30 0 60-100 90-100"/><path stroke="#093" stroke-width="2" d="M650 190v20m90-120v20"/><text x="700" y="140" fill="#093" font-family="Arial" font-size="16" font-size-adjust=".5" font-weight="bold" text-anchor="middle" text-rendering="optimizeLegibility">C</text><path stroke="#90c" stroke-width="3" d="M250 120v160"/><path stroke="#90c" stroke-width="2" d="M240 120h20m-20 160h20"/><text x="230" y="200" fill="#90c" font-family="Arial" font-size="16" font-size-adjust=".5" font-weight="bold" text-anchor="middle" text-rendering="optimizeLegibility">D</text><path fill="none" stroke="#f60" stroke-dasharray="5,3" stroke-width="2" d="M270 130a90 70 0 0 1 0 140"/><path stroke="#f60" stroke-width="2" d="M265 130h10m-10 140h10"/><text x="290" y="200" fill="#f60" font-family="Arial" font-size="16" font-size-adjust=".5" font-weight="bold" text-anchor="middle" text-rendering="optimizeLegibility">ED</text><path stroke="#669" stroke-dasharray="5,3" stroke-width="2" d="M350 230h100"/><path stroke="#669" stroke-width="2" d="M350 225v10m100-10v10"/><text x="400" y="250" fill="#669" font-family="Arial" font-size="14" font-size-adjust=".5" font-weight="bold" text-anchor="middle" text-rendering="optimizeLegibility">DBL</text><rect width="600" height="150" x="100" y="320" fill="#fff" stroke="#333" rx="10" ry="10"/><text x="400" y="345" font-family="Arial" font-size="18" font-size-adjust=".5" font-weight="bold" text-anchor="middle" text-rendering="optimizeLegibility">Measurement Legend</text><circle cx="130" cy="370" r="10" fill="#06c"/><text x="150" y="375" fill="#06c" font-family="Arial" font-size="16" font-size-adjust=".5" font-weight="bold" text-rendering="optimizeLegibility">A:</text><text x="180" y="375" fill="#06c" font-family="Arial" font-size="14" font-size-adjust=".5" text-rendering="optimizeLegibility">Eye Size / Lens Width (mm)</text><circle cx="130" cy="400" r="10" fill="#c30"/><text x="150" y="405" fill="#c30" font-family="Arial" font-size="16" font-size-adjust=".5" font-weight="bold" text-rendering="optimizeLegibility">B:</text><text x="180" y="405" fill="#c30" font-family="Arial" font-size="14" font-size-adjust=".5" text-rendering="optimizeLegibility">Bridge Width (mm)</text><circle cx="130" cy="430" r="10" fill="#093"/><text x="150" y="435" fill="#093" font-family="Arial" font-size="16" font-size-adjust=".5" font-weight="bold" text-rendering="optimizeLegibility">C:</text><text x="180" y="435" fill="#093" font-family="Arial" font-size="14" font-size-adjust=".5" text-rendering="optimizeLegibility">Temple Length (mm)</text><circle cx="130" cy="460" r="10" fill="#90c"/><text x="150" y="465" fill="#90c" font-family="Arial" font-size="16" font-size-adjust=".5" font-weight="bold" text-rendering="optimizeLegibility">D:</text><text x="180" y="465" fill="#90c" font-family="Arial" font-size="14" font-size-adjust=".5" text-rendering="optimizeLegibility">Lens Height (mm)</text><circle cx="430" cy="370" r="10" fill="#f60"/><text x="450" y="375" fill="#f60" font-family="Arial" font-size="16" font-size-adjust=".5" font-weight="bold" text-rendering="optimizeLegibility">ED:</text><text x="485" y="375" fill="#f60" font-family="Arial" font-size="14" font-size-adjust=".5" text-rendering="optimizeLegibility">Effective Diameter (mm)</text><circle cx="430" cy="400" r="10" fill="#669"/><text x="450" y="405" fill="#669" font-family="Arial" font-size="16" font-size-adjust=".5" font-weight="bold" text-rendering="optimizeLegibility">DBL:</text><text x="485" y="405" fill="#669" font-family="Arial" font-size="14" font-size-adjust=".5" text-rendering="optimizeLegibility">Distance Between Lenses (mm)</text><rect width="250" height="30" x="430" fill="#e6e6e6" stroke="#333" rx="5" ry="5"/><text x="555" y="450" font-family="Arial" font-size="14" font-size-adjust=".5" font-weight="bold" text-anchor="middle" text-rendering="optimizeLegibility">Frame Size Format: A-B-C</text><text x="520" y="475" fill="#333" font-family="Arial" font-size="14" font-size-adjust=".5" text-anchor="middle" text-rendering="optimizeLegibility">Example: 52-18-140</text></svg>