<svg xmlns="http://www.w3.org/2000/svg" width="700" height="420" aria-hidden="false" viewBox="0 0 700 420"><path fill="#fff" d="M0 0h700v420H0z"/><text x="350" y="40" fill="#333" font-family="Arial" font-size="24" font-size-adjust=".5" font-weight="bold" text-anchor="middle" text-rendering="optimizeLegibility">Common Lens Forms</text><text x="350" fill="#333" font-family="Arial" font-size="18" font-size-adjust=".5" text-anchor="middle" text-rendering="optimizeLegibility" transform="translate(0 80)">Convex (Plus) Lenses</text><path fill="#E6F7FF" stroke="#333" stroke-width="2" d="M120 140q20-40 40 0-20 40-40 0Z"/><text x="40" y="60" fill="#333" font-family="Arial" font-size="14" font-size-adjust=".5" text-anchor="middle" text-rendering="optimizeLegibility" transform="translate(100 140)">Biconvex</text><text x="40" y="80" fill="#666" font-family="Arial" font-size="12" font-size-adjust=".5" text-anchor="middle" text-rendering="optimizeLegibility" transform="translate(100 140)">(+) Both sides curve out</text><path fill="#E6F7FF" stroke="#333" stroke-width="2" d="M300 140v-40h40v80h-40v-40q20 40 40 0Z"/><text x="40" y="60" fill="#333" font-family="Arial" font-size="14" font-size-adjust=".5" text-anchor="middle" text-rendering="optimizeLegibility" transform="translate(280 140)">Plano-Convex</text><text x="40" y="80" fill="#666" font-family="Arial" font-size="12" font-size-adjust=".5" text-anchor="middle" text-rendering="optimizeLegibility" transform="translate(280 140)">(+) Flat and outward curve</text><path fill="#E6F7FF" stroke="#333" stroke-width="2" d="M480 140q10-40 40 0-30 30-40 0Z"/><text x="40" y="60" fill="#333" font-family="Arial" font-size="14" font-size-adjust=".5" text-anchor="middle" text-rendering="optimizeLegibility" transform="translate(460 140)">Convex Meniscus</text><text x="40" y="80" fill="#666" font-family="Arial" font-size="12" font-size-adjust=".5" text-anchor="middle" text-rendering="optimizeLegibility" transform="translate(460 140)">(+) Outward curve stronger</text><text x="350" fill="#333" font-family="Arial" font-size="18" font-size-adjust=".5" text-anchor="middle" text-rendering="optimizeLegibility" transform="translate(0 230)">Concave (Minus) Lenses</text><path fill="#E6F7FF" stroke="#333" stroke-width="2" d="M120 290q-20-40 0-40h40q20 0 0 40 20 40 0 40h-40q-20 0 0-40Z"/><text x="40" y="60" fill="#333" font-family="Arial" font-size="14" font-size-adjust=".5" text-anchor="middle" text-rendering="optimizeLegibility" transform="translate(100 290)">Biconcave</text><text x="40" y="80" fill="#666" font-family="Arial" font-size="12" font-size-adjust=".5" text-anchor="middle" text-rendering="optimizeLegibility" transform="translate(100 290)">(-) Both sides curve in</text><path fill="#E6F7FF" stroke="#333" stroke-width="2" d="M300 290v-40h40q20 0 0 40 20 40 0 40h-40z"/><text x="40" y="60" fill="#333" font-family="Arial" font-size="14" font-size-adjust=".5" text-anchor="middle" text-rendering="optimizeLegibility" transform="translate(280 290)">Plano-Concave</text><text x="40" y="80" fill="#666" font-family="Arial" font-size="12" font-size-adjust=".5" text-anchor="middle" text-rendering="optimizeLegibility" transform="translate(280 290)">(-) Flat and inward curve</text><path fill="#E6F7FF" stroke="#333" stroke-width="2" d="M480 290q-10-35 0-40h40q10 5 0 40 10 35 0 40h-40q-10-5 0-40Z"/><text x="40" y="60" fill="#333" font-family="Arial" font-size="14" font-size-adjust=".5" text-anchor="middle" text-rendering="optimizeLegibility" transform="translate(460 290)">Concave Meniscus</text><text x="40" y="80" fill="#666" font-family="Arial" font-size="12" font-size-adjust=".5" text-anchor="middle" text-rendering="optimizeLegibility" transform="translate(460 290)">(-) Inward curve stronger</text><g fill="#333" font-family="Arial" font-size="14" font-size-adjust=".5" text-anchor="middle" text-rendering="optimizeLegibility"><text x="350" transform="translate(0 380)" font-size-adjust="0.5" text-rendering="optimizeLegibility">
      Lens form affects optical properties including thickness, weight, aberrations, and cosmetic appearance.
    </text><text x="350" y="25" transform="translate(0 380)" font-size-adjust="0.5" text-rendering="optimizeLegibility">
      The choice of form depends on the prescription needs and frame selection.
    </text></g><g transform="translate(550 130)"><rect width="120" height="75" fill="#f8f8f8" stroke="#ccc" rx="5" ry="5"/><text x="60" y="20" fill="#333" font-family="Arial" font-size="14" font-size-adjust=".5" font-weight="bold" text-anchor="middle" text-rendering="optimizeLegibility">Legend</text><circle cx="20" cy="40" r="6" fill="#E6F7FF" stroke="#333"/><text x="30" y="44" fill="#333" font-family="Arial" font-size="12" font-size-adjust=".5" text-rendering="optimizeLegibility">Lens material</text><path stroke="#333" stroke-width="2" d="M10 60h20"/><text x="40" y="64" fill="#333" font-family="Arial" font-size="12" font-size-adjust=".5" text-rendering="optimizeLegibility">Lens surface</text></g></svg>