<svg xmlns="http://www.w3.org/2000/svg" width="400" height="300" aria-hidden="false" viewBox="0 0 400 300"><defs><linearGradient id="a" x1="0%" x2="100%" y1="0%" y2="0%"><stop offset="0%" stop-color="#e6f7ff"/><stop offset="100%" stop-color="#99d6ff"/></linearGradient><filter id="b" width="140%" height="140%" x="-20%" y="-20%"><feDropShadow dx="3" dy="3" flood-opacity=".3" stdDeviation="5"/></filter></defs><path fill="#f8f8f8" d="M0 0h400v300H0z"/><g transform="translate(100 140)"><rect width="30" height="120" x="-15" y="40" fill="#555" rx="10"/><rect width="20" height="110" x="-10" y="45" fill="#777" rx="8"/><circle r="60" fill="#444"/><circle r="55" fill="#666"/><circle r="50" fill="url(#a)" filter="url(#b)"/><ellipse cx="-15" cy="-15" fill="#fff" opacity=".6" rx="20" ry="15"/><text y="5" fill="#333" font-family="Arial" font-size="10" font-size-adjust=".5" text-anchor="middle" text-rendering="optimizeLegibility">2.5x</text></g><g transform="translate(280 165)"><ellipse cy="60" fill="#555" rx="40" ry="10"/><ellipse cy="55" fill="#777" rx="35" ry="8"/><path fill="#666" d="M-5 0H5v55H-5z"/><rect width="70" height="20" x="-35" y="-10" fill="#444" rx="5"/><ellipse fill="url(#a)" filter="url(#b)" rx="30" ry="25"/><ellipse cx="-10" cy="-8" fill="#fff" opacity=".6" rx="10" ry="8"/><text y="5" fill="#333" font-family="Arial" font-size="8" font-size-adjust=".5" text-anchor="middle" text-rendering="optimizeLegibility">3.0x</text></g><text x="200" y="40" fill="#333" font-family="Arial" font-size="20" font-size-adjust=".5" font-weight="bold" text-anchor="middle" text-rendering="optimizeLegibility">Low Vision Magnifiers</text><text x="100" y="270" fill="#333" font-family="Arial" font-size="14" font-size-adjust=".5" text-anchor="middle" text-rendering="optimizeLegibility">Handheld</text><text x="280" y="270" fill="#333" font-family="Arial" font-size="14" font-size-adjust=".5" text-anchor="middle" text-rendering="optimizeLegibility">Stand</text></svg>