<svg xmlns="http://www.w3.org/2000/svg" width="600" height="300" aria-hidden="false" viewBox="0 0 600 300"><path fill="#fff" d="M0 0h600v300H0z"/><ellipse cx="300" cy="150" fill="#fff" stroke="#333" stroke-width="2" rx="150" ry="100"/><path fill="#E6F7FF" stroke="#333" stroke-width="2" d="M150 150q-20-50 0-100 20 50 0 100"/><ellipse cx="200" cy="150" fill="#E6F7FF" stroke="#333" stroke-width="2" rx="25" ry="40"/><path fill="none" stroke="#333" stroke-width="2" d="M450 70q20 80 0 160"/><path stroke="gold" stroke-width="3" d="m100 100 150 50m-150 0h150m-150 50 150-50m0 0 100-30m-100 30h100m-100 0 100 30"/><path stroke="gold" stroke-dasharray="5,3" stroke-width="2" d="m350 120 100-20m-100 50h100m-100 30 100 20"/><circle cx="350" cy="150" r="5" fill="red"/><text x="300" y="240" fill="#333" font-family="Arial" font-size="16" font-size-adjust=".5" text-anchor="middle" text-rendering="optimizeLegibility">Myopia: Light focuses in front of the retina</text><text x="350" y="135" fill="red" font-family="Arial" font-size="14" font-size-adjust=".5" text-anchor="middle" text-rendering="optimizeLegibility">Focal point</text><text x="450" y="60" fill="#333" font-family="Arial" font-size="14" font-size-adjust=".5" text-anchor="middle" text-rendering="optimizeLegibility">Retina</text></svg>