<svg xmlns="http://www.w3.org/2000/svg" width="300" height="200" aria-hidden="false" viewBox="0 0 300 200"><defs><linearGradient id="a" x1="0%" x2="100%" y1="0%" y2="100%"><stop offset="0%" stop-color="#ffe0b2"/><stop offset="100%" stop-color="#ffcc80"/></linearGradient><linearGradient id="b" x1="0%" x2="100%" y1="0%" y2="100%"><stop offset="0%" stop-color="#4fc3f7"/><stop offset="100%" stop-color="#0288d1"/></linearGradient><linearGradient id="d" x1="0%" x2="100%" y1="0%" y2="100%"><stop offset="0%" stop-color="#ef9a9a"/><stop offset="100%" stop-color="#e57373"/></linearGradient><linearGradient id="c" x1="0%" x2="100%" y1="0%" y2="100%"><stop offset="0%" stop-color="#e3f2fd" stop-opacity=".6"/><stop offset="100%" stop-color="#bbdefb" stop-opacity=".4"/></linearGradient></defs><path fill="#f0f0f0" d="M0 0h300v200H0z"/><text x="150" y="20" font-family="Arial" font-size="14" font-size-adjust=".5" font-weight="bold" text-anchor="middle" text-rendering="optimizeLegibility">Pediatric Frame Fitting Guidelines</text><g transform="translate(75 75)"><ellipse fill="url(#a)" stroke="#f57c00" rx="30" ry="40"/><path fill="none" stroke="url(#b)" stroke-width="2" d="M-25-5h7a15 12 0 0 1 36 0h7"/><path fill="url(#b)" stroke="#000" stroke-width=".5" d="m-25-5-3 1-2-4h5Zm50 0 3 1 2-4h-5Z"/><ellipse cx="-13" cy="-5" fill="url(#c)" stroke="#0288d1" stroke-width=".5" rx="10" ry="8"/><ellipse cx="13" cy="-5" fill="url(#c)" stroke="#0288d1" stroke-width=".5" rx="10" ry="8"/><circle cx="-13" cy="-5" r="3" fill="#5d4037" stroke="#000" stroke-width=".5"/><circle cx="13" cy="-5" r="3" fill="#5d4037" stroke="#000" stroke-width=".5"/><path fill="none" stroke="#f57c00" d="M-2 0q3 7.5 6 0m-14 15c5 5 15 5 20 0"/><path fill="none" stroke="#4caf50" stroke-linecap="round" stroke-width="2" d="m-20-25-5 5 10 5m35-10-5 5 10 5"/><text y="40" fill="#388e3c" font-family="Arial" font-size="10" font-size-adjust=".5" font-weight="bold" text-anchor="middle" text-rendering="optimizeLegibility">Good Fit</text></g><g transform="translate(185 75)"><ellipse fill="url(#a)" stroke="#f57c00" rx="30" ry="40"/><path fill="none" stroke="url(#d)" stroke-width="2" d="M-30-5h10a20 15 0 0 1 40 0h10"/><path fill="url(#d)" stroke="#000" stroke-width=".5" d="m-30-5-3 1-2-4h5Zm60 0 3 1 2-4h-5Z"/><ellipse cx="-15" cy="-5" fill="url(#c)" stroke="#e57373" stroke-width=".5" rx="13" ry="10"/><ellipse cx="15" cy="-5" fill="url(#c)" stroke="#e57373" stroke-width=".5" rx="13" ry="10"/><circle cx="-13" cy="-5" r="3" fill="#5d4037" stroke="#000" stroke-width=".5"/><circle cx="13" cy="-5" r="3" fill="#5d4037" stroke="#000" stroke-width=".5"/><path fill="none" stroke="#f57c00" d="M-2 0q3 7.5 6 0m-14 15h20"/><path fill="none" stroke="#f44336" stroke-linecap="round" stroke-width="2" d="m-25-25 10 10m0-10-10 10m40-10 10 10m0-10L15-15"/><text y="40" fill="#d32f2f" font-family="Arial" font-size="10" font-size-adjust=".5" font-weight="bold" text-anchor="middle" text-rendering="optimizeLegibility">Poor Fit</text></g><g transform="translate(150 140)"><rect width="250" height="45" x="-125" fill="#e8f5e9" stroke="#2e7d32" rx="5" ry="5"/><text y="12" font-family="Arial" font-size="9" font-size-adjust=".5" font-weight="bold" text-anchor="middle" text-rendering="optimizeLegibility">Pediatric Frame Fitting Essentials:</text><text y="24" font-family="Arial" font-size="8" font-size-adjust=".5" text-anchor="middle" text-rendering="optimizeLegibility">• Frame width should align with face width</text><text y="34" font-family="Arial" font-size="8" font-size-adjust=".5" text-anchor="middle" text-rendering="optimizeLegibility">• Bridge must fit securely without slipping</text><text y="43" font-family="Arial" font-size="8" font-size-adjust=".5" text-anchor="middle" text-rendering="optimizeLegibility">• Temples should be appropriate length with gentle curve</text></g><g stroke="#01579b"><path stroke-dasharray="2" d="M45 55h60"/><path d="M45 55v-4m60 4v-4"/></g><path stroke="#b71c1c" stroke-dasharray="2" d="M150 55h70"/><path stroke="#b71c1c" d="M150 55v-4m70 4v-4"/><text y="-25" fill="#b71c1c" font-family="Arial" font-size="6" font-size-adjust=".5" text-anchor="middle" text-rendering="optimizeLegibility" transform="translate(185 75)">Too Wide</text></svg>