<svg xmlns="http://www.w3.org/2000/svg" width="800" height="600" aria-hidden="false" viewBox="0 0 800 600"><path fill="#f8f9fa" d="M0 0h800v600H0z"/><text x="400" y="50" font-family="Arial, sans-serif" font-size="24" font-size-adjust=".5" font-weight="bold" text-anchor="middle" text-rendering="optimizeLegibility">Presbyopia</text><text x="250" y="100" font-family="Arial, sans-serif" font-size="18" font-size-adjust=".5" font-weight="bold" text-anchor="middle" text-rendering="optimizeLegibility">Young Eye (Normal Accommodation)</text><text x="550" y="100" font-family="Arial, sans-serif" font-size="18" font-size-adjust=".5" font-weight="bold" text-anchor="middle" text-rendering="optimizeLegibility">Aging Eye (Presbyopia)</text><g transform="translate(50 140)"><text x="200" font-family="Arial, sans-serif" font-size="14" font-size-adjust=".5" text-anchor="middle" text-rendering="optimizeLegibility">Viewing Distant Objects</text><ellipse cx="200" cy="80" fill="#f0f0f0" stroke="#2c3e50" stroke-width="2" rx="200" ry="80"/><ellipse cx="70" cy="80" fill="#d6eaf8" stroke="#2c3e50" stroke-width="2" rx="20" ry="60"/><path fill="none" stroke="#8e44ad" stroke-width="2" d="M35 30q15-10 30 0M35 130q15 10 30 0"/><path fill="#7fb3d5" fill-opacity=".6" stroke="#2c3e50" d="M70 20v120Z"/><circle cx="70" cy="80" r="15" fill="#2c3e50"/><path fill="none" stroke="#2c3e50" stroke-width="2" d="M20 40q20 40 0 80"/><path fill="none" stroke="#e74c3c" stroke-width="2" d="M400 20v120"/><path stroke="#ff9800" stroke-width="2" d="M-30 60h50m-50 20h50m-50 20h50m0-40 50 10M20 80h50m-50 20 50-10"/><path stroke="#ff9800" stroke-dasharray="5,5" stroke-width="2" d="m70 70 330-50M70 80h330M70 90l330 50"/><circle cx="400" cy="80" r="6" fill="#2ecc71"/><text x="70" y="160" font-family="Arial, sans-serif" font-size="12" font-size-adjust=".5" text-anchor="middle" text-rendering="optimizeLegibility">Relaxed Lens</text><text x="50" y="175" font-family="Arial, sans-serif" font-size="12" font-size-adjust=".5" text-anchor="middle" text-rendering="optimizeLegibility">(Thinner)</text><text x="400" y="160" font-family="Arial, sans-serif" font-size="12" font-size-adjust=".5" text-anchor="middle" text-rendering="optimizeLegibility">Retina</text><text x="30" y="25" font-family="Arial, sans-serif" font-size="12" font-size-adjust=".5" text-rendering="optimizeLegibility">Relaxed Muscles</text></g><g transform="translate(50 310)"><text x="200" font-family="Arial, sans-serif" font-size="14" font-size-adjust=".5" text-anchor="middle" text-rendering="optimizeLegibility">Viewing Near Objects</text><ellipse cx="200" cy="80" fill="#f0f0f0" stroke="#2c3e50" stroke-width="2" rx="200" ry="80"/><ellipse cx="70" cy="80" fill="#d6eaf8" stroke="#2c3e50" stroke-width="2" rx="30" ry="60"/><path fill="none" stroke="#8e44ad" stroke-width="3" d="M35 30q8-2 15 0M35 130q8 2 15 0"/><path fill="#7fb3d5" fill-opacity=".6" stroke="#2c3e50" d="M70 20v120Z"/><circle cx="70" cy="80" r="12" fill="#2c3e50"/><path fill="none" stroke="#2c3e50" stroke-width="2" d="M20 40q20 40 0 80"/><path fill="none" stroke="#e74c3c" stroke-width="2" d="M400 20v120"/><path stroke="#ff9800" stroke-width="2" d="m-30 30 50 30m-50 20h50m-50 50 50-30m0-40 50 10M20 80h50m-50 20 50-10"/><path stroke="#ff9800" stroke-dasharray="5,5" stroke-width="2" d="m70 70 330-50M70 80h330M70 90l330 50"/><circle cx="400" cy="80" r="6" fill="#2ecc71"/><text x="70" y="160" font-family="Arial, sans-serif" font-size="12" font-size-adjust=".5" text-anchor="middle" text-rendering="optimizeLegibility">Accommodated Lens</text><text x="70" y="175" font-family="Arial, sans-serif" font-size="12" font-size-adjust=".5" text-anchor="middle" text-rendering="optimizeLegibility">(Thicker)</text><text x="400" y="160" font-family="Arial, sans-serif" font-size="12" font-size-adjust=".5" text-anchor="middle" text-rendering="optimizeLegibility">Retina</text><text x="30" y="25" font-family="Arial, sans-serif" font-size="12" font-size-adjust=".5" text-rendering="optimizeLegibility">Contracted Muscles</text></g><g transform="translate(450 140)"><text x="200" font-family="Arial, sans-serif" font-size="14" font-size-adjust=".5" text-anchor="middle" text-rendering="optimizeLegibility">Viewing Distant Objects</text><ellipse cx="100" cy="80" fill="#f0f0f0" stroke="#2c3e50" stroke-width="2" rx="200" ry="80"/><ellipse cx="70" cy="80" fill="#d6eaf8" fill-opacity=".8" stroke="#2c3e50" stroke-width="2" rx="20" ry="60"/><path fill="none" stroke="#8e44ad" stroke-dasharray="2,2" stroke-width="1.5" d="M35 30q15-10 30 0M35 130q15 10 30 0"/><path fill="#7fb3d5" fill-opacity=".6" stroke="#2c3e50" d="M70 20v120Z"/><circle cx="70" cy="80" r="15" fill="#2c3e50"/><path fill="none" stroke="#2c3e50" stroke-width="2" d="M20 40q20 40 0 80"/><path fill="none" stroke="#e74c3c" stroke-width="2" d="M300 20v120"/><path stroke="#ff9800" stroke-width="2" d="M-30 60h50m-50 20h50m-50 20h50m0-40 50 10M20 80h50m-50 20 50-10"/><path stroke="#ff9800" stroke-dasharray="5,5" stroke-width="2" d="m70 70 230-50M70 80h230M70 90l230 50"/><circle cx="300" cy="80" r="6" fill="#2ecc71"/><text x="70" y="160" font-family="Arial, sans-serif" font-size="12" font-size-adjust=".5" text-anchor="middle" text-rendering="optimizeLegibility">Less Flexible Lens</text><text x="300" y="160" font-family="Arial, sans-serif" font-size="12" font-size-adjust=".5" text-anchor="middle" text-rendering="optimizeLegibility">Retina</text><text x="30" y="25" font-family="Arial, sans-serif" font-size="12" font-size-adjust=".5" text-rendering="optimizeLegibility">Weaker Muscles</text></g><g transform="translate(450 310)"><text x="200" font-family="Arial, sans-serif" font-size="14" font-size-adjust=".5" text-anchor="middle" text-rendering="optimizeLegibility">Viewing Near Objects (Problem)</text><ellipse cx="100" cy="80" fill="#f0f0f0" stroke="#2c3e50" stroke-width="2" rx="200" ry="80"/><ellipse cx="70" cy="80" fill="#d6eaf8" fill-opacity=".8" stroke="#2c3e50" stroke-width="2" rx="23" ry="60"/><path fill="none" stroke="#8e44ad" stroke-dasharray="2,2" stroke-width="3" d="M35 30q8-2 15 0M35 130q8 2 15 0"/><path fill="#7fb3d5" fill-opacity=".6" stroke="#2c3e50" d="M70 20v120Z"/><circle cx="70" cy="80" r="12" fill="#2c3e50"/><path fill="none" stroke="#2c3e50" stroke-width="2" d="M20 40q20 40 0 80"/><path fill="none" stroke="#e74c3c" stroke-width="2" d="M300 20v120"/><path stroke="#ff9800" stroke-width="2" d="m-30 30 50 30m-50 20h50m-50 50 50-30m0-40 50 10M20 80h50m-50 20 50-10"/><path stroke="#ff9800" stroke-dasharray="5,5" stroke-width="2" d="m70 70 280-50M70 80h280M70 90l280 50"/><circle cx="350" cy="80" r="6" fill="#e74c3c"/><circle cx="300" cy="80" r="30" fill="#e74c3c" fill-opacity=".2" stroke="#e74c3c" stroke-dasharray="3,3"/><path stroke="#e74c3c" stroke-dasharray="3,3" d="M300 80h50"/><text x="70" y="160" font-family="Arial, sans-serif" font-size="12" font-size-adjust=".5" text-anchor="middle" text-rendering="optimizeLegibility">Insufficient Accommodation</text><text x="300" y="160" font-family="Arial, sans-serif" font-size="12" font-size-adjust=".5" text-anchor="middle" text-rendering="optimizeLegibility">Blurred Image</text><text x="350" y="160" font-family="Arial, sans-serif" font-size="12" font-size-adjust=".5" text-anchor="middle" text-rendering="optimizeLegibility">Focal Point</text></g><g transform="translate(100 490)"><rect width="600" height="100" fill="#edf2f7" stroke="#2c3e50" rx="10"/><text x="300" y="30" font-family="Arial, sans-serif" font-size="16" font-size-adjust=".5" font-weight="bold" text-anchor="middle" text-rendering="optimizeLegibility">Presbyopia Correction</text><ellipse cx="100" cy="60" fill="#3498db" fill-opacity=".3" stroke="#3498db" stroke-width="2" rx="20" ry="30"/><path fill="none" stroke="#3498db" stroke-width="2" d="M80 60c10-20 30-20 40 0-10 20-30 20-40 0"/><text x="300" y="60" font-family="Arial, sans-serif" font-size="14" font-size-adjust=".5" text-rendering="optimizeLegibility">
      Reading glasses with convex lenses (plus power) help focus near objects onto the retina
    </text><text x="300" y="80" font-family="Arial, sans-serif" font-size="14" font-size-adjust=".5" text-rendering="optimizeLegibility">
      by compensating for the loss of accommodation ability in the aging eye.
    </text><path fill="#3498db" fill-opacity=".2" stroke="#3498db" d="M500 40h50v40h-50Z"/><path fill="#3498db" fill-opacity=".1" stroke="#3498db" d="M500 40h50v10h-50Z"/><path fill="#3498db" fill-opacity=".3" stroke="#3498db" d="M500 50h50v15h-50Z"/><path fill="#3498db" fill-opacity=".5" stroke="#3498db" d="M500 65h50v15h-50Z"/><text x="525" y="95" font-family="Arial, sans-serif" font-size="10" font-size-adjust=".5" text-anchor="middle" text-rendering="optimizeLegibility">Progressive Lens</text></g></svg>