<svg xmlns="http://www.w3.org/2000/svg" width="800" height="600" aria-hidden="false" viewBox="0 0 800 600"><path fill="#f8f9fa" d="M0 0h800v600H0z"/><text x="400" y="50" font-family="Arial, sans-serif" font-size="24" font-size-adjust=".5" font-weight="bold" text-anchor="middle" text-rendering="optimizeLegibility">Prism Diopter Explanation</text><g transform="translate(100 150)"><path fill="#a7c7e7" fill-opacity=".6" stroke="#2c3e50" stroke-width="3" d="M200 50h200L300 250Z"/><path stroke="#888" stroke-dasharray="5,5" stroke-width="2" d="M100 50h400"/><path stroke="#ff6b6b" stroke-width="3" d="M100 50h100"/><path stroke="#ff6b6b" stroke-dasharray="5,5" stroke-width="3" d="m200 50 100 200"/><path stroke="#ff6b6b" stroke-width="3" d="m300 250 200 100"/><path stroke="#333" stroke-width="2" d="M500 50v300m-5-300h10m-10 300h10"/><path stroke="#333" d="M520 50v300"/><text x="550" y="50" dominant-baseline="middle" font-family="Arial, sans-serif" font-size="14" font-size-adjust=".5" text-rendering="optimizeLegibility">0 cm</text><text x="550" y="350" dominant-baseline="middle" font-family="Arial, sans-serif" font-size="14" font-size-adjust=".5" text-rendering="optimizeLegibility">30 cm</text><path stroke="#333" stroke-width="1.5" marker-end="url(#a)" d="M500 200h30"/><text x="570" y="200" dominant-baseline="middle" font-family="Arial, sans-serif" font-size="16" font-size-adjust=".5" text-rendering="optimizeLegibility">Deviation = 30 cm</text><text x="300" y="370" font-family="Arial, sans-serif" font-size="16" font-size-adjust=".5" text-anchor="middle" text-rendering="optimizeLegibility">Distance = 100 cm</text><path stroke="#333" stroke-width="1.5" marker-end="url(#a)" marker-start="url(#a)" d="M100 350h400"/><rect width="300" height="80" x="150" y="400" fill="#edf2f7" stroke="#2c3e50" stroke-width="2" rx="10"/><text x="300" y="425" font-family="Arial, sans-serif" font-size="16" font-size-adjust=".5" font-weight="bold" text-anchor="middle" text-rendering="optimizeLegibility">Prism Diopter Calculation</text><text x="300" y="455" font-family="Arial, sans-serif" font-size="16" font-size-adjust=".5" text-anchor="middle" text-rendering="optimizeLegibility">
      1 Prism Diopter (Δ) = 1 cm deviation at 1 meter
    </text><text x="300" y="480" font-family="Arial, sans-serif" font-size="16" font-size-adjust=".5" text-anchor="middle" text-rendering="optimizeLegibility">
      In this example: 30 cm at 100 cm = 30Δ
    </text></g><defs><marker id="a" markerHeight="7" markerWidth="10" orient="auto" refX="0" refY="3.5"><path fill="#333" d="m0 0 10 3.5L0 7z"/></marker></defs><text x="400" y="400" font-family="Arial, sans-serif" font-size="14" font-size-adjust=".5" text-anchor="middle" text-rendering="optimizeLegibility">Apex</text><path stroke="#333" marker-end="url(#a)" d="M400 390v-20"/><text x="300" y="150" font-family="Arial, sans-serif" font-size="14" font-size-adjust=".5" text-anchor="middle" text-rendering="optimizeLegibility">Base</text><path stroke="#333" marker-end="url(#a)" d="M300 160v20"/></svg>