<svg xmlns="http://www.w3.org/2000/svg" width="700" height="300" aria-hidden="false" viewBox="0 0 700 300"><path fill="#f8f9fa" d="M0 0h700v300H0z"/><path stroke="#ccc" stroke-dasharray="5,5" stroke-width="2" d="M350 30v240"/><text x="175" y="30" font-family="Arial" font-size="18" font-size-adjust=".5" font-weight="bold" text-anchor="middle" text-rendering="optimizeLegibility">Specular Reflection</text><text x="525" y="30" font-family="Arial" font-size="18" font-size-adjust=".5" font-weight="bold" text-anchor="middle" text-rendering="optimizeLegibility">Diffuse Reflection</text><path stroke="#333" stroke-width="3" d="M50 200h250"/><path fill="none" stroke="#333" stroke-width="3" d="M400 190q10 15 20 5t20 10q10 10 20-5t20-5 20-5q10-10 20 5t20 0q10-10 20 5 10 10 20-5 10-10 20 5t20-5q10-10 20 10 10-15 10-5"/><path stroke="#999" stroke-dasharray="3,3" d="M175 200v-80"/><text x="178" y="115" font-family="Arial" font-size="12" font-size-adjust=".5" text-rendering="optimizeLegibility">Normal</text><path stroke="#999" stroke-dasharray="3,3" d="M525 195v-80"/><text x="528" y="110" font-family="Arial" font-size="12" font-size-adjust=".5" text-rendering="optimizeLegibility">Normal</text><path stroke="#f60" stroke-width="2" d="m120 120 55 80"/><path fill="#f60" d="m120 120 8 7-2-13z"/><text x="110" y="110" font-family="Arial" font-size="12" font-size-adjust=".5" text-rendering="optimizeLegibility">Incident</text><text x="110" y="125" font-family="Arial" font-size="12" font-size-adjust=".5" text-rendering="optimizeLegibility">Light</text><path stroke="#06f" stroke-width="2" d="m175 200 55-80"/><path fill="#06f" d="m230 120-8 7 2-13z"/><text x="235" y="110" font-family="Arial" font-size="12" font-size-adjust=".5" text-rendering="optimizeLegibility">Reflected</text><text x="235" y="125" font-family="Arial" font-size="12" font-size-adjust=".5" text-rendering="optimizeLegibility">Light</text><path fill="none" stroke="#f60" d="M175 200a40 40 0 0 1-15-35"/><text x="150" y="170" fill="#f60" font-family="Arial" font-size="10" font-size-adjust=".5" text-rendering="optimizeLegibility">θ</text><path fill="none" stroke="#06f" d="M175 200a40 40 0 0 0 15-35"/><text x="195" y="170" fill="#06f" font-family="Arial" font-size="10" font-size-adjust=".5" text-rendering="optimizeLegibility">θ</text><path stroke="#f60" stroke-width="2" d="m470 120 55 75"/><path fill="#f60" d="m470 120 8 7-2-13z"/><text x="460" y="110" font-family="Arial" font-size="12" font-size-adjust=".5" text-rendering="optimizeLegibility">Incident</text><text x="460" y="125" font-family="Arial" font-size="12" font-size-adjust=".5" text-rendering="optimizeLegibility">Light</text><path stroke="#06f" stroke-width="1.5" d="m525 195-35-55"/><path fill="#06f" d="m490 140 4 8 6-8z"/><path stroke="#06f" stroke-width="1.5" d="m525 195-15-70"/><path fill="#06f" d="m510 125 4 8 6-8z"/><path stroke="#06f" stroke-width="1.5" d="m525 195 10-75"/><path fill="#06f" d="m535 120 4 8 6-8z"/><path stroke="#06f" stroke-width="1.5" d="m525 195 30-70"/><path fill="#06f" d="m555 125 4 8 6-8z"/><path stroke="#06f" stroke-width="1.5" d="m525 195 50-50"/><path fill="#06f" d="m575 145 4 8 6-8z"/><text x="575" y="110" font-family="Arial" font-size="12" font-size-adjust=".5" text-rendering="optimizeLegibility">Scattered</text><text x="575" y="125" font-family="Arial" font-size="12" font-size-adjust=".5" text-rendering="optimizeLegibility">Reflection</text><text x="175" y="250" font-family="Arial" font-size="14" font-size-adjust=".5" text-anchor="middle" text-rendering="optimizeLegibility">Smooth surface: Light reflects</text><text x="175" y="270" font-family="Arial" font-size="14" font-size-adjust=".5" text-anchor="middle" text-rendering="optimizeLegibility">at a predictable angle (mirrors)</text><text x="525" y="250" font-family="Arial" font-size="14" font-size-adjust=".5" text-anchor="middle" text-rendering="optimizeLegibility">Rough surface: Light scatters</text><text x="525" y="270" font-family="Arial" font-size="14" font-size-adjust=".5" text-anchor="middle" text-rendering="optimizeLegibility">in multiple directions (paper, wall)</text></svg>