<svg xmlns="http://www.w3.org/2000/svg" width="800" height="600" aria-hidden="false" viewBox="0 0 800 600"><defs><linearGradient id="a" x1="0%" x2="100%" y1="0%" y2="0%"><stop offset="0%" stop-color="#fff"/><stop offset="100%" stop-color="#e0e0ff"/></linearGradient><linearGradient id="b" x1="0%" x2="100%" y1="0%" y2="0%"><stop offset="0%" stop-color="#d0e8ff" stop-opacity=".7"/><stop offset="100%" stop-color="#a0c4ff" stop-opacity=".7"/></linearGradient><linearGradient id="c" x1="0%" x2="100%" y1="0%" y2="0%"><stop offset="0%" stop-color="#ffe0e0" stop-opacity=".7"/><stop offset="100%" stop-color="#ffb0b0" stop-opacity=".7"/></linearGradient></defs><path fill="#f8f8f8" d="M0 0h800v600H0z"/><text x="400" y="40" fill="#333" font-family="Arial, sans-serif" font-size="24" font-size-adjust=".5" font-weight="bold" text-anchor="middle" text-rendering="optimizeLegibility">Refractive Errors and Their Corrections</text><g transform="translate(200 130)"><text y="-45" fill="#333" font-family="Arial, sans-serif" font-size="16" font-size-adjust=".5" font-weight="bold" text-anchor="middle" text-rendering="optimizeLegibility">NORMAL VISION</text><ellipse fill="url(#a)" stroke="#333" stroke-width="1.5" rx="90" ry="70"/><path fill="none" stroke="#333" stroke-width="1.5" d="M-90 0q-20-40 0-65"/><ellipse cx="-45" fill="url(#b)" stroke="#333" rx="15" ry="35"/><path fill="none" stroke="#c00" stroke-dasharray="3,2" d="M90 0Q70 60 0 70-70 60-90 0"/><path stroke="#fc0" stroke-width="1.5" d="m-180 30 90-15m-90-15h90m-90-30 90 15m0 30L85 0M-90 0H85M-90-15 85 0"/><circle cx="85" r="4" fill="#f33"/><text y="95" fill="#333" font-family="Arial, sans-serif" font-size="12" font-size-adjust=".5" text-anchor="middle" text-rendering="optimizeLegibility">Light focuses precisely on the retina</text><text y="115" fill="#333" font-family="Arial, sans-serif" font-size="12" font-size-adjust=".5" text-anchor="middle" text-rendering="optimizeLegibility">Clear vision at all distances</text></g><g transform="translate(600 130)"><text y="-45" fill="#333" font-family="Arial, sans-serif" font-size="16" font-size-adjust=".5" font-weight="bold" text-anchor="middle" text-rendering="optimizeLegibility">MYOPIA (Nearsightedness)</text><ellipse fill="url(#a)" stroke="#333" stroke-width="1.5" rx="110" ry="70"/><path fill="none" stroke="#333" stroke-width="1.5" d="M-110 0q-20-40 0-65"/><ellipse cx="-55" fill="url(#b)" stroke="#333" rx="15" ry="35"/><path fill="none" stroke="#c00" stroke-dasharray="3,2" d="M110 0Q85 60 0 70-85 60-110 0"/><path stroke="#fc0" stroke-width="1.5" d="m-200 30 90-15m-90-15h90m-90-30 90 15m0 30L60 0m-170 0H60m-170-15L60 0"/><circle cx="60" r="4" fill="#f33"/><path stroke="#fc0" stroke-dasharray="3,1" d="m60 0 45 10M60 0h45M60 0l45-10"/><text y="95" fill="#333" font-family="Arial, sans-serif" font-size="12" font-size-adjust=".5" text-anchor="middle" text-rendering="optimizeLegibility">Light focuses in front of the retina</text><text y="115" fill="#333" font-family="Arial, sans-serif" font-size="12" font-size-adjust=".5" text-anchor="middle" text-rendering="optimizeLegibility">Difficulty seeing distant objects</text></g><g transform="translate(600 280)"><text y="-25" fill="#333" font-family="Arial, sans-serif" font-size="16" font-size-adjust=".5" font-weight="bold" text-anchor="middle" text-rendering="optimizeLegibility">CORRECTION: Concave (Minus) Lens</text><ellipse fill="url(#a)" stroke="#333" stroke-width="1.5" rx="110" ry="70"/><path fill="none" stroke="#333" stroke-width="1.5" d="M-110 0q-20-40 0-65"/><ellipse cx="-55" fill="url(#b)" stroke="#333" rx="15" ry="35"/><path fill="none" stroke="#c00" stroke-dasharray="3,2" d="M110 0Q85 60 0 70-85 60-110 0"/><path fill="url(#c)" stroke="#c00" stroke-width="1.5" d="M-165 35c10-10 10-60 0-70-10 10-10 60 0 70"/><path stroke="#fc0" stroke-width="1.5" d="M-200 30h25m-25-30h25m-25-30h25m10 60 55-20m-55-10h55m-55-30 55 20m0 20L105 0m-215 0h215m-215-10L105 0"/><circle cx="105" r="4" fill="#f33"/><text y="95" fill="#333" font-family="Arial, sans-serif" font-size="12" font-size-adjust=".5" text-anchor="middle" text-rendering="optimizeLegibility">Concave lens diverges light rays</text><text y="115" fill="#333" font-family="Arial, sans-serif" font-size="12" font-size-adjust=".5" text-anchor="middle" text-rendering="optimizeLegibility">Focus is moved back onto the retina</text></g><g transform="translate(200 320)"><text y="-45" fill="#333" font-family="Arial, sans-serif" font-size="16" font-size-adjust=".5" font-weight="bold" text-anchor="middle" text-rendering="optimizeLegibility">HYPEROPIA (Farsightedness)</text><ellipse fill="url(#a)" stroke="#333" stroke-width="1.5" rx="75" ry="70"/><path fill="none" stroke="#333" stroke-width="1.5" d="M-75 0q-20-40 0-65"/><ellipse cx="-40" fill="url(#b)" stroke="#333" rx="15" ry="35"/><path fill="none" stroke="#c00" stroke-dasharray="3,2" d="M75 0Q60 60 0 70-60 60-75 0"/><path stroke="#fc0" stroke-width="1.5" d="m-180 30 105-15M-180 0h105m-105-30 105 15m0 30L75 8M-75 0H75M-75-15 75-8"/><circle cx="115" r="4" fill="#f33" stroke="#f33" stroke-dasharray="2,1"/><path stroke="#f33" stroke-dasharray="2,1" d="M75 0h40"/><text y="95" fill="#333" font-family="Arial, sans-serif" font-size="12" font-size-adjust=".5" text-anchor="middle" text-rendering="optimizeLegibility">Light would focus behind the retina</text><text y="115" fill="#333" font-family="Arial, sans-serif" font-size="12" font-size-adjust=".5" text-anchor="middle" text-rendering="optimizeLegibility">Difficulty seeing near objects</text></g><g transform="translate(200 470)"><text y="-25" fill="#333" font-family="Arial, sans-serif" font-size="16" font-size-adjust=".5" font-weight="bold" text-anchor="middle" text-rendering="optimizeLegibility">CORRECTION: Convex (Plus) Lens</text><ellipse fill="url(#a)" stroke="#333" stroke-width="1.5" rx="75" ry="70"/><path fill="none" stroke="#333" stroke-width="1.5" d="M-75 0q-20-40 0-65"/><ellipse cx="-40" fill="url(#b)" stroke="#333" rx="15" ry="35"/><path fill="none" stroke="#c00" stroke-dasharray="3,2" d="M75 0Q60 60 0 70-60 60-75 0"/><path fill="url(#b)" stroke="#06c" stroke-width="1.5" d="M-165-35c-20 10-20 60 0 70 20-10 20-60 0-70"/><path stroke="#fc0" stroke-width="1.5" d="M-200 30h15m-15-30h15m-15-30h15m20 60 90-10m-90-20h90m-90-30 90 10m0 40L70 0M-75 0H70M-75-20 70 0"/><circle cx="70" r="4" fill="#f33"/><text y="95" fill="#333" font-family="Arial, sans-serif" font-size="12" font-size-adjust=".5" text-anchor="middle" text-rendering="optimizeLegibility">Convex lens converges light rays</text><text y="115" fill="#333" font-family="Arial, sans-serif" font-size="12" font-size-adjust=".5" text-anchor="middle" text-rendering="optimizeLegibility">Focus is moved forward onto the retina</text></g><g transform="translate(600 450)"><text y="-75" fill="#333" font-family="Arial, sans-serif" font-size="16" font-size-adjust=".5" font-weight="bold" text-anchor="middle" text-rendering="optimizeLegibility">ASTIGMATISM</text><ellipse fill="url(#a)" stroke="#333" stroke-width="1.5" rx="90" ry="70"/><path fill="none" stroke="#333" stroke-width="1.5" d="M-90 0q-20-30 0-65 5-10 10 0"/><ellipse cx="-45" fill="url(#b)" stroke="#333" rx="15" ry="35"/><path fill="none" stroke="#c00" stroke-dasharray="3,2" d="M90 0Q70 60 0 70-70 60-90 0"/><path stroke="#fc0" stroke-width="1.5" d="m-180 30 90-15m-90-15h90m-90-30 90 15m0 30L60 5M-90 0H75M-90-15 60-5"/><circle cx="60" cy="5" r="3" fill="#f33"/><circle cx="75" r="3" fill="#f33"/><circle cx="60" cy="-5" r="3" fill="#f33"/><rect width="30" height="30" x="-140" y="-15" fill="none" stroke="#06c" stroke-dasharray="2,1" rx="5" ry="5"/><text x="-125" y="35" fill="#06c" font-family="Arial, sans-serif" font-size="12" font-size-adjust=".5" text-anchor="middle" text-rendering="optimizeLegibility">Cylindrical</text><text x="-125" y="50" fill="#06c" font-family="Arial, sans-serif" font-size="12" font-size-adjust=".5" text-anchor="middle" text-rendering="optimizeLegibility">Lens</text><text y="95" fill="#333" font-family="Arial, sans-serif" font-size="12" font-size-adjust=".5" text-anchor="middle" text-rendering="optimizeLegibility">Irregularly curved cornea or lens</text><text y="115" fill="#333" font-family="Arial, sans-serif" font-size="12" font-size-adjust=".5" text-anchor="middle" text-rendering="optimizeLegibility">Light focuses at multiple points</text><text y="135" fill="#333" font-family="Arial, sans-serif" font-size="12" font-size-adjust=".5" text-anchor="middle" text-rendering="optimizeLegibility">Corrected with cylindrical lens</text></g><rect width="130" height="80" x="650" y="500" fill="#fff" stroke="#333" rx="5" ry="5"/><text x="715" y="520" fill="#333" font-family="Arial, sans-serif" font-size="12" font-size-adjust=".5" font-weight="bold" text-anchor="middle" text-rendering="optimizeLegibility">LEGEND</text><path stroke="#fc0" stroke-width="1.5" d="M665 535h20"/><text x="730" y="540" fill="#333" font-family="Arial, sans-serif" font-size="11" font-size-adjust=".5" text-rendering="optimizeLegibility">Light Rays</text><circle cx="675" cy="555" r="3" fill="#f33"/><text x="730" y="560" fill="#333" font-family="Arial, sans-serif" font-size="11" font-size-adjust=".5" text-rendering="optimizeLegibility">Focal Point</text><path stroke="#c00" stroke-dasharray="3,2" d="M665 575h20"/><text x="730" y="580" fill="#333" font-family="Arial, sans-serif" font-size="11" font-size-adjust=".5" text-rendering="optimizeLegibility">Retina</text></svg>