<svg xmlns="http://www.w3.org/2000/svg" width="300" height="200" aria-hidden="false" class="mobile-optimized" viewBox="0 0 300 200"><defs><linearGradient id="a" x1="0%" x2="100%" y1="0%" y2="100%"><stop offset="0%" stop-color="#888"/><stop offset="100%" stop-color="#333"/></linearGradient><linearGradient id="b" x1="0%" x2="100%" y1="0%" y2="100%"><stop offset="0%" stop-color="#ffeb3b" stop-opacity=".5"/><stop offset="100%" stop-color="#fbc02d" stop-opacity=".5"/></linearGradient><linearGradient id="c" x1="0%" x2="100%" y1="0%" y2="100%"><stop offset="0%" stop-color="#8d6e63" stop-opacity=".5"/><stop offset="100%" stop-color="#5d4037" stop-opacity=".5"/></linearGradient><linearGradient id="d" x1="0%" x2="100%" y1="0%" y2="100%"><stop offset="0%" stop-color="#9e9e9e" stop-opacity=".5"/><stop offset="100%" stop-color="#616161" stop-opacity=".5"/></linearGradient><linearGradient id="e" x1="0%" x2="100%" y1="0%" y2="100%"><stop offset="0%" stop-color="#81c784" stop-opacity=".5"/><stop offset="100%" stop-color="#388e3c" stop-opacity=".5"/></linearGradient><linearGradient id="f" x1="0%" x2="100%" y1="0%" y2="100%"><stop offset="0%" stop-color="#64b5f6" stop-opacity=".5"/><stop offset="100%" stop-color="#1976d2" stop-opacity=".5"/></linearGradient></defs><path fill="#f0f0f0" d="M0 0h300v200H0z"/><text x="150" y="20" font-family="Arial" font-size="17.5" font-size-adjust=".5" font-weight="bold" text-anchor="middle" text-rendering="optimizeLegibility">Sport Lens Tint Comparison</text><path fill="url(#a)" stroke="#000" d="M0 10a30 30 0 0 1 60 0 30 30 0 0 1-60 0Z" transform="translate(30 50)"/><path fill="url(#b)" stroke="#000" stroke-width=".5" d="M5 10a25 25 0 0 1 50 0 25 25 0 0 1-50 0Z" transform="translate(30 50)"/><text x="30" y="50" font-family="Arial" font-size="12.5" font-size-adjust=".5" font-weight="bold" text-anchor="middle" text-rendering="optimizeLegibility" transform="translate(30 50)">Yellow</text><text x="30" y="65" font-family="Arial" font-size="10" font-size-adjust=".5" text-anchor="middle" text-rendering="optimizeLegibility" transform="translate(30 50)">• Enhances contrast</text><text x="30" y="75" font-family="Arial" font-size="10" font-size-adjust=".5" text-anchor="middle" text-rendering="optimizeLegibility" transform="translate(30 50)">• Low light conditions</text><text x="30" y="85" font-family="Arial" font-size="10" font-size-adjust=".5" text-anchor="middle" text-rendering="optimizeLegibility" transform="translate(30 50)">• Shooting, cycling</text><path fill="url(#a)" stroke="#000" d="M0 10a30 30 0 0 1 60 0 30 30 0 0 1-60 0Z" transform="translate(100 50)"/><path fill="url(#c)" stroke="#000" stroke-width=".5" d="M5 10a25 25 0 0 1 50 0 25 25 0 0 1-50 0Z" transform="translate(100 50)"/><text x="30" y="50" font-family="Arial" font-size="12.5" font-size-adjust=".5" font-weight="bold" text-anchor="middle" text-rendering="optimizeLegibility" transform="translate(100 50)">Brown</text><text x="30" y="65" font-family="Arial" font-size="10" font-size-adjust=".5" text-anchor="middle" text-rendering="optimizeLegibility" transform="translate(100 50)">• All-purpose</text><text x="30" y="75" font-family="Arial" font-size="10" font-size-adjust=".5" text-anchor="middle" text-rendering="optimizeLegibility" transform="translate(100 50)">• Glare reduction</text><text x="30" y="85" font-family="Arial" font-size="10" font-size-adjust=".5" text-anchor="middle" text-rendering="optimizeLegibility" transform="translate(100 50)">• Golf, baseball</text><path fill="url(#a)" stroke="#000" d="M0 10a30 30 0 0 1 60 0 30 30 0 0 1-60 0Z" transform="translate(170 50)"/><path fill="url(#d)" stroke="#000" stroke-width=".5" d="M5 10a25 25 0 0 1 50 0 25 25 0 0 1-50 0Z" transform="translate(170 50)"/><text x="30" y="50" font-family="Arial" font-size="12.5" font-size-adjust=".5" font-weight="bold" text-anchor="middle" text-rendering="optimizeLegibility" transform="translate(170 50)">Grey</text><text x="30" y="65" font-family="Arial" font-size="10" font-size-adjust=".5" text-anchor="middle" text-rendering="optimizeLegibility" transform="translate(170 50)">• True color perception</text><text x="30" y="75" font-family="Arial" font-size="10" font-size-adjust=".5" text-anchor="middle" text-rendering="optimizeLegibility" transform="translate(170 50)">• Reduces brightness</text><text x="30" y="85" font-family="Arial" font-size="10" font-size-adjust=".5" text-anchor="middle" text-rendering="optimizeLegibility" transform="translate(170 50)">• Running, driving</text><path fill="url(#a)" stroke="#000" d="M0 10a30 30 0 0 1 60 0 30 30 0 0 1-60 0Z" transform="translate(65 110)"/><path fill="url(#e)" stroke="#000" stroke-width=".5" d="M5 10a25 25 0 0 1 50 0 25 25 0 0 1-50 0Z" transform="translate(65 110)"/><text x="30" y="50" font-family="Arial" font-size="12.5" font-size-adjust=".5" font-weight="bold" text-anchor="middle" text-rendering="optimizeLegibility" transform="translate(65 110)">Green</text><text x="30" y="65" font-family="Arial" font-size="10" font-size-adjust=".5" text-anchor="middle" text-rendering="optimizeLegibility" transform="translate(65 110)">• Enhanced contrast</text><text x="30" y="75" font-family="Arial" font-size="10" font-size-adjust=".5" text-anchor="middle" text-rendering="optimizeLegibility" transform="translate(65 110)">• Bright conditions</text><text x="30" y="85" font-family="Arial" font-size="10" font-size-adjust=".5" text-anchor="middle" text-rendering="optimizeLegibility" transform="translate(65 110)">• Tennis, golf</text><path fill="url(#a)" stroke="#000" d="M0 10a30 30 0 0 1 60 0 30 30 0 0 1-60 0Z" transform="translate(135 110)"/><path fill="url(#f)" stroke="#000" stroke-width=".5" d="M5 10a25 25 0 0 1 50 0 25 25 0 0 1-50 0Z" transform="translate(135 110)"/><text x="30" y="50" font-family="Arial" font-size="12.5" font-size-adjust=".5" font-weight="bold" text-anchor="middle" text-rendering="optimizeLegibility" transform="translate(135 110)">Blue</text><text x="30" y="65" font-family="Arial" font-size="10" font-size-adjust=".5" text-anchor="middle" text-rendering="optimizeLegibility" transform="translate(135 110)">• Snow/water glare</text><text x="30" y="75" font-family="Arial" font-size="10" font-size-adjust=".5" text-anchor="middle" text-rendering="optimizeLegibility" transform="translate(135 110)">• Medium brightness</text><text x="30" y="85" font-family="Arial" font-size="10" font-size-adjust=".5" text-anchor="middle" text-rendering="optimizeLegibility" transform="translate(135 110)">• Skiing, water sports</text></svg>