<svg xmlns="http://www.w3.org/2000/svg" width="300" height="200" aria-hidden="false" viewBox="0 0 300 200"><defs><linearGradient id="a" x1="0%" x2="100%" y1="0%" y2="100%"><stop offset="0%" stop-color="#90caf9" stop-opacity=".7"/><stop offset="100%" stop-color="#42a5f5" stop-opacity=".5"/></linearGradient><linearGradient id="b" x1="0%" x2="100%" y1="0%" y2="100%"><stop offset="0%" stop-color="#f44336"/><stop offset="100%" stop-color="#b71c1c"/></linearGradient><linearGradient id="c" x1="0%" x2="100%" y1="0%" y2="100%"><stop offset="0%" stop-color="#43a047"/><stop offset="100%" stop-color="#1b5e20"/></linearGradient><linearGradient id="d" x1="0%" x2="100%" y1="0%" y2="100%"><stop offset="0%" stop-color="#ffb74d"/><stop offset="100%" stop-color="#ef6c00"/></linearGradient></defs><path fill="#f0f0f0" d="M0 0h300v200H0z"/><text x="150" y="20" font-family="Arial" font-size="14" font-size-adjust=".5" font-weight="bold" text-anchor="middle" text-rendering="optimizeLegibility">Sports Eyewear Straps</text><g transform="translate(50 50)"><path fill="none" stroke="#000" stroke-width="1.5" d="m0 10 20 2a25 25 0 0 0 45 0l20-2"/><ellipse cx="30" cy="12" fill="url(#a)" stroke="#000" rx="10" ry="8"/><ellipse cx="55" cy="12" fill="url(#a)" stroke="#000" rx="10" ry="8"/><path fill="#555" stroke="#000" stroke-width=".5" d="M0 10h-5l-3 4 3 4v-8m90 0h5l3 4-3 4v-8"/><path fill="none" stroke="url(#b)" stroke-linecap="round" stroke-width="7" d="M-8 14c-12 6-32 6-42 0s-30-6-40 0m183 0c12 6 32 6 42 0s30-6 40 0"/><text x="42.5" y="35" font-family="Arial" font-size="10" font-size-adjust=".5" font-weight="bold" text-anchor="middle" text-rendering="optimizeLegibility">Neoprene Strap</text><text x="42.5" y="48" font-family="Arial" font-size="8" font-size-adjust=".5" text-anchor="middle" text-rendering="optimizeLegibility">• Wide, comfortable</text><text x="42.5" y="58" font-family="Arial" font-size="8" font-size-adjust=".5" text-anchor="middle" text-rendering="optimizeLegibility">• Water sports</text></g><g transform="translate(50 115)"><path fill="none" stroke="#000" stroke-width="1.5" d="m0 10 20 2a25 25 0 0 0 45 0l20-2"/><ellipse cx="30" cy="12" fill="url(#a)" stroke="#000" rx="10" ry="8"/><ellipse cx="55" cy="12" fill="url(#a)" stroke="#000" rx="10" ry="8"/><path fill="#555" stroke="#000" stroke-width=".5" d="M0 10h-5l-3 4 3 4v-8m90 0h5l3 4-3 4v-8"/><path fill="none" stroke="url(#c)" stroke-linecap="round" stroke-width="3.5" d="M-8 14h-82m183 0h82"/><text x="42.5" y="35" font-family="Arial" font-size="10" font-size-adjust=".5" font-weight="bold" text-anchor="middle" text-rendering="optimizeLegibility">Tubular Strap</text><text x="42.5" y="48" font-family="Arial" font-size="8" font-size-adjust=".5" text-anchor="middle" text-rendering="optimizeLegibility">• Lightweight, elastic</text><text x="42.5" y="58" font-family="Arial" font-size="8" font-size-adjust=".5" text-anchor="middle" text-rendering="optimizeLegibility">• Running, cycling</text></g><g transform="translate(180 85)"><path fill="none" stroke="#000" stroke-width="1.5" d="m0 10 20 2a25 25 0 0 0 45 0l20-2"/><ellipse cx="30" cy="12" fill="url(#a)" stroke="#000" rx="10" ry="8"/><ellipse cx="55" cy="12" fill="url(#a)" stroke="#000" rx="10" ry="8"/><path fill="#555" stroke="#000" stroke-width=".5" d="M0 10h-5l-3 4 3 4v-8m90 0h5l3 4-3 4v-8"/><path fill="none" stroke="url(#d)" stroke-linecap="round" stroke-width="5" d="M-8 14c-12 2-32 4-42 0s-30-2-40 0m183 0c12 2 32 4 42 0s30-2 40 0"/><circle cx="-70" cy="14" r="3" fill="#fff" stroke="#f57c00"/><circle cx="155" cy="14" r="3" fill="#fff" stroke="#f57c00"/><text x="42.5" y="35" font-family="Arial" font-size="10" font-size-adjust=".5" font-weight="bold" text-anchor="middle" text-rendering="optimizeLegibility">Floating Strap</text><text x="42.5" y="48" font-family="Arial" font-size="8" font-size-adjust=".5" text-anchor="middle" text-rendering="optimizeLegibility">• Buoyant material</text><text x="42.5" y="58" font-family="Arial" font-size="8" font-size-adjust=".5" text-anchor="middle" text-rendering="optimizeLegibility">• Swimming, boating</text></g><g transform="translate(150 180)"><rect width="240" height="15" x="-120" fill="#e8eaf6" stroke="#3f51b5" rx="3" ry="3"/><text y="10" font-family="Arial" font-size="8" font-size-adjust=".5" text-anchor="middle" text-rendering="optimizeLegibility">Proper fit should be snug but not tight • Adjustable straps are preferred</text></g></svg>