<svg xmlns="http://www.w3.org/2000/svg" width="300" height="200" aria-hidden="false" viewBox="0 0 300 200"><defs><linearGradient id="a" x1="0%" x2="0%" y1="0%" y2="100%"><stop offset="0%" stop-color="#ffecb3"/><stop offset="100%" stop-color="#ffd966"/></linearGradient><linearGradient id="b" x1="0%" x2="0%" y1="0%" y2="100%"><stop offset="0%" stop-color="#b3e0ff"/><stop offset="100%" stop-color="#80c1ff"/></linearGradient><linearGradient id="c" x1="0%" x2="0%" y1="0%" y2="100%"><stop offset="0%" stop-color="#d1c4e9"/><stop offset="100%" stop-color="#b39ddb"/></linearGradient><linearGradient id="d" x1="0%" x2="0%" y1="0%" y2="100%"><stop offset="0%" stop-color="#e6e6fa"/><stop offset="100%" stop-color="#d8d8eb"/></linearGradient></defs><path fill="#f8f8f8" d="M0 0h300v200H0z"/><text x="150" y="25" fill="#333" font-family="Arial, sans-serif" font-size="16" font-size-adjust=".5" font-weight="bold" text-anchor="middle" text-rendering="optimizeLegibility">Tear Film Layers</text><path fill="url(#a)" stroke="#333" stroke-width=".5" d="M0 0c30-3 60-5 90-4s60 3 90 4 60 0 90 2v3c-30-2-60-1-90-2s-60 1-90 2S30 4 0 3Z" transform="translate(40 65)"/><text x="276" y="4" fill="#333" font-family="Arial, sans-serif" font-size="10" font-size-adjust=".5" text-rendering="optimizeLegibility" transform="translate(40 65)">Lipid Layer (0.1 μm)</text><path stroke="#333" stroke-width=".5" d="M310 69h5"/><path fill="url(#b)" stroke="#333" stroke-width=".5" d="M0 3c30 1 60 3 90 2s60-3 90-2 60 0 90 2v15c-30-2-60-1-90 0s-60-1-90-2-60 1-90 2Z" transform="translate(40 65)"/><text x="276" y="12" fill="#333" font-family="Arial, sans-serif" font-size="10" font-size-adjust=".5" text-rendering="optimizeLegibility" transform="translate(40 65)">Aqueous Layer (7 μm)</text><path stroke="#333" stroke-width=".5" d="M310 77h5"/><path fill="url(#c)" stroke="#333" stroke-width=".5" d="M0 20c30-1 60-3 90-2s60 3 90 2 60-2 90 0v5c-30-1-60-2-90-1s-60 2-90 1-60-2-90-1Z" transform="translate(40 65)"/><text x="276" y="22" fill="#333" font-family="Arial, sans-serif" font-size="10" font-size-adjust=".5" text-rendering="optimizeLegibility" transform="translate(40 65)">Mucin Layer (0.8 μm)</text><path stroke="#333" stroke-width=".5" d="M310 87h5"/><path fill="url(#d)" stroke="#333" stroke-width=".5" d="M0 24c30-1 60 0 90 1s60 0 90-1 60 0 90 1v40c-30 2-60 1-90 0s-60-2-90-1-60 3-90 2Z" transform="translate(40 65)"/><text x="276" y="45" fill="#333" font-family="Arial, sans-serif" font-size="10" font-size-adjust=".5" text-rendering="optimizeLegibility" transform="translate(40 65)">Corneal Epithelium</text><path stroke="#333" stroke-width=".5" d="M310 110h5"/><path fill="none" stroke="#333" stroke-dasharray="1,1" stroke-width=".3" d="M80 120c3-1 6 1 9 0s6 1 9 0 6 1 9 0m-27 5c3-1 6 1 9 0s6 1 9 0 6 1 9 0m-27 5c3-1 6 1 9 0s6 1 9 0 6 1 9 0"/><path stroke="#333" stroke-width=".5" d="M120 90v-3m3 3v-2m3 2v-3.5m3 3.5v-2.5m3 2.5v-3m3 3v-2"/><text x="30" y="-2" fill="#333" font-family="Arial, sans-serif" font-size="8" font-size-adjust=".5" text-rendering="optimizeLegibility" transform="translate(120 90)">Microvilli</text><path stroke="#333" stroke-dasharray="2,1" stroke-width=".5" d="M135 88h10"/><text x="40" y="160" fill="#555" font-family="Arial, sans-serif" font-size="9" font-size-adjust=".5" text-rendering="optimizeLegibility">• Lipid Layer: Prevents evaporation, stabilizes tear film</text><text x="40" y="170" fill="#555" font-family="Arial, sans-serif" font-size="9" font-size-adjust=".5" text-rendering="optimizeLegibility">• Aqueous Layer: Provides oxygen, nutrients, antibacterial proteins</text><text x="40" y="180" fill="#555" font-family="Arial, sans-serif" font-size="9" font-size-adjust=".5" text-rendering="optimizeLegibility">• Mucin Layer: Anchors tear film to cornea, aids in lubrication</text><text x="40" y="195" fill="#555" font-family="Arial, sans-serif" font-size="8" font-size-adjust=".5" text-rendering="optimizeLegibility">© Optician Trainer</text></svg>