<svg xmlns="http://www.w3.org/2000/svg" width="800" height="600" aria-hidden="false" class="mobile-optimized" viewBox="0 0 800 600"><defs><linearGradient id="a" x1="0%" x2="100%" y1="0%" y2="0%"><stop offset="0%" stop-color="#fcc"/><stop offset="100%" stop-color="#faa"/></linearGradient><filter id="b" width="140%" height="140%" x="-20%" y="-20%"><feGaussianBlur in="SourceAlpha" stdDeviation="3"/><feOffset dx="2" dy="2" result="offsetblur"/><feComponentTransfer><feFuncA slope=".3" type="linear"/></feComponentTransfer><feMerge><feMergeNode/><feMergeNode in="SourceGraphic"/></feMerge></filter></defs><path fill="#f8f8f8" d="M0 0h800v600H0z"/><text x="400" y="40" fill="#333" font-family="Arial, sans-serif" font-size="30" font-size-adjust=".5" font-weight="bold" text-anchor="middle" text-rendering="optimizeLegibility">Visual Pathway: Eye to Brain</text><path fill="url(#a)" stroke="#333" stroke-width="1.5" d="M400 150c100-30 200 0 250 100 30 70 0 150-50 200s-120 80-200 70c-80 10-150-20-200-70s-80-130-50-200c50-100 150-130 250-100Z"/><path fill="#f88" stroke="#c00" stroke-width="1.5" d="M400 520c-50-10-90-40-120-80q45 30 120 30t120-30c-30 40-70 70-120 80Z"/><text x="400" y="495" fill="#333" font-family="Arial, sans-serif" font-size="17.5" font-size-adjust=".5" font-weight="bold" text-anchor="middle" text-rendering="optimizeLegibility">Primary Visual Cortex</text><text x="400" y="515" fill="#333" font-family="Arial, sans-serif" font-size="15" font-size-adjust=".5" text-anchor="middle" text-rendering="optimizeLegibility">(Occipital Lobe)</text><ellipse cx="285" cy="370" fill="#f96" stroke="#c60" stroke-width="1.5" rx="20" ry="15"/><text x="285" y="400" fill="#333" font-family="Arial, sans-serif" font-size="15" font-size-adjust=".5" text-anchor="middle" text-rendering="optimizeLegibility">Left LGN</text><ellipse cx="515" cy="370" fill="#f96" stroke="#c60" stroke-width="1.5" rx="20" ry="15"/><text x="515" y="400" fill="#333" font-family="Arial, sans-serif" font-size="15" font-size-adjust=".5" text-anchor="middle" text-rendering="optimizeLegibility">Right LGN</text><path fill="#ffa" stroke="#990" stroke-width="1.5" d="M360 280c20-10 60-10 80 0v20c-20 10-60 10-80 0Z"/><text x="400" y="330" fill="#333" font-family="Arial, sans-serif" font-size="17.5" font-size-adjust=".5" font-weight="bold" text-anchor="middle" text-rendering="optimizeLegibility">Optic Chiasm</text><path fill="none" stroke="#cc0" stroke-linecap="round" stroke-width="4" d="M360 290c-40 10-60 30-75 65"/><text x="310" y="315" fill="#333" font-family="Arial, sans-serif" font-size="15" font-size-adjust=".5" text-anchor="middle" text-rendering="optimizeLegibility">Left Optic Tract</text><path fill="none" stroke="#cc0" stroke-linecap="round" stroke-width="4" d="M440 290c40 10 60 30 75 65"/><text x="490" y="315" fill="#333" font-family="Arial, sans-serif" font-size="15" font-size-adjust=".5" text-anchor="middle" text-rendering="optimizeLegibility">Right Optic Tract</text><path fill="none" stroke="#cc0" stroke-dasharray="7,3" stroke-width="3" d="M285 385c15 15 25 35 55 65 20 15 40 20 60 20"/><text x="320" y="440" fill="#333" font-family="Arial, sans-serif" font-size="15" font-size-adjust=".5" text-anchor="middle" text-rendering="optimizeLegibility">Left Optic Radiation</text><path fill="none" stroke="#cc0" stroke-dasharray="7,3" stroke-width="3" d="M515 385c-15 15-25 35-55 65-20 15-40 20-60 20"/><text x="480" y="440" fill="#333" font-family="Arial, sans-serif" font-size="15" font-size-adjust=".5" text-anchor="middle" text-rendering="optimizeLegibility">Right Optic Radiation</text><circle cx="250" cy="180" r="40" fill="#fff" stroke="#333" stroke-width="1.5"/><circle cx="250" cy="180" r="15" fill="#9cf" stroke="#06c"/><circle cx="250" cy="180" r="5"/><text x="250" y="235" fill="#333" font-family="Arial, sans-serif" font-size="17.5" font-size-adjust=".5" font-weight="bold" text-anchor="middle" text-rendering="optimizeLegibility">Left Eye</text><circle cx="550" cy="180" r="40" fill="#fff" stroke="#333" stroke-width="1.5"/><circle cx="550" cy="180" r="15" fill="#9cf" stroke="#06c"/><circle cx="550" cy="180" r="5"/><text x="550" y="235" fill="#333" font-family="Arial, sans-serif" font-size="17.5" font-size-adjust=".5" font-weight="bold" text-anchor="middle" text-rendering="optimizeLegibility">Right Eye</text><path fill="none" stroke="#cc0" stroke-linecap="round" stroke-width="4" d="M280 200c40 30 60 50 80 80"/><text x="320" y="220" fill="#333" font-family="Arial, sans-serif" font-size="15" font-size-adjust=".5" text-anchor="middle" text-rendering="optimizeLegibility">Left Optic Nerve</text><path fill="none" stroke="#cc0" stroke-linecap="round" stroke-width="4" d="M520 200c-40 30-60 50-80 80"/><text x="480" y="220" fill="#333" font-family="Arial, sans-serif" font-size="15" font-size-adjust=".5" text-anchor="middle" text-rendering="optimizeLegibility">Right Optic Nerve</text><path fill="none" stroke="#06c" stroke-dasharray="5,3" stroke-width="2" d="M200 100a60 60 0 0 1 0 160"/><text x="165" y="180" fill="#06c" font-family="Arial, sans-serif" font-size="15" font-size-adjust=".5" text-anchor="middle" text-rendering="optimizeLegibility" transform="rotate(-90 165 180)">Left Visual Field</text><path fill="none" stroke="#c00" stroke-dasharray="5,3" stroke-width="2" d="M600 100a60 60 0 0 0 0 160"/><text x="635" y="180" fill="#c00" font-family="Arial, sans-serif" font-size="15" font-size-adjust=".5" text-anchor="middle" text-rendering="optimizeLegibility" transform="rotate(90 635 180)">Right Visual Field</text><path fill="none" stroke="#06c" stroke-dasharray="3,2" stroke-width="1.5" d="m210 150 50 25 120 105 135 90-65 80"/><path fill="none" stroke="#c00" stroke-dasharray="3,2" stroke-width="1.5" d="m590 150-50 25-120 105-135 90 65 80"/><path fill="none" stroke="#333" stroke-dasharray="2,1" d="M400 280v-40h50"/><rect width="200" height="40" x="450" y="220" fill="#fff" stroke="#333" filter="url(#b)" rx="10" ry="10"/><text x="550" y="240" fill="#333" font-family="Arial, sans-serif" font-size="13.75" font-size-adjust=".5" text-anchor="middle" text-rendering="optimizeLegibility">Nasal fibers cross at chiasm</text><text x="550" y="255" fill="#333" font-family="Arial, sans-serif" font-size="13.75" font-size-adjust=".5" text-anchor="middle" text-rendering="optimizeLegibility">Temporal fibers remain uncrossed</text><path fill="none" stroke="#333" stroke-dasharray="2,1" d="M515 370h85"/><rect width="180" height="40" x="600" y="350" fill="#fff" stroke="#333" filter="url(#b)" rx="10" ry="10"/><text x="690" y="370" fill="#333" font-family="Arial, sans-serif" font-size="13.75" font-size-adjust=".5" text-anchor="middle" text-rendering="optimizeLegibility">Lateral Geniculate Nucleus (LGN)</text><text x="690" y="385" fill="#333" font-family="Arial, sans-serif" font-size="13.75" font-size-adjust=".5" text-anchor="middle" text-rendering="optimizeLegibility">Visual relay center in thalamus</text><path fill="none" stroke="#333" stroke-dasharray="2,1" d="M400 495H150"/><rect width="130" height="40" x="20" y="475" fill="#fff" stroke="#333" filter="url(#b)" rx="10" ry="10"/><text x="85" y="495" fill="#333" font-family="Arial, sans-serif" font-size="13.75" font-size-adjust=".5" text-anchor="middle" text-rendering="optimizeLegibility">V1 - Primary Visual Cortex</text><text x="85" y="510" fill="#333" font-family="Arial, sans-serif" font-size="13.75" font-size-adjust=".5" text-anchor="middle" text-rendering="optimizeLegibility">(Brodmann Area 17)</text><rect width="200" height="100" x="580" y="100" fill="#fff" stroke="#333" rx="5" ry="5"/><text x="680" y="120" fill="#333" font-family="Arial, sans-serif" font-size="17.5" font-size-adjust=".5" font-weight="bold" text-anchor="middle" text-rendering="optimizeLegibility">LEGEND</text><path stroke="#cc0" stroke-width="4" d="M600 140h30"/><text x="680" y="144" fill="#333" font-family="Arial, sans-serif" font-size="15" font-size-adjust=".5" text-rendering="optimizeLegibility">Optic Nerve/Tract</text><path stroke="#cc0" stroke-dasharray="7,3" stroke-width="3" d="M600 165h30"/><text x="680" y="169" fill="#333" font-family="Arial, sans-serif" font-size="15" font-size-adjust=".5" text-rendering="optimizeLegibility">Optic Radiation</text><path stroke="#06c" stroke-dasharray="3,2" stroke-width="1.5" d="M600 190h30"/><text x="680" y="194" fill="#333" font-family="Arial, sans-serif" font-size="15" font-size-adjust=".5" text-rendering="optimizeLegibility">Signal Path</text><text x="400" y="580" fill="#555" font-family="Arial, sans-serif" font-size="15" font-size-adjust=".5" text-anchor="middle" text-rendering="optimizeLegibility">Note: Left visual field information is processed by the right hemisphere, and right visual field information is processed by the left hemisphere.</text></svg>