<svg xmlns="http://www.w3.org/2000/svg" width="300" height="200" aria-hidden="false" class="mobile-optimized" viewBox="0 0 300 200"><defs><linearGradient id="a" x1="0%" x2="100%" y1="0%" y2="100%"><stop offset="0%" stop-color="#a8d5ff" stop-opacity=".6"/><stop offset="100%" stop-color="#5cb3ff" stop-opacity=".8"/></linearGradient><linearGradient id="d" x1="0%" x2="100%" y1="0%" y2="100%"><stop offset="0%" stop-color="#90ee90" stop-opacity=".6"/><stop offset="100%" stop-color="#32cd32" stop-opacity=".8"/></linearGradient><linearGradient id="c" x1="0%" x2="100%" y1="0%" y2="100%"><stop offset="0%" stop-color="#c8a2c8" stop-opacity=".6"/><stop offset="100%" stop-color="#9370db" stop-opacity=".8"/></linearGradient><filter id="b" width="140%" height="140%" x="-20%" y="-20%"><feGaussianBlur in="SourceAlpha" stdDeviation="2"/><feOffset dx="1" dy="1" result="offsetblur"/><feComponentTransfer><feFuncA slope=".2" type="linear"/></feComponentTransfer><feMerge><feMergeNode/><feMergeNode in="SourceGraphic"/></feMerge></filter></defs><path fill="#f8f8f8" d="M0 0h300v200H0z"/><text x="150" y="20" font-family="Arial" font-size="15" font-size-adjust=".5" font-weight="bold" text-anchor="middle" text-rendering="optimizeLegibility">Contact Lens Material Comparison</text><rect width="260" height="130" x="20" y="35" fill="#fff" stroke="#ddd" rx="5"/><rect width="70" height="20" x="20" y="35" fill="#f0f0f0" rx="3"/><rect width="70" height="20" x="90" y="35" fill="#f0f0f0" rx="3"/><rect width="70" height="20" x="160" y="35" fill="#f0f0f0" rx="3"/><rect width="50" height="20" x="230" y="35" fill="#f0f0f0" rx="3"/><text x="55" y="48" font-family="Arial" font-size="10" font-size-adjust=".5" font-weight="bold" text-anchor="middle" text-rendering="optimizeLegibility">Material Type</text><text x="125" y="48" font-family="Arial" font-size="10" font-size-adjust=".5" font-weight="bold" text-anchor="middle" text-rendering="optimizeLegibility">Oxygen Perm.</text><text x="195" y="48" font-family="Arial" font-size="10" font-size-adjust=".5" font-weight="bold" text-anchor="middle" text-rendering="optimizeLegibility">Water Content</text><text x="255" y="48" font-family="Arial" font-size="10" font-size-adjust=".5" font-weight="bold" text-anchor="middle" text-rendering="optimizeLegibility">Comfort</text><path fill="url(#a)" d="M20 55h70v30H20z" filter="url(#b)"/><text x="55" y="73" font-family="Arial" font-size="10" font-size-adjust=".5" font-weight="bold" text-anchor="middle" text-rendering="optimizeLegibility">Hydrogel</text><path fill="#fff" stroke="#ddd" d="M90 55h70v30H90z"/><rect width="60" height="10" x="95" y="65" fill="#f0f0f0" rx="5"/><rect width="30" height="10" x="95" y="65" fill="#5cb3ff" rx="5"/><text x="125" y="73" font-family="Arial" font-size="8.75" font-size-adjust=".5" text-anchor="middle" text-rendering="optimizeLegibility">Low (8-35)</text><path fill="#fff" stroke="#ddd" d="M160 55h70v30h-70z"/><rect width="60" height="10" x="165" y="65" fill="#f0f0f0" rx="5"/><rect width="54" height="10" x="165" y="65" fill="#5cb3ff" rx="5"/><text x="195" y="73" font-family="Arial" font-size="8.75" font-size-adjust=".5" text-anchor="middle" text-rendering="optimizeLegibility">High (38-70%)</text><path fill="#fff" stroke="#ddd" d="M230 55h50v30h-50z"/><text x="255" y="73" font-family="Arial" font-size="8.75" font-size-adjust=".5" text-anchor="middle" text-rendering="optimizeLegibility">⭐⭐⭐⭐</text><path fill="url(#c)" d="M20 85h70v30H20z" filter="url(#b)"/><text x="55" y="98" font-family="Arial" font-size="10" font-size-adjust=".5" font-weight="bold" text-anchor="middle" text-rendering="optimizeLegibility">Silicone</text><text x="55" y="108" font-family="Arial" font-size="10" font-size-adjust=".5" font-weight="bold" text-anchor="middle" text-rendering="optimizeLegibility">Hydrogel</text><path fill="#fff" stroke="#ddd" d="M90 85h70v30H90z"/><rect width="60" height="10" x="95" y="95" fill="#f0f0f0" rx="5"/><rect width="54" height="10" x="95" y="95" fill="#9370db" rx="5"/><text x="125" y="103" font-family="Arial" font-size="8.75" font-size-adjust=".5" text-anchor="middle" text-rendering="optimizeLegibility">High (60-140)</text><path fill="#fff" stroke="#ddd" d="M160 85h70v30h-70z"/><rect width="60" height="10" x="165" y="95" fill="#f0f0f0" rx="5"/><rect width="36" height="10" x="165" y="95" fill="#9370db" rx="5"/><text x="195" y="103" font-family="Arial" font-size="8.75" font-size-adjust=".5" text-anchor="middle" text-rendering="optimizeLegibility">Med (25-45%)</text><path fill="#fff" stroke="#ddd" d="M230 85h50v30h-50z"/><text x="255" y="103" font-family="Arial" font-size="8.75" font-size-adjust=".5" text-anchor="middle" text-rendering="optimizeLegibility">⭐⭐⭐⭐⭐</text><path fill="url(#d)" d="M20 115h70v30H20z" filter="url(#b)"/><text x="55" y="133" font-family="Arial" font-size="10" font-size-adjust=".5" font-weight="bold" text-anchor="middle" text-rendering="optimizeLegibility">RGP</text><path fill="#fff" stroke="#ddd" d="M90 115h70v30H90z"/><rect width="60" height="10" x="95" y="125" fill="#f0f0f0" rx="5"/><rect width="48" height="10" x="95" y="125" fill="#32cd32" rx="5"/><text x="125" y="133" font-family="Arial" font-size="8.75" font-size-adjust=".5" text-anchor="middle" text-rendering="optimizeLegibility">High (40-100)</text><path fill="#fff" stroke="#ddd" d="M160 115h70v30h-70z"/><rect width="60" height="10" x="165" y="125" fill="#f0f0f0" rx="5"/><rect width="6" height="10" x="165" y="125" fill="#32cd32" rx="5"/><text x="195" y="133" font-family="Arial" font-size="8.75" font-size-adjust=".5" text-anchor="middle" text-rendering="optimizeLegibility">Low (0-1%)</text><path fill="#fff" stroke="#ddd" d="M230 115h50v30h-50z"/><text x="255" y="133" font-family="Arial" font-size="8.75" font-size-adjust=".5" text-anchor="middle" text-rendering="optimizeLegibility">⭐⭐⭐</text><text x="20" y="175" fill="#666" font-family="Arial" font-size="8.75" font-size-adjust=".5" text-rendering="optimizeLegibility">Dk = Oxygen Permeability</text><text x="20" y="185" fill="#666" font-family="Arial" font-size="8.75" font-size-adjust=".5" text-rendering="optimizeLegibility">RGP = Rigid Gas Permeable</text><text x="140" y="175" fill="#666" font-family="Arial" font-size="8.75" font-size-adjust=".5" text-rendering="optimizeLegibility">Higher Dk = Better oxygen flow</text><text x="140" y="185" fill="#666" font-family="Arial" font-size="8.75" font-size-adjust=".5" text-rendering="optimizeLegibility">Higher water = More comfort (typically)</text></svg>