<svg xmlns="http://www.w3.org/2000/svg" width="400" height="300" aria-hidden="false" viewBox="0 0 400 300"><defs><linearGradient id="b" x1="0%" x2="0%" y1="0%" y2="100%"><stop offset="0%" stop-color="#333"/><stop offset="100%" stop-color="#111"/></linearGradient><linearGradient id="c" x1="0%" x2="0%" y1="0%" y2="100%"><stop offset="0%" stop-color="#f0f0f0"/><stop offset="100%" stop-color="#e0e0e0"/></linearGradient><filter id="a" width="140%" height="140%" x="-20%" y="-20%"><feDropShadow dx="3" dy="3" flood-opacity=".3" stdDeviation="5"/></filter></defs><path fill="#f8f8f8" d="M0 0h400v300H0z"/><text x="200" y="40" fill="#333" font-family="Arial" font-size="20" font-size-adjust=".5" font-weight="bold" text-anchor="middle" text-rendering="optimizeLegibility">Desktop CCTV</text><g transform="translate(200 135)"><rect width="120" height="10" x="-60" y="60" fill="#333" filter="url(#a)" rx="2"/><rect width="100" height="10" x="-50" y="50" fill="#444" rx="2"/><rect width="20" height="30" x="-10" y="20" fill="#555" rx="2"/><rect width="160" height="120" x="-80" y="-60" fill="url(#b)" filter="url(#a)" rx="5"/><rect width="150" height="110" x="-75" y="-55" fill="#222" rx="3"/><rect width="140" height="100" x="-70" y="-50" fill="url(#c)" rx="2"/><text y="-10" font-family="Arial" font-size="16" font-size-adjust=".5" font-weight="bold" text-anchor="middle" text-rendering="optimizeLegibility">MAGNIFIED</text><text y="10" font-family="Arial" font-size="16" font-size-adjust=".5" font-weight="bold" text-anchor="middle" text-rendering="optimizeLegibility">TEXT</text><circle cx="-65" cy="-65" r="3" fill="#777"/><circle cx="-55" cy="-65" r="3" fill="#777"/><rect width="15" height="5" x="50" y="-55" fill="#777" rx="2"/><rect width="15" height="5" x="50" y="-45" fill="#777" rx="2"/><rect width="15" height="5" x="50" y="-35" fill="#777" rx="2"/></g><g transform="translate(200 220)"><rect width="200" height="10" x="-100" fill="#333" filter="url(#a)" rx="3"/><rect width="180" height="10" x="-90" y="-10" fill="#444" rx="2"/><path fill="#666" d="M-80-20H80v10H-80z"/><path fill="#fff" d="M-70-21H70v1H-70z"/><path fill="#555" d="M-5-70H5v50H-5z"/><rect width="30" height="15" x="-15" y="-85" fill="#222" filter="url(#a)" rx="2"/><circle cy="-77.5" r="5" fill="#111"/><circle cy="-77.5" r="3" fill="#333"/><circle cy="-77.5" r="1.5" fill="#555"/><rect width="40" height="5" x="-20" y="-65" fill="#444" rx="2"/><circle cx="-15" cy="-62.5" r="2" fill="#ff9"/><circle cx="-5" cy="-62.5" r="2" fill="#ff9"/><circle cx="5" cy="-62.5" r="2" fill="#ff9"/><circle cx="15" cy="-62.5" r="2" fill="#ff9"/></g><text x="200" y="85" fill="#333" font-family="Arial" font-size="12" font-size-adjust=".5" text-anchor="middle" text-rendering="optimizeLegibility">Display Monitor</text><path stroke="#333" d="M200 90v10"/><text x="300" y="180" fill="#333" font-family="Arial" font-size="12" font-size-adjust=".5" text-anchor="middle" text-rendering="optimizeLegibility">Control Buttons</text><path stroke="#333" d="m300 185-25 10"/><text x="100" y="180" fill="#333" font-family="Arial" font-size="12" font-size-adjust=".5" text-anchor="middle" text-rendering="optimizeLegibility">Camera</text><path stroke="#333" d="m100 185 70-40"/><text x="200" y="250" fill="#333" font-family="Arial" font-size="12" font-size-adjust=".5" text-anchor="middle" text-rendering="optimizeLegibility">Reading Platform</text><path stroke="#333" d="M200 245v-20"/><text x="200" y="280" fill="#333" font-family="Arial" font-size="14" font-size-adjust=".5" text-anchor="middle" text-rendering="optimizeLegibility">
    Magnifies printed materials for low vision patients
  </text></svg>