<svg xmlns="http://www.w3.org/2000/svg" width="300" height="200" aria-hidden="false" class="mobile-optimized" viewBox="0 0 300 200"><defs><linearGradient id="a" x1="0%" x2="0%" y1="0%" y2="100%"><stop offset="0%" stop-color="#f8d5c2"/><stop offset="100%" stop-color="#e6b89c"/></linearGradient><linearGradient id="d" x1="0%" x2="0%" y1="0%" y2="100%"><stop offset="0%" stop-color="#ffcccb"/><stop offset="100%" stop-color="#ff9e9d"/></linearGradient><linearGradient id="b" x1="0%" x2="0%" y1="0%" y2="100%"><stop offset="0%" stop-color="#ee928d"/><stop offset="100%" stop-color="#cc6e69"/></linearGradient><linearGradient id="c" x1="0%" x2="0%" y1="0%" y2="100%"><stop offset="0%" stop-color="#c4daed"/><stop offset="100%" stop-color="#a3c2e3"/></linearGradient><linearGradient id="e" x1="0%" x2="0%" y1="0%" y2="100%"><stop offset="0%" stop-color="#ffecb3"/><stop offset="100%" stop-color="#ffd966"/></linearGradient></defs><path fill="#f8f8f8" d="M0 0h300v200H0z"/><text x="150" y="20" fill="#333" font-family="Arial, sans-serif" font-size="20" font-size-adjust=".5" font-weight="bold" text-anchor="middle" text-rendering="optimizeLegibility">Eyelid Anatomy</text><path fill="url(#a)" stroke="#333" stroke-width=".5" d="M0 0c40-10 80-12 120-8s80 8 100 13v10c-20-5-60-9-100-5S40 12 0 10Z" transform="translate(40 60)"/><text x="225" y="5" fill="#333" font-family="Arial, sans-serif" font-size="11.25" font-size-adjust=".5" text-rendering="optimizeLegibility" transform="translate(40 60)">Skin</text><path stroke="#333" stroke-width=".5" d="M260 65h4"/><path fill="url(#b)" stroke="#333" stroke-width=".5" d="M0 10c40 2 80 4 120 0s80 0 100 5v10c-20-5-60-9-100-5S40 22 0 20Z" transform="translate(40 60)"/><text x="225" y="20" fill="#333" font-family="Arial, sans-serif" font-size="11.25" font-size-adjust=".5" text-rendering="optimizeLegibility" transform="translate(40 60)">Orbicularis Oculi</text><path stroke="#333" stroke-width=".5" d="M260 80h4"/><path fill="#d9d9d9" stroke="#333" stroke-width=".5" d="M40 80c40 2 80 4 120 0s80 0 100 5v5c-20-5-60-9-100-5s-80 2-120 0Z"/><text x="225" y="27" fill="#333" font-family="Arial, sans-serif" font-size="11.25" font-size-adjust=".5" text-rendering="optimizeLegibility" transform="translate(40 60)">Orbital Septum</text><path stroke="#333" stroke-width=".5" d="M260 87h4"/><path fill="#bfbfbf" stroke="#333" stroke-width=".5" d="M60 85c40 2 80 4 120 0s60 0 80 5v5c-20-5-40-9-80-5s-80 2-120 0Z"/><text x="225" y="32" fill="#333" font-family="Arial, sans-serif" font-size="11.25" font-size-adjust=".5" text-rendering="optimizeLegibility" transform="translate(40 60)">Levator Aponeurosis</text><path stroke="#333" stroke-width=".5" d="M260 92h4"/><path fill="url(#c)" stroke="#333" stroke-width=".5" d="M20 30c40 2 80 4 120 0s60 0 80 5v15c-20-5-40-9-80-5s-80 2-120 0Z" transform="translate(40 60)"/><text x="225" y="40" fill="#333" font-family="Arial, sans-serif" font-size="11.25" font-size-adjust=".5" text-rendering="optimizeLegibility" transform="translate(40 60)">Tarsal Plate</text><path stroke="#333" stroke-width=".5" d="M260 100h4"/><path stroke="#ffd966" d="M70 92v11m15-10v11m15-10v11m15-12v11m15-12v11m15-11v11m15-10v11m15-10v11m15-12v11m15-12v11m15-12v11m15-10v11m15-10v11"/><text x="225" y="45" fill="#333" font-family="Arial, sans-serif" font-size="11.25" font-size-adjust=".5" text-rendering="optimizeLegibility" transform="translate(40 60)">Meibomian Glands</text><path stroke="#333" stroke-width=".5" d="m250 104 14 1"/><path fill="url(#d)" stroke="#333" stroke-width=".5" d="M20 45c40 2 80 4 120 0s60 0 80 5v5c-20-5-40-9-80-5s-80 2-120 0Z" transform="translate(40 60)"/><text x="225" y="52" fill="#333" font-family="Arial, sans-serif" font-size="11.25" font-size-adjust=".5" text-rendering="optimizeLegibility" transform="translate(40 60)">Conjunctiva</text><path stroke="#333" stroke-width=".5" d="M260 112h4"/><path stroke="#333" stroke-width=".7" d="m60 110-5 8m15-8-4 9m14-9-3 10m13-10-2 10m12-10-2 11m12-11-1 11m11-11v10m10-10 1 11m9-11 2 11m8-11 3 10m7-10 4 9m6-9 5 8m5-8 5 7m5-7 4 6m6-6 3 5"/><text x="225" y="58" fill="#333" font-family="Arial, sans-serif" font-size="11.25" font-size-adjust=".5" text-rendering="optimizeLegibility" transform="translate(40 60)">Eyelashes</text><path stroke="#333" stroke-width=".5" d="m200 115 64 3"/><path fill="url(#a)" stroke="#333" stroke-width=".3" d="M0 0h10v10H0z" transform="translate(40 150)"/><path fill="url(#b)" stroke="#333" stroke-width=".3" d="M0 15h10v10H0z" transform="translate(40 150)"/><path fill="url(#c)" stroke="#333" stroke-width=".3" d="M0 30h10v10H0z" transform="translate(40 150)"/><path fill="url(#d)" stroke="#333" stroke-width=".3" d="M125 0h10v10h-10z" transform="translate(40 150)"/><path fill="url(#e)" stroke="#333" stroke-width=".3" d="M125 15h10v10h-10z" transform="translate(40 150)"/><text x="15" y="9" fill="#333" font-family="Arial, sans-serif" font-size="11.25" font-size-adjust=".5" text-rendering="optimizeLegibility" transform="translate(40 150)">Skin and subcutaneous tissue</text><text x="15" y="24" fill="#333" font-family="Arial, sans-serif" font-size="11.25" font-size-adjust=".5" text-rendering="optimizeLegibility" transform="translate(40 150)">Orbicularis oculi muscle</text><text x="15" y="39" fill="#333" font-family="Arial, sans-serif" font-size="11.25" font-size-adjust=".5" text-rendering="optimizeLegibility" transform="translate(40 150)">Tarsal plate</text><text x="140" y="9" fill="#333" font-family="Arial, sans-serif" font-size="11.25" font-size-adjust=".5" text-rendering="optimizeLegibility" transform="translate(40 150)">Conjunctiva</text><text x="140" y="24" fill="#333" font-family="Arial, sans-serif" font-size="11.25" font-size-adjust=".5" text-rendering="optimizeLegibility" transform="translate(40 150)">Meibomian glands</text><text x="150" y="195" fill="#555" font-family="Arial, sans-serif" font-size="10" font-size-adjust=".5" text-anchor="middle" text-rendering="optimizeLegibility">© Optician Trainer</text></svg>