<svg xmlns="http://www.w3.org/2000/svg" width="400" height="300" aria-hidden="false" viewBox="0 0 400 300"><defs><linearGradient id="a" x1="0%" x2="100%" y1="0%" y2="0%"><stop offset="0%" stop-color="#e6f7ff" stop-opacity=".8"/><stop offset="50%" stop-color="#99d6ff" stop-opacity=".9"/><stop offset="100%" stop-color="#e6f7ff" stop-opacity=".8"/></linearGradient><linearGradient id="b" x1="0%" x2="100%" y1="0%" y2="0%"><stop offset="0%" stop-color="#e6f7ff" stop-opacity=".8"/><stop offset="50%" stop-color="#e6f7ff" stop-opacity=".5"/><stop offset="100%" stop-color="#e6f7ff" stop-opacity=".8"/></linearGradient></defs><path fill="#f8f8f8" d="M0 0h400v300H0z"/><text x="200" y="30" fill="#333" font-family="Arial" font-size="20" font-size-adjust=".5" font-weight="bold" text-anchor="middle" text-rendering="optimizeLegibility">Lens Diagram</text><g transform="translate(110 110)"><path fill="url(#a)" stroke="#666" d="M-30 60h60C20 40 20-40 30-60h-60c10 20 10 100 0 120Z"/><path stroke="#333" stroke-dasharray="2,2" d="M-100 0h200"/><path stroke="#f33" stroke-width="1.5" d="M-90-40 0 0m-90 0H0m-90 40L0 0m0 0 80-5M0 0h80M0 0l80 5"/><circle cx="60" r="3" fill="#f33"/><text y="80" fill="#333" font-family="Arial" font-size="14" font-size-adjust=".5" font-weight="bold" text-anchor="middle" text-rendering="optimizeLegibility">Convex (Positive) Lens</text><text y="95" fill="#333" font-family="Arial" font-size="12" font-size-adjust=".5" text-anchor="middle" text-rendering="optimizeLegibility">Converges Light</text><text x="60" y="-10" fill="#333" font-family="Arial" font-size="12" font-size-adjust=".5" text-anchor="middle" text-rendering="optimizeLegibility">F</text></g><g transform="translate(290 110)"><path fill="url(#b)" stroke="#666" d="M-30 60h60C20 40 20-40 30-60h-60c10 20 10 100 0 120Z"/><path stroke="#333" stroke-dasharray="2,2" d="M-100 0h200"/><path stroke="#36f" stroke-width="1.5" d="M-90-40 0-30M-90 0H0m-90 40L0 30m0-60 90-30M0 0h90M0 30l90 30"/><circle cx="-60" r="3" fill="#36f"/><path stroke="#36f" stroke-dasharray="4,2" d="m0-30-80 20M0 30l-80-20"/><text y="80" fill="#333" font-family="Arial" font-size="14" font-size-adjust=".5" font-weight="bold" text-anchor="middle" text-rendering="optimizeLegibility">Concave (Negative) Lens</text><text y="95" fill="#333" font-family="Arial" font-size="12" font-size-adjust=".5" text-anchor="middle" text-rendering="optimizeLegibility">Diverges Light</text><text x="-60" y="-10" fill="#333" font-family="Arial" font-size="12" font-size-adjust=".5" text-anchor="middle" text-rendering="optimizeLegibility">F</text></g><g transform="translate(200 230)"><text fill="#333" font-family="Arial" font-size="14" font-size-adjust=".5" font-weight="bold" text-anchor="middle" text-rendering="optimizeLegibility">Key Features</text><path stroke="#f33" stroke-width="1.5" d="M-180 20h20"/><text x="-100" y="25" fill="#333" font-family="Arial" font-size="12" font-size-adjust=".5" text-rendering="optimizeLegibility">Converging Light Rays</text><path stroke="#36f" stroke-width="1.5" d="M-180 40h20"/><text x="-100" y="45" fill="#333" font-family="Arial" font-size="12" font-size-adjust=".5" text-rendering="optimizeLegibility">Diverging Light Rays</text><path stroke="#333" stroke-dasharray="2,2" d="M30 20h20"/><text x="60" y="25" fill="#333" font-family="Arial" font-size="12" font-size-adjust=".5" text-rendering="optimizeLegibility">Optical Axis</text><circle cx="40" cy="40" r="3" fill="#333"/><text x="60" y="45" fill="#333" font-family="Arial" font-size="12" font-size-adjust=".5" text-rendering="optimizeLegibility">Focal Point (F)</text></g></svg>