<svg xmlns="http://www.w3.org/2000/svg" width="500" height="400" aria-hidden="false" class="mobile-optimized" viewBox="0 0 500 400"><defs><linearGradient id="a" x1="0%" x2="100%" y1="0%" y2="0%"><stop offset="0%" stop-color="#d4f0fc" stop-opacity=".8"/><stop offset="50%" stop-color="#a8e0fa" stop-opacity=".9"/><stop offset="100%" stop-color="#d4f0fc" stop-opacity=".8"/></linearGradient><filter id="b" width="140%" height="140%" x="-20%" y="-20%"><feDropShadow dx="2" dy="2" flood-opacity=".2" stdDeviation="2"/></filter></defs><path fill="#f8f8f8" d="M0 0h500v400H0z"/><text x="250" y="35" fill="#333" font-family="Arial" font-size="27.5" font-size-adjust=".5" font-weight="bold" text-anchor="middle" text-rendering="optimizeLegibility">Comparison of Lens Shapes</text><text y="-70" fill="#333" font-family="Arial" font-size="22.5" font-size-adjust=".5" font-weight="bold" text-anchor="middle" text-rendering="optimizeLegibility" transform="translate(150 140)">Positive (Convex) Lenses</text><path fill="url(#a)" stroke="#666" d="M-25 50h50C15 35 15-35 25-50h-50c10 15 10 85 0 100Z" filter="url(#b)" transform="translate(60 140)"/><text y="75" fill="#333" font-family="Arial" font-size="15" font-size-adjust=".5" text-anchor="middle" text-rendering="optimizeLegibility" transform="translate(60 140)">Biconvex</text><path fill="url(#a)" stroke="#666" d="M-25 50h50C15 35 15-35 25-50h-50Z" filter="url(#b)" transform="translate(150 140)"/><text y="75" fill="#333" font-family="Arial" font-size="15" font-size-adjust=".5" text-anchor="middle" text-rendering="optimizeLegibility" transform="translate(150 140)">Plano-Convex</text><path fill="url(#a)" stroke="#666" d="M-25 50h50C15 35 15-35 25-50h-50c10 15 10 85 0 100Z" filter="url(#b)" transform="translate(240 140)"/><text y="75" fill="#333" font-family="Arial" font-size="15" font-size-adjust=".5" text-anchor="middle" text-rendering="optimizeLegibility" transform="translate(240 140)">Meniscus</text><text y="90" fill="#333" font-family="Arial" font-size="15" font-size-adjust=".5" text-anchor="middle" text-rendering="optimizeLegibility" transform="translate(240 140)">(Convex)</text><text y="-70" fill="#333" font-family="Arial" font-size="22.5" font-size-adjust=".5" font-weight="bold" text-anchor="middle" text-rendering="optimizeLegibility" transform="translate(350 140)">Negative (Concave) Lenses</text><path fill="url(#a)" stroke="#666" d="M-25 50h50C15 35 15-35 25-50h-50c10 15 10 85 0 100Z" filter="url(#b)" transform="translate(260 140)"/><text y="75" fill="#333" font-family="Arial" font-size="15" font-size-adjust=".5" text-anchor="middle" text-rendering="optimizeLegibility" transform="translate(260 140)">Biconcave</text><path fill="url(#a)" stroke="#666" d="M-25 50h50V-50h-50c10 15 10 85 0 100Z" filter="url(#b)" transform="translate(350 140)"/><text y="75" fill="#333" font-family="Arial" font-size="15" font-size-adjust=".5" text-anchor="middle" text-rendering="optimizeLegibility" transform="translate(350 140)">Plano-Concave</text><path fill="url(#a)" stroke="#666" d="M-25 50h50C15 35 15-35 25-50h-50c-10 15-10 85 0 100Z" filter="url(#b)" transform="translate(440 140)"/><text y="75" fill="#333" font-family="Arial" font-size="15" font-size-adjust=".5" text-anchor="middle" text-rendering="optimizeLegibility" transform="translate(440 140)">Meniscus</text><text y="90" fill="#333" font-family="Arial" font-size="15" font-size-adjust=".5" text-anchor="middle" text-rendering="optimizeLegibility" transform="translate(440 140)">(Concave)</text><text fill="#333" font-family="Arial" font-size="20" font-size-adjust=".5" font-weight="bold" text-anchor="middle" text-rendering="optimizeLegibility" transform="translate(140 250)">Optical Properties</text><g transform="translate(140 280)"><rect width="160" height="30" x="-80" y="-15" fill="#e6f7ff" stroke="#333" rx="5"/><text y="5" fill="#333" font-family="Arial" font-size="17.5" font-size-adjust=".5" text-anchor="middle" text-rendering="optimizeLegibility">Positive Power (+)</text></g><text y="55" fill="#333" font-family="Arial" font-size="15" font-size-adjust=".5" text-anchor="middle" text-rendering="optimizeLegibility" transform="translate(140 250)">Converging Light</text><text y="75" fill="#333" font-family="Arial" font-size="15" font-size-adjust=".5" text-anchor="middle" text-rendering="optimizeLegibility" transform="translate(140 250)">Used for Hyperopia/Farsightedness</text><text fill="#333" font-family="Arial" font-size="20" font-size-adjust=".5" font-weight="bold" text-anchor="middle" text-rendering="optimizeLegibility" transform="translate(360 250)">Optical Properties</text><g transform="translate(360 280)"><rect width="160" height="30" x="-80" y="-15" fill="#ffeae6" stroke="#333" rx="5"/><text y="5" fill="#333" font-family="Arial" font-size="17.5" font-size-adjust=".5" text-anchor="middle" text-rendering="optimizeLegibility">Negative Power (-)</text></g><text y="55" fill="#333" font-family="Arial" font-size="15" font-size-adjust=".5" text-anchor="middle" text-rendering="optimizeLegibility" transform="translate(360 250)">Diverging Light</text><text y="75" fill="#333" font-family="Arial" font-size="15" font-size-adjust=".5" text-anchor="middle" text-rendering="optimizeLegibility" transform="translate(360 250)">Used for Myopia/Nearsightedness</text><g transform="translate(250 340)"><rect width="400" height="60" x="-200" y="-20" fill="#f0f0f0" stroke="#ccc" rx="10"/><text y="-5" fill="#333" font-family="Arial" font-size="17.5" font-size-adjust=".5" font-weight="bold" text-anchor="middle" text-rendering="optimizeLegibility">Note:</text><text y="15" fill="#333" font-family="Arial" font-size="15" font-size-adjust=".5" text-anchor="middle" text-rendering="optimizeLegibility">
      Lens shape is designed to correct specific vision issues.
    </text><text y="30" fill="#333" font-family="Arial" font-size="15" font-size-adjust=".5" text-anchor="middle" text-rendering="optimizeLegibility">
      The curvature of the lens surfaces determines its optical properties.
    </text></g></svg>