<svg xmlns="http://www.w3.org/2000/svg" width="800" height="400" aria-hidden="false" viewBox="0 0 800 400"><path fill="#f9f9f9" d="M0 0h800v400H0z"/><text x="400" y="35" font-family="Arial" font-size="24" font-size-adjust=".5" font-weight="bold" text-anchor="middle" text-rendering="optimizeLegibility">Myopia (Nearsightedness)</text><text x="200" y="70" fill="#333" font-family="Arial" font-size="18" font-size-adjust=".5" font-weight="bold" text-anchor="middle" text-rendering="optimizeLegibility">Normal Eye</text><ellipse cx="200" cy="140" fill="#fff" stroke="#333" stroke-width="2" rx="120" ry="70"/><circle cx="120" cy="140" r="40" fill="#e6f2ff" stroke="#333" stroke-width="2"/><circle cx="120" cy="140" r="15" fill="#333"/><ellipse cx="120" cy="140" fill="none" stroke="#666" stroke-width="1.5" rx="10" ry="30"/><path stroke="#f90" stroke-width="2" d="m20 110 100 30M20 170l100-30"/><path stroke="#06c" stroke-dasharray="5,3" stroke-width="2" d="M120 140h160"/><circle cx="280" cy="140" r="5" fill="#06c"/><text x="280" y="125" fill="#06c" font-family="Arial" font-size="12" font-size-adjust=".5" text-anchor="middle" text-rendering="optimizeLegibility">Retina</text><text x="600" y="70" fill="#333" font-family="Arial" font-size="18" font-size-adjust=".5" font-weight="bold" text-anchor="middle" text-rendering="optimizeLegibility">Myopic Eye</text><ellipse cx="600" cy="140" fill="#fff" stroke="#333" stroke-width="2" rx="140" ry="70"/><circle cx="520" cy="140" r="40" fill="#e6f2ff" stroke="#333" stroke-width="2"/><circle cx="520" cy="140" r="15" fill="#333"/><ellipse cx="520" cy="140" fill="none" stroke="#666" stroke-width="1.5" rx="10" ry="30"/><path stroke="#f90" stroke-width="2" d="m420 110 100 30m-100 30 100-30"/><path stroke="#06c" stroke-dasharray="5,3" stroke-width="2" d="M520 140h130"/><circle cx="580" cy="140" r="5" fill="#c00"/><text x="580" y="125" fill="#c00" font-family="Arial" font-size="12" font-size-adjust=".5" text-anchor="middle" text-rendering="optimizeLegibility">Focus Point</text><text x="650" y="125" fill="#06c" font-family="Arial" font-size="12" font-size-adjust=".5" text-anchor="middle" text-rendering="optimizeLegibility">Retina</text><path stroke="#ccc" stroke-dasharray="5,5" d="M400 70v130"/><text x="400" y="240" fill="#333" font-family="Arial" font-size="18" font-size-adjust=".5" font-weight="bold" text-anchor="middle" text-rendering="optimizeLegibility">Myopia Corrected with Concave Lens</text><ellipse cx="600" cy="310" fill="#fff" stroke="#333" stroke-width="2" rx="140" ry="70"/><circle cx="520" cy="310" r="40" fill="#e6f2ff" stroke="#333" stroke-width="2"/><circle cx="520" cy="310" r="15" fill="#333"/><ellipse cx="520" cy="310" fill="none" stroke="#666" stroke-width="1.5" rx="10" ry="30"/><ellipse cx="450" cy="310" fill="none" stroke="#093" stroke-width="2" rx="5" ry="35"/><path fill="none" stroke="#093" stroke-width="2" d="M445 275q5 35 0 70m10-70q-5 35 0 70"/><text x="450" y="260" fill="#093" font-family="Arial" font-size="12" font-size-adjust=".5" text-anchor="middle" text-rendering="optimizeLegibility">Concave Lens</text><path stroke="#f90" stroke-width="2" d="m380 280 70 15m-70 45 70-15m0-30 70 15m-70 15 70-15"/><path stroke="#06c" stroke-dasharray="5,3" stroke-width="2" d="M520 310h130"/><circle cx="650" cy="310" r="5" fill="#06c"/><text x="650" y="295" fill="#06c" font-family="Arial" font-size="12" font-size-adjust=".5" text-anchor="middle" text-rendering="optimizeLegibility">Retina (Focus)</text><text x="200" y="195" fill="#333" font-family="Arial" font-size="14" font-size-adjust=".5" text-anchor="middle" text-rendering="optimizeLegibility">Light focuses on the retina</text><text x="600" y="195" fill="#c00" font-family="Arial" font-size="14" font-size-adjust=".5" text-anchor="middle" text-rendering="optimizeLegibility">Light focuses in front of the retina</text><text x="600" y="365" fill="#093" font-family="Arial" font-size="14" font-size-adjust=".5" text-anchor="middle" text-rendering="optimizeLegibility">Concave lens diverges light rays</text><text x="600" y="385" fill="#093" font-family="Arial" font-size="14" font-size-adjust=".5" text-anchor="middle" text-rendering="optimizeLegibility">to focus properly on the retina</text></svg>