<svg xmlns="http://www.w3.org/2000/svg" width="600" height="400" aria-hidden="false" viewBox="0 0 600 400"><path fill="#fff" d="M0 0h600v400H0z"/><text x="300" y="40" fill="#333" font-family="Arial" font-size="20" font-size-adjust=".5" font-weight="bold" text-anchor="middle" text-rendering="optimizeLegibility">Presbyopia: Age-related loss of near focusing ability</text><g transform="translate(0 60)"><ellipse cx="300" cy="100" fill="#fff" stroke="#333" stroke-width="2" rx="150" ry="90"/><path fill="#E6F7FF" stroke="#333" stroke-width="2" d="M150 100q-20-50 0-90 20 40 0 90"/><ellipse cx="200" cy="100" fill="#E6F7FF" stroke="#333" stroke-width="2" rx="30" ry="45"/><path fill="none" stroke="#333" stroke-width="2" d="M450 30q20 70 0 140"/><path stroke="gold" stroke-width="2" d="m100 50 100 50m-100 0h100m-100 50 100-50m0 0 250-20m-250 20h250m-250 0 250 20"/><text x="300" y="180" fill="#333" font-family="Arial" font-size="16" font-size-adjust=".5" text-anchor="middle" text-rendering="optimizeLegibility">Young Eye: Flexible lens can focus near objects on retina</text><text x="200" y="50" fill="#333" font-family="Arial" font-size="14" font-size-adjust=".5" text-anchor="middle" text-rendering="optimizeLegibility">Flexible lens</text></g><g transform="translate(0 250)"><ellipse cx="300" cy="100" fill="#fff" stroke="#333" stroke-width="2" rx="150" ry="90"/><path fill="#E6F7FF" stroke="#333" stroke-width="2" d="M150 100q-20-50 0-90 20 40 0 90"/><ellipse cx="200" cy="100" fill="#E6F7FF" stroke="#333" stroke-width="2" rx="30" ry="35"/><path fill="none" stroke="#333" stroke-width="2" d="M450 30q20 70 0 140"/><path stroke="gold" stroke-width="2" d="m100 50 100 50m-100 0h100m-100 50 100-50m0 0 250-30m-250 30h250m-250 0 250 30"/><path stroke="gold" stroke-dasharray="5,3" stroke-width="2" d="m450 70 70 15m-70 15h70m-70 30 70-15"/><circle cx="520" cy="100" r="5" fill="red"/><text x="300" y="180" fill="#333" font-family="Arial" font-size="16" font-size-adjust=".5" text-anchor="middle" text-rendering="optimizeLegibility">Aging Eye: Hardened lens cannot focus near objects on retina</text><text x="200" y="50" fill="#333" font-family="Arial" font-size="14" font-size-adjust=".5" text-anchor="middle" text-rendering="optimizeLegibility">Hardened lens</text><text x="520" y="85" fill="red" font-family="Arial" font-size="14" font-size-adjust=".5" text-anchor="middle" text-rendering="optimizeLegibility">Focal point</text></g></svg>