<svg xmlns="http://www.w3.org/2000/svg" width="800" height="800" aria-hidden="false" viewBox="0 0 800 800"><path fill="#f8f9fa" d="M0 0h800v800H0z"/><text x="400" y="50" font-family="Arial, sans-serif" font-size="24" font-size-adjust=".5" font-weight="bold" text-anchor="middle" text-rendering="optimizeLegibility">Prism Directions</text><path fill="#a7c7e7" fill-opacity=".6" stroke="#2c3e50" stroke-width="3" d="M250 300h100l-50-100Z"/><text x="100" y="180" font-family="Arial, sans-serif" font-size="16" font-size-adjust=".5" font-weight="bold" text-anchor="middle" text-rendering="optimizeLegibility" transform="translate(200 150)">Base-Up</text><path stroke="#ff6b6b" stroke-width="3" d="M300 170v30"/><path stroke="#ff6b6b" stroke-dasharray="5,5" stroke-width="3" d="M300 200v100"/><path stroke="#ff6b6b" stroke-width="3" d="M300 300v70"/><path fill="#ff6b6b" d="m300 370-5-10h10z"/><path stroke="#ff8c00" stroke-width="2" d="M250 300h100"/><text x="100" y="200" font-family="Arial, sans-serif" font-size="14" font-size-adjust=".5" text-anchor="middle" text-rendering="optimizeLegibility" transform="translate(200 150)">Base</text><text x="100" y="230" font-family="Arial, sans-serif" font-size="12" font-size-adjust=".5" text-anchor="middle" text-rendering="optimizeLegibility" transform="translate(200 150)">Shifts image downward</text><path fill="#a7c7e7" fill-opacity=".6" stroke="#2c3e50" stroke-width="3" d="M550 200h100l-50 100Z"/><text x="100" y="180" font-family="Arial, sans-serif" font-size="16" font-size-adjust=".5" font-weight="bold" text-anchor="middle" text-rendering="optimizeLegibility" transform="translate(500 150)">Base-Down</text><path stroke="#ff6b6b" stroke-width="3" d="M600 370v-70"/><path stroke="#ff6b6b" stroke-dasharray="5,5" stroke-width="3" d="M600 300V200"/><path stroke="#ff6b6b" stroke-width="3" d="M600 200v-30"/><path fill="#ff6b6b" d="m600 170-5 10h10z"/><path stroke="#ff8c00" stroke-width="2" d="M550 200h100"/><text x="100" y="40" font-family="Arial, sans-serif" font-size="14" font-size-adjust=".5" text-anchor="middle" text-rendering="optimizeLegibility" transform="translate(500 150)">Base</text><text x="100" y="230" font-family="Arial, sans-serif" font-size="12" font-size-adjust=".5" text-anchor="middle" text-rendering="optimizeLegibility" transform="translate(500 150)">Shifts image upward</text><g transform="translate(200 450)"><path fill="#a7c7e7" fill-opacity=".6" stroke="#2c3e50" stroke-width="3" d="M50 50v100l100-50Z"/><text x="100" y="180" font-family="Arial, sans-serif" font-size="16" font-size-adjust=".5" font-weight="bold" text-anchor="middle" text-rendering="optimizeLegibility">Base-In (Right Eye)</text><path stroke="#ff6b6b" stroke-width="3" d="M20 100h30"/><path stroke="#ff6b6b" stroke-dasharray="5,5" stroke-width="3" d="M50 100h100"/><path stroke="#ff6b6b" stroke-width="3" d="M150 100h70"/><path fill="#ff6b6b" d="m220 100-10-5v10z"/><path stroke="#ff8c00" stroke-width="2" d="M50 50v100"/><text x="35" y="100" font-family="Arial, sans-serif" font-size="14" font-size-adjust=".5" text-anchor="middle" text-rendering="optimizeLegibility">Base</text><text x="100" y="200" font-family="Arial, sans-serif" font-size="12" font-size-adjust=".5" text-anchor="middle" text-rendering="optimizeLegibility">Shifts image outward (temporally)</text><circle cy="100" r="20" fill="#fff" stroke="#2c3e50" stroke-width="2"/><circle cy="100" r="8" fill="#2c3e50"/><text y="140" font-family="Arial, sans-serif" font-size="14" font-size-adjust=".5" text-anchor="middle" text-rendering="optimizeLegibility">Right Eye</text></g><g transform="translate(500 450)"><path fill="#a7c7e7" fill-opacity=".6" stroke="#2c3e50" stroke-width="3" d="M150 50v100L50 100Z"/><text x="100" y="180" font-family="Arial, sans-serif" font-size="16" font-size-adjust=".5" font-weight="bold" text-anchor="middle" text-rendering="optimizeLegibility">Base-Out (Left Eye)</text><path stroke="#ff6b6b" stroke-width="3" d="M220 100h-70"/><path stroke="#ff6b6b" stroke-dasharray="5,5" stroke-width="3" d="M150 100H50"/><path stroke="#ff6b6b" stroke-width="3" d="M50 100H20"/><path fill="#ff6b6b" d="m20 100 10-5v10z"/><path stroke="#ff8c00" stroke-width="2" d="M150 50v100"/><text x="165" y="100" font-family="Arial, sans-serif" font-size="14" font-size-adjust=".5" text-anchor="middle" text-rendering="optimizeLegibility">Base</text><text x="100" y="200" font-family="Arial, sans-serif" font-size="12" font-size-adjust=".5" text-anchor="middle" text-rendering="optimizeLegibility">Shifts image inward (nasally)</text><circle cx="200" cy="100" r="20" fill="#fff" stroke="#2c3e50" stroke-width="2"/><circle cx="200" cy="100" r="8" fill="#2c3e50"/><text x="200" y="140" font-family="Arial, sans-serif" font-size="14" font-size-adjust=".5" text-anchor="middle" text-rendering="optimizeLegibility">Left Eye</text></g><g transform="translate(250 650)"><rect width="300" height="100" fill="#f8f9fa" stroke="#2c3e50" rx="5"/><text x="150" y="20" font-family="Arial, sans-serif" font-size="16" font-size-adjust=".5" font-weight="bold" text-anchor="middle" text-rendering="optimizeLegibility">Legend</text><path stroke="#ff6b6b" stroke-width="3" d="M20 40h40"/><text x="120" y="45" font-family="Arial, sans-serif" font-size="14" font-size-adjust=".5" text-rendering="optimizeLegibility">Light Path</text><path stroke="#ff8c00" stroke-width="2" d="M20 70h40"/><text x="120" y="75" font-family="Arial, sans-serif" font-size="14" font-size-adjust=".5" text-rendering="optimizeLegibility">Prism Base</text></g><text x="400" y="780" font-family="Arial, sans-serif" font-size="16" font-size-adjust=".5" text-anchor="middle" text-rendering="optimizeLegibility">
    The base of a prism is opposite to the direction of the light deviation
  </text></svg>