<svg xmlns="http://www.w3.org/2000/svg" width="700" height="500" aria-hidden="false" viewBox="0 0 700 500"><path fill="#f5f5f5" d="M0 0h700v500H0z"/><text x="350" y="40" font-family="Arial" font-size="24" font-size-adjust=".5" font-weight="bold" text-anchor="middle" text-rendering="optimizeLegibility">Progressive Lens Design</text><path fill="#fff" stroke="#333" stroke-width="2" d="M150 100q25-10 50-10h300q25 0 50 10 50 20 100 100 25 50 0 100-50 80-100 100-25 10-50 10H200q-25 0-50-10-50-20-100-100-25-50 0-100 50-80 100-100Z"/><path fill="#e6f2ff" fill-opacity=".7" stroke="#333" d="M150 100q25-10 50-10h300q25 0 50 10 50 20 100 100 10 20 10 30H40q0-10 10-30 50-80 100-100Z"/><text x="350" y="160" font-family="Arial" font-size="18" font-size-adjust=".5" font-weight="bold" text-anchor="middle" text-rendering="optimizeLegibility">Distance Vision</text><path fill="#ffe6cc" fill-opacity=".7" stroke="#333" d="M40 230h620q5 30 0 40H40q-5-10 0-40Z"/><text x="350" y="255" font-family="Arial" font-size="16" font-size-adjust=".5" font-weight="bold" text-anchor="middle" text-rendering="optimizeLegibility">Intermediate</text><path fill="#e6ffe6" fill-opacity=".7" stroke="#333" d="M40 270h620q5 10-10 30-50 80-100 100-25 10-50 10H200q-25 0-50-10-50-20-100-100-15-20-10-30Z"/><text x="350" y="340" font-family="Arial" font-size="18" font-size-adjust=".5" font-weight="bold" text-anchor="middle" text-rendering="optimizeLegibility">Reading Zone</text><path fill="#fcf" fill-opacity=".8" stroke="#333" d="M330 230h40l10 40h-60Z"/><text x="350" y="190" font-family="Arial" font-size="14" font-size-adjust=".5" text-anchor="middle" text-rendering="optimizeLegibility">Corridor</text><path stroke="#333" stroke-dasharray="3,3" d="M350 195v55"/><path fill="#fcc" fill-opacity=".5" stroke="#333" d="M150 100q-50 50-75 100t0 100 75 100h-50q-25-25-50-100-25-50 0-100 25-75 50-100Zm400 0q50 50 75 100t0 100-75 100h50q25-25 50-100 25-50 0-100-25-75-50-100Z"/><path stroke="#06c" stroke-dasharray="5,3" stroke-width="1.5" d="m100 160-60-40"/><text x="40" y="110" fill="#06c" font-family="Arial" font-size="14" font-size-adjust=".5" font-weight="bold" text-rendering="optimizeLegibility">Distance Zone</text><text x="40" y="130" fill="#06c" font-family="Arial" font-size="12" font-size-adjust=".5" text-rendering="optimizeLegibility">For far vision</text><path stroke="#f90" stroke-dasharray="5,3" stroke-width="1.5" d="M80 250H20"/><text x="20" y="240" fill="#f90" font-family="Arial" font-size="14" font-size-adjust=".5" font-weight="bold" text-anchor="end" text-rendering="optimizeLegibility">Intermediate</text><text x="20" y="260" fill="#f90" font-family="Arial" font-size="12" font-size-adjust=".5" text-anchor="end" text-rendering="optimizeLegibility">Computer distance</text><path stroke="#093" stroke-dasharray="5,3" stroke-width="1.5" d="m100 340-60 40"/><text x="40" y="390" fill="#093" font-family="Arial" font-size="14" font-size-adjust=".5" font-weight="bold" text-rendering="optimizeLegibility">Reading Zone</text><text x="40" y="410" fill="#093" font-family="Arial" font-size="12" font-size-adjust=".5" text-rendering="optimizeLegibility">Near vision</text><path stroke="#c00" stroke-dasharray="5,3" stroke-width="1.5" d="m120 300-60 30"/><text x="60" y="340" fill="#c00" font-family="Arial" font-size="14" font-size-adjust=".5" font-weight="bold" text-rendering="optimizeLegibility">Peripheral</text><text x="60" y="360" fill="#c00" font-family="Arial" font-size="12" font-size-adjust=".5" text-rendering="optimizeLegibility">Distortion</text><path stroke="#90c" stroke-dasharray="5,3" stroke-width="1.5" d="M420 250h80"/><text x="510" y="240" fill="#90c" font-family="Arial" font-size="14" font-size-adjust=".5" font-weight="bold" text-rendering="optimizeLegibility">Progression</text><text x="510" y="260" fill="#90c" font-family="Arial" font-size="12" font-size-adjust=".5" text-rendering="optimizeLegibility">Corridor</text><path stroke="#333" stroke-width="2" d="M345 180h10m-5-5v10"/><circle cx="350" cy="180" r="5" fill="none" stroke="#333"/><path stroke="#333" stroke-dasharray="5,3" stroke-width="1.5" d="m370 180 60-30"/><text x="440" y="140" fill="#333" font-family="Arial" font-size="14" font-size-adjust=".5" font-weight="bold" text-rendering="optimizeLegibility">Fitting Cross</text><text x="440" y="160" fill="#333" font-family="Arial" font-size="12" font-size-adjust=".5" text-rendering="optimizeLegibility">Pupil alignment point</text><rect width="200" height="150" x="450" y="300" fill="#fff" stroke="#333" rx="10" ry="10"/><text x="550" y="325" font-family="Arial" font-size="16" font-size-adjust=".5" font-weight="bold" text-anchor="middle" text-rendering="optimizeLegibility">Power Progression</text><path fill="#e6f2ff" stroke="#333" d="M470 340h20v20h-20z"/><text x="500" y="355" font-family="Arial" font-size="14" font-size-adjust=".5" text-rendering="optimizeLegibility">Distance Power</text><path fill="#ffe6cc" stroke="#333" d="M470 370h20v20h-20z"/><text x="500" y="385" font-family="Arial" font-size="14" font-size-adjust=".5" text-rendering="optimizeLegibility">Intermediate</text><path fill="#e6ffe6" stroke="#333" d="M470 400h20v20h-20z"/><text x="500" y="415" font-family="Arial" font-size="14" font-size-adjust=".5" text-rendering="optimizeLegibility">Reading (Add)</text><path fill="#fcc" stroke="#333" d="M470 430h20v20h-20z"/><text x="500" y="445" font-family="Arial" font-size="14" font-size-adjust=".5" text-rendering="optimizeLegibility">Distortion Zone</text></svg>