<svg xmlns="http://www.w3.org/2000/svg" width="800" height="600" aria-hidden="false" viewBox="0 0 800 600"><path fill="#f8f9fa" d="M0 0h800v600H0z"/><text x="400" y="50" font-family="Arial, sans-serif" font-size="24" font-size-adjust=".5" font-weight="bold" text-anchor="middle" text-rendering="optimizeLegibility">Pupilometer</text><g transform="translate(150 100)"><rect width="400" height="200" x="50" y="100" fill="#e0e0e0" stroke="#2c3e50" stroke-width="3" rx="20"/><rect width="280" height="60" x="110" y="80" fill="#d0d0d0" stroke="#2c3e50" stroke-width="2" rx="10"/><circle cx="170" cy="110" r="30" fill="#2c3e50" stroke="#000" stroke-width="2"/><circle cx="330" cy="110" r="30" fill="#2c3e50" stroke="#000" stroke-width="2"/><circle cx="170" cy="110" r="25" fill="#87CEEB" stroke="#2c3e50"/><circle cx="330" cy="110" r="25" fill="#87CEEB" stroke="#2c3e50"/><path stroke="red" d="M145 110h50m-25-25v50m135-25h50m-25-25v50"/><rect width="260" height="20" x="120" y="60" fill="#f5f5f5" stroke="#2c3e50" rx="5"/><path stroke="#2c3e50" d="M150 60v10m20-10v15m20-15v10m20-10v10m20-10v10m20-10v15m20-15v10m20-10v10m20-10v10m20-10v15m20-15v10"/><g fill="#2c3e50" font-family="Arial, sans-serif" font-size="10" font-size-adjust=".5" text-anchor="middle" text-rendering="optimizeLegibility"><text x="170" y="55" font-size-adjust="0.5" text-rendering="optimizeLegibility">50</text><text x="210" y="55" font-size-adjust="0.5" text-rendering="optimizeLegibility">58</text><text x="250" y="55" font-size-adjust="0.5" text-rendering="optimizeLegibility">66</text><text x="290" y="55" font-size-adjust="0.5" text-rendering="optimizeLegibility">74</text><text x="330" y="55" font-size-adjust="0.5" text-rendering="optimizeLegibility">82</text></g><path fill="red" d="m250 55-5 5h10z"/><rect width="150" height="50" x="175" y="150" stroke="#2c3e50" stroke-width="2" rx="5"/><rect width="140" height="40" x="180" y="155" fill="#4a6f8a" rx="3"/><text x="250" y="180" fill="#0f0" font-family="'Courier New', monospace" font-size="22" font-size-adjust=".5" font-weight="bold" text-anchor="middle" text-rendering="optimizeLegibility">64.5 mm</text><circle cx="140" cy="220" r="15" fill="#3498db" stroke="#2c3e50" stroke-width="2"/><text x="140" y="225" fill="#fff" font-family="Arial, sans-serif" font-size="14" font-size-adjust=".5" text-anchor="middle" text-rendering="optimizeLegibility">-</text><circle cx="180" cy="220" r="15" fill="#3498db" stroke="#2c3e50" stroke-width="2"/><text x="180" y="225" fill="#fff" font-family="Arial, sans-serif" font-size="14" font-size-adjust=".5" text-anchor="middle" text-rendering="optimizeLegibility">+</text><rect width="60" height="25" x="220" y="210" fill="#2ecc71" stroke="#2c3e50" stroke-width="2" rx="5"/><text x="250" y="227" fill="#fff" font-family="Arial, sans-serif" font-size="14" font-size-adjust=".5" text-anchor="middle" text-rendering="optimizeLegibility">SET</text><rect width="100" height="25" x="300" y="210" fill="#e74c3c" stroke="#2c3e50" stroke-width="2" rx="5"/><text x="350" y="227" fill="#fff" font-family="Arial, sans-serif" font-size="14" font-size-adjust=".5" text-anchor="middle" text-rendering="optimizeLegibility">MEASURE</text><circle cx="430" cy="130" r="12" fill="#555" stroke="#2c3e50" stroke-width="2"/><circle cx="430" cy="130" r="5" fill="none" stroke="#fff" stroke-width="2"/><path stroke="#fff" stroke-width="2" d="M430 116v8"/><circle cx="70" cy="200" r="20" fill="#888" stroke="#2c3e50" stroke-width="2"/><path stroke="#2c3e50" stroke-width="2" d="M70 190v20m-10-10h20"/><circle cx="70" cy="200" r="5" fill="#666" stroke="#2c3e50"/><text x="70" y="240" font-family="Arial, sans-serif" font-size="12" font-size-adjust=".5" text-anchor="middle" text-rendering="optimizeLegibility">Adjust IPD</text></g><g transform="translate(100 350)"><ellipse cx="300" cy="100" fill="#ffebc9" fill-opacity=".6" stroke="#2c3e50" stroke-dasharray="5,5" stroke-width="1.5" rx="100" ry="120"/><circle cx="260" cy="80" r="10" fill="#2c3e50" stroke="#000"/><circle cx="340" cy="80" r="10" fill="#2c3e50" stroke="#000"/><rect width="220" height="80" x="190" y="30" fill="#e0e0e0" fill-opacity=".8" stroke="#2c3e50" stroke-width="2" rx="10"/><circle cx="260" cy="70" r="20" fill="#2c3e50" stroke="#000" stroke-width="1.5"/><circle cx="340" cy="70" r="20" fill="#2c3e50" stroke="#000" stroke-width="1.5"/><path stroke="red" stroke-dasharray="5,5" stroke-width="2" d="M260 110h80"/><path stroke="red" stroke-width="2" d="M260 105v10m80-10v10"/><text x="300" y="130" fill="red" font-family="Arial, sans-serif" font-size="14" font-size-adjust=".5" text-anchor="middle" text-rendering="optimizeLegibility">PD = 64.5 mm</text></g><g transform="translate(550 350)"><rect width="200" height="200" fill="#f0f8ff" stroke="#2c3e50" rx="10"/><text x="100" y="30" font-family="Arial, sans-serif" font-size="16" font-size-adjust=".5" font-weight="bold" text-anchor="middle" text-rendering="optimizeLegibility">About Pupilometers</text><text x="10" y="60" font-family="Arial, sans-serif" font-size="12" font-size-adjust=".5" text-rendering="optimizeLegibility">• Digital device for measuring PD</text><text x="10" y="85" font-family="Arial, sans-serif" font-size="12" font-size-adjust=".5" text-rendering="optimizeLegibility">• Measures both binocular</text><text x="15" y="100" font-family="Arial, sans-serif" font-size="12" font-size-adjust=".5" text-rendering="optimizeLegibility">  and monocular PD</text><text x="10" y="125" font-family="Arial, sans-serif" font-size="12" font-size-adjust=".5" text-rendering="optimizeLegibility">• More accurate than manual</text><text x="15" y="140" font-family="Arial, sans-serif" font-size="12" font-size-adjust=".5" text-rendering="optimizeLegibility">  measurement methods</text><text x="10" y="165" font-family="Arial, sans-serif" font-size="12" font-size-adjust=".5" text-rendering="optimizeLegibility">• Adjustable for different</text><text x="15" y="180" font-family="Arial, sans-serif" font-size="12" font-size-adjust=".5" text-rendering="optimizeLegibility">  viewing distances</text></g></svg>