<svg xmlns="http://www.w3.org/2000/svg" width="800" height="500" aria-hidden="false" viewBox="0 0 800 500"><defs><linearGradient id="a" x1="0%" x2="100%" y1="0%" y2="0%"><stop offset="0%" stop-color="#fff"/><stop offset="100%" stop-color="#e0e0ff"/></linearGradient><linearGradient id="b" x1="0%" x2="100%" y1="0%" y2="0%"><stop offset="0%" stop-color="#d0e8ff" stop-opacity=".9"/><stop offset="100%" stop-color="#a0c4ff" stop-opacity=".9"/></linearGradient></defs><path fill="#f8f8f8" d="M0 0h800v500H0z"/><text x="400" y="40" fill="#333" font-family="Arial, sans-serif" font-size="24" font-size-adjust=".5" font-weight="bold" text-anchor="middle" text-rendering="optimizeLegibility">Summary of Refractive Errors</text><g transform="translate(200 150)"><text y="-60" fill="#333" font-family="Arial, sans-serif" font-size="18" font-size-adjust=".5" font-weight="bold" text-anchor="middle" text-rendering="optimizeLegibility">Normal Vision</text><ellipse fill="url(#a)" stroke="#333" stroke-width="2" rx="90" ry="80"/><path fill="none" stroke="#333" stroke-width="1.5" d="M-90 0q-20-40 0-70"/><ellipse cx="-45" fill="url(#b)" stroke="#333" stroke-width="1.5" rx="15" ry="30"/><path fill="none" stroke="#c00" stroke-dasharray="5,3" stroke-width="1.5" d="M90 0Q70 70 0 80-70 70-90 0"/><path fill="none" stroke="#fc0" stroke-width="2" d="m-150 40 60-20L85 0m-235 0H85m-235-40 60 20L85 0"/><circle cx="85" r="5" fill="#f55"/><text y="110" fill="#333" font-family="Arial, sans-serif" font-size="14" font-size-adjust=".5" text-anchor="middle" text-rendering="optimizeLegibility">Light focuses correctly on retina</text></g><g transform="translate(200 320)"><text y="-60" fill="#333" font-family="Arial, sans-serif" font-size="18" font-size-adjust=".5" font-weight="bold" text-anchor="middle" text-rendering="optimizeLegibility">Myopia (Nearsightedness)</text><ellipse fill="url(#a)" stroke="#333" stroke-width="2" rx="110" ry="80"/><path fill="none" stroke="#333" stroke-width="1.5" d="M-110 0q-20-40 0-70"/><ellipse cx="-55" fill="url(#b)" stroke="#333" stroke-width="1.5" rx="15" ry="30"/><path fill="none" stroke="#c00" stroke-dasharray="5,3" stroke-width="1.5" d="M110 0Q85 70 0 80-85 70-110 0"/><path fill="none" stroke="#fc0" stroke-width="2" d="m-170 40 60-20L60 0l50 10M-170 0h280m-280-40 60 20L60 0l50-10"/><circle cx="60" r="5" fill="#f55"/><text y="110" fill="#333" font-family="Arial, sans-serif" font-size="14" font-size-adjust=".5" text-anchor="middle" text-rendering="optimizeLegibility">Light focuses in front of retina</text></g><g transform="translate(600 150)"><text y="-60" fill="#333" font-family="Arial, sans-serif" font-size="18" font-size-adjust=".5" font-weight="bold" text-anchor="middle" text-rendering="optimizeLegibility">Hyperopia (Farsightedness)</text><ellipse fill="url(#a)" stroke="#333" stroke-width="2" rx="75" ry="80"/><path fill="none" stroke="#333" stroke-width="1.5" d="M-75 0q-20-40 0-70"/><ellipse cx="-40" fill="url(#b)" stroke="#333" stroke-width="1.5" rx="15" ry="30"/><path fill="none" stroke="#c00" stroke-dasharray="5,3" stroke-width="1.5" d="M75 0Q60 70 0 80-60 70-75 0"/><path fill="none" stroke="#fc0" stroke-width="2" d="m-150 40 75-20L75 10M-150 0H75m-225-40 75 20L75-10"/><circle cx="110" r="5" fill="#f55" stroke="#f55" stroke-dasharray="2,1"/><path stroke="#f55" stroke-dasharray="2,1" d="M75 0h70"/><text y="110" fill="#333" font-family="Arial, sans-serif" font-size="14" font-size-adjust=".5" text-anchor="middle" text-rendering="optimizeLegibility">Light focuses behind retina</text></g><g transform="translate(600 320)"><text y="-60" fill="#333" font-family="Arial, sans-serif" font-size="18" font-size-adjust=".5" font-weight="bold" text-anchor="middle" text-rendering="optimizeLegibility">Astigmatism</text><ellipse fill="url(#a)" stroke="#333" stroke-width="2" rx="90" ry="80"/><path fill="none" stroke="#333" stroke-width="1.5" d="M-90 0q-20-30 0-70 5-5 10 0"/><ellipse cx="-45" fill="url(#b)" stroke="#333" stroke-width="1.5" rx="15" ry="30"/><path fill="none" stroke="#c00" stroke-dasharray="5,3" stroke-width="1.5" d="M90 0Q70 70 0 80-70 70-90 0"/><path fill="none" stroke="#fc0" stroke-width="2" d="m-150 40 60-20L60 5l30 5M-150 0H90m-240-40 60 20L60-5l30-5"/><circle cx="60" cy="5" r="3" fill="#f55"/><circle cx="80" r="3" fill="#f55"/><circle cx="60" cy="-5" r="3" fill="#f55"/><text y="110" fill="#333" font-family="Arial, sans-serif" font-size="14" font-size-adjust=".5" text-anchor="middle" text-rendering="optimizeLegibility">Light focuses at multiple points</text></g><text x="400" y="470" fill="#555" font-family="Arial, sans-serif" font-size="14" font-size-adjust=".5" text-anchor="middle" text-rendering="optimizeLegibility">Fig: Comparison of different refractive error types</text></svg>