<svg xmlns="http://www.w3.org/2000/svg" width="300" height="200" aria-hidden="false" viewBox="0 0 300 200"><defs><linearGradient id="a" x1="0%" x2="100%" y1="0%" y2="100%"><stop offset="0%" stop-color="#e6f7ff" stop-opacity=".8"/><stop offset="100%" stop-color="#bfefff" stop-opacity=".6"/></linearGradient><linearGradient id="b" x1="0%" x2="100%" y1="0%" y2="100%"><stop offset="0%" stop-color="#a8d5ff" stop-opacity=".4"/><stop offset="100%" stop-color="#5cb3ff" stop-opacity=".2"/></linearGradient><linearGradient id="c" x1="0%" x2="100%" y1="0%" y2="100%"><stop offset="0%" stop-color="#90ee90" stop-opacity=".4"/><stop offset="100%" stop-color="#32cd32" stop-opacity=".2"/></linearGradient><linearGradient id="d" x1="0%" x2="100%" y1="0%" y2="100%"><stop offset="0%" stop-color="gold" stop-opacity=".4"/><stop offset="100%" stop-color="#daa520" stop-opacity=".2"/></linearGradient><linearGradient id="e" x1="0%" x2="100%" y1="0%" y2="100%"><stop offset="0%" stop-color="#ff9e9e" stop-opacity=".4"/><stop offset="100%" stop-color="#ff7b7b" stop-opacity=".2"/></linearGradient></defs><path fill="#f8f8f8" d="M0 0h300v200H0z"/><text x="150" y="20" font-family="Arial" font-size="12" font-size-adjust=".5" font-weight="bold" text-anchor="middle" text-rendering="optimizeLegibility">RGP Lens Design Zones</text><circle cx="110" cy="85" r="50" fill="url(#a)" stroke="#a0a0a0" stroke-width=".5"/><circle cx="110" cy="85" r="25" fill="url(#b)" stroke="#5cb3ff" stroke-dasharray="2,1" stroke-width=".5"/><circle cx="110" cy="85" r="35" fill="url(#c)" stroke="#32cd32" stroke-dasharray="2,1" stroke-width=".5"/><circle cx="110" cy="85" r="45" fill="url(#d)" stroke="#daa520" stroke-dasharray="2,1" stroke-width=".5"/><circle cx="110" cy="85" r="50" fill="url(#e)" stroke="#ff6b6b" stroke-dasharray="2,1" stroke-width=".5"/><circle cx="110" cy="85" r="2" fill="#333"/><rect width="60" height="30" x="80" y="140" fill="#f0f0f0" stroke="#d0d0d0" stroke-width=".5" rx="2"/><text x="110" y="155" font-family="Arial" font-size="8" font-size-adjust=".5" font-weight="bold" text-anchor="middle" text-rendering="optimizeLegibility">Cross-Section</text><path fill="none" stroke="#a0a0a0" d="M85 165c5-5 45-5 50 0m-50 0c5 5 45 5 50 0"/><path stroke="#505050" stroke-width=".5" d="M102 165v-5m16 5v-5m-25 5v-5m34 5v-5"/><rect width="110" height="115" x="175" y="45" fill="#f0f0f0" stroke="#d0d0d0" stroke-width=".5" rx="3"/><text x="230" y="60" font-family="Arial" font-size="10" font-size-adjust=".5" font-weight="bold" text-anchor="middle" text-rendering="optimizeLegibility">Lens Zones</text><circle cx="185" cy="75" r="5" fill="url(#b)" stroke="#5cb3ff" stroke-width=".5"/><text x="195" y="78" fill="#333" font-family="Arial" font-size="8" font-size-adjust=".5" text-rendering="optimizeLegibility">Optical Zone (OZ)</text><text x="205" y="88" fill="#505050" font-family="Arial" font-size="7" font-size-adjust=".5" text-rendering="optimizeLegibility">Power correction area</text><circle cx="185" cy="100" r="5" fill="url(#c)" stroke="#32cd32" stroke-width=".5"/><text x="195" y="103" fill="#333" font-family="Arial" font-size="8" font-size-adjust=".5" text-rendering="optimizeLegibility">Intermediate Zone</text><text x="205" y="113" fill="#505050" font-family="Arial" font-size="7" font-size-adjust=".5" text-rendering="optimizeLegibility">Blends OZ to periphery</text><circle cx="185" cy="125" r="5" fill="url(#d)" stroke="#daa520" stroke-width=".5"/><text x="195" y="128" fill="#333" font-family="Arial" font-size="8" font-size-adjust=".5" text-rendering="optimizeLegibility">Peripheral Zone</text><text x="205" y="138" fill="#505050" font-family="Arial" font-size="7" font-size-adjust=".5" text-rendering="optimizeLegibility">Aligns with cornea</text><circle cx="185" cy="150" r="5" fill="url(#e)" stroke="#ff6b6b" stroke-width=".5"/><text x="195" y="153" fill="#333" font-family="Arial" font-size="8" font-size-adjust=".5" text-rendering="optimizeLegibility">Edge Zone</text><text x="205" y="163" fill="#505050" font-family="Arial" font-size="7" font-size-adjust=".5" text-rendering="optimizeLegibility">Comfort &amp; tear exchange</text><rect width="240" height="20" x="30" y="175" fill="#fff" stroke="#d0d0d0" stroke-width=".5" rx="2"/><text x="150" y="188" fill="#333" font-family="Arial" font-size="8" font-size-adjust=".5" text-anchor="middle" text-rendering="optimizeLegibility">Typical RGP diameter: 9.0 to 10.5 mm (smaller than soft lenses)</text><text x="110" y="40" fill="#333" font-family="Arial" font-size="8" font-size-adjust=".5" text-anchor="middle" text-rendering="optimizeLegibility">Top View</text><text x="110" y="50" fill="#505050" font-family="Arial" font-size="7" font-size-adjust=".5" text-anchor="middle" text-rendering="optimizeLegibility">(Looking at front of lens)</text><path stroke="#333" stroke-dasharray="2,1" stroke-width=".5" d="M50 85h120"/><text x="50" y="80" fill="#333" font-family="Arial" font-size="7" font-size-adjust=".5" text-anchor="end" text-rendering="optimizeLegibility">Diameter</text><text x="170" y="80" fill="#333" font-family="Arial" font-size="7" font-size-adjust=".5" text-rendering="optimizeLegibility">~9.5mm</text></svg>