<svg xmlns="http://www.w3.org/2000/svg" width="300" height="200" aria-hidden="false" viewBox="0 0 300 200"><defs><linearGradient id="a" x1="0%" x2="100%" y1="0%" y2="100%"><stop offset="0%" stop-color="#424242"/><stop offset="100%" stop-color="#212121"/></linearGradient><linearGradient id="b" x1="0%" x2="100%" y1="0%" y2="100%"><stop offset="0%" stop-color="#ffb74d" stop-opacity=".6"/><stop offset="100%" stop-color="#ff9800" stop-opacity=".4"/></linearGradient><linearGradient id="d" x1="0%" x2="100%" y1="0%" y2="100%"><stop offset="0%" stop-color="#9e9e9e"/><stop offset="100%" stop-color="#757575"/></linearGradient><linearGradient id="e" x1="0%" x2="100%" y1="0%" y2="100%"><stop offset="0%" stop-color="#bbdefb" stop-opacity=".6"/><stop offset="100%" stop-color="#64b5f6" stop-opacity=".4"/></linearGradient><filter id="c" width="140%" height="140%" x="-20%" y="-20%"><feGaussianBlur in="SourceAlpha" stdDeviation="2"/><feOffset dx="1" dy="1" result="offsetblur"/><feComponentTransfer><feFuncA slope=".3" type="linear"/></feComponentTransfer><feMerge><feMergeNode/><feMergeNode in="SourceGraphic"/></feMerge></filter></defs><path fill="#f0f0f0" d="M0 0h300v200H0z"/><text x="150" y="20" font-family="Arial" font-size="14" font-size-adjust=".5" font-weight="bold" text-anchor="middle" text-rendering="optimizeLegibility">Prescription (RX) Insert Eyewear</text><g transform="translate(150 90)"><path fill="none" stroke="url(#a)" stroke-width="3" d="M-80 0h20A40 25 0 0 1 60 0h20"/><path fill="url(#a)" stroke="#000" stroke-width=".5" d="m-80 0-10-5-5 10h15ZM80 0l10-5 5 10H80Z"/><ellipse cx="-40" fill="url(#b)" stroke="#000" filter="url(#c)" rx="30" ry="20"/><ellipse cx="40" fill="url(#b)" stroke="#000" filter="url(#c)" rx="30" ry="20"/><path fill="none" stroke="url(#d)" stroke-dasharray="2" stroke-width="2" d="M-65-5h10A35 20 0 0 1 55-5h10"/><ellipse cx="-40" cy="-5" fill="url(#e)" stroke="#000" stroke-width=".5" rx="25" ry="15"/><ellipse cx="40" cy="-5" fill="url(#e)" stroke="#000" stroke-width=".5" rx="25" ry="15"/><circle cx="-60" cy="-5" r="3" fill="#757575" stroke="#000" stroke-width=".5"/><circle cx="60" cy="-5" r="3" fill="#757575" stroke="#000" stroke-width=".5"/></g><text font-family="Arial" font-size="10" font-size-adjust=".5" font-weight="bold" text-anchor="middle" text-rendering="optimizeLegibility" transform="translate(50 55)">Outer Protective Frame</text><path stroke="#000" stroke-dasharray="2" d="M50 60v10m0 0 40 10"/><text font-family="Arial" font-size="10" font-size-adjust=".5" font-weight="bold" text-anchor="middle" text-rendering="optimizeLegibility" transform="translate(50 125)">RX Insert</text><path stroke="#000" stroke-dasharray="2" d="M50 130v10m0 0 50-15"/><text font-family="Arial" font-size="10" font-size-adjust=".5" font-weight="bold" text-anchor="middle" text-rendering="optimizeLegibility" transform="translate(250 55)">Attachment Clips</text><path stroke="#000" stroke-dasharray="2" d="M250 60v10m0 0-40 10"/><g transform="translate(150 150)"><rect width="230" height="40" x="-115" fill="#e8f5e9" stroke="#2e7d32" rx="5" ry="5"/><text y="12" font-family="Arial" font-size="9" font-size-adjust=".5" font-weight="bold" text-anchor="middle" text-rendering="optimizeLegibility">RX Insert Benefits</text><text y="25" font-family="Arial" font-size="8" font-size-adjust=".5" text-anchor="middle" text-rendering="optimizeLegibility">• Allows prescription correction with protective eyewear</text><text y="35" font-family="Arial" font-size="8" font-size-adjust=".5" text-anchor="middle" text-rendering="optimizeLegibility">• Cost-effective vs. custom prescription sports glasses</text></g></svg>