<svg xmlns="http://www.w3.org/2000/svg" width="300" height="200" aria-hidden="false" viewBox="0 0 300 200"><defs><linearGradient id="b" x1="0%" x2="100%" y1="0%" y2="100%"><stop offset="0%" stop-color="#fff"/><stop offset="100%" stop-color="#f0f0f0"/></linearGradient><linearGradient id="a" x1="0%" x2="100%" y1="0%" y2="100%"><stop offset="0%" stop-color="#f5f5f5"/><stop offset="100%" stop-color="#e0e0e0"/></linearGradient><linearGradient id="d" x1="0%" x2="100%" y1="0%" y2="100%"><stop offset="0%" stop-color="#a8d5ff" stop-opacity=".5"/><stop offset="100%" stop-color="#5cb3ff" stop-opacity=".3"/></linearGradient><linearGradient id="c" x1="0%" x2="100%" y1="0%" y2="100%"><stop offset="0%" stop-color="#e6f7ff" stop-opacity=".8"/><stop offset="100%" stop-color="#bfefff" stop-opacity=".6"/></linearGradient></defs><path fill="#f8f8f8" d="M0 0h300v200H0z"/><text x="150" y="20" font-family="Arial" font-size="12" font-size-adjust=".5" font-weight="bold" text-anchor="middle" text-rendering="optimizeLegibility">Scleral Lens Vault</text><path fill="url(#a)" stroke="#d0d0d0" stroke-width=".5" d="M40 90c10-40 100-40 110 0s-10 40-110 0"/><path fill="url(#b)" stroke="silver" stroke-width=".5" d="M60 90c10-20 60-20 70 0s-10 20-70 0"/><path fill="#628b8b" stroke="#527a7a" stroke-width=".3" d="M80 90c5-5 25-5 30 0s-5 5-30 0"/><circle cx="95" cy="90" r="5"/><path fill="none" stroke="#5cb3ff" stroke-width="1.5" d="M40 90c10-30 100-30 110 0"/><path fill="url(#c)" d="M60 90c10-20 60-20 70 0-10-15-60-15-70 0"/><path stroke="#505050" stroke-dasharray="2,1" stroke-width=".5" d="M95 55v10"/><text x="95" y="50" fill="#505050" font-family="Arial" font-size="8" font-size-adjust=".5" text-anchor="middle" text-rendering="optimizeLegibility">Scleral Lens</text><path stroke="#505050" stroke-dasharray="2,1" stroke-width=".5" d="M95 80H75"/><text x="65" y="80" fill="#505050" font-family="Arial" font-size="7" font-size-adjust=".5" text-anchor="end" text-rendering="optimizeLegibility">Fluid</text><text x="65" y="88" fill="#505050" font-family="Arial" font-size="7" font-size-adjust=".5" text-anchor="end" text-rendering="optimizeLegibility">Reservoir</text><path stroke="#505050" stroke-dasharray="2,1" stroke-width=".5" d="M40 90H25"/><text x="20" y="90" fill="#505050" font-family="Arial" font-size="7" font-size-adjust=".5" text-anchor="end" text-rendering="optimizeLegibility">Landing Zone</text><path stroke="#505050" stroke-dasharray="2,1" stroke-width=".5" d="M95 90v15"/><text x="95" y="115" fill="#505050" font-family="Arial" font-size="7" font-size-adjust=".5" text-anchor="middle" text-rendering="optimizeLegibility">Cornea</text><path stroke="tomato" stroke-width=".5" d="M95 72v13m-3-13h6m-6 13h6"/><text x="105" y="79" fill="tomato" font-family="Arial" font-size="7" font-size-adjust=".5" text-rendering="optimizeLegibility">Vault Height</text><rect width="120" height="130" x="170" y="40" fill="#f0f0f0" stroke="#d0d0d0" stroke-width=".5" rx="5"/><text x="230" y="55" font-family="Arial" font-size="10" font-size-adjust=".5" font-weight="bold" text-anchor="middle" text-rendering="optimizeLegibility">Scleral Lens Features</text><path fill="none" stroke="#5cb3ff" stroke-width="2" d="M190 80h80"/><path fill="url(#d)" d="M190 80c0 10 80 10 80 0"/><path fill="url(#b)" stroke="silver" stroke-width=".5" d="M200 90c0 10 60 10 60 0"/><path stroke="#505050" stroke-width=".5" d="M190 80v-5m20 5v-5m20 5v-5m20 5v-5m20 5v-5m-80 2h20m0 0h20m0 0h20m0 0h20"/><text x="200" y="72" fill="#505050" font-family="Arial" font-size="6" font-size-adjust=".5" text-anchor="middle" text-rendering="optimizeLegibility">Landing</text><text x="220" y="72" fill="#505050" font-family="Arial" font-size="6" font-size-adjust=".5" text-anchor="middle" text-rendering="optimizeLegibility">Transition</text><text x="240" y="72" fill="#505050" font-family="Arial" font-size="6" font-size-adjust=".5" text-anchor="middle" text-rendering="optimizeLegibility">Limbal</text><text x="260" y="72" fill="#505050" font-family="Arial" font-size="6" font-size-adjust=".5" text-anchor="middle" text-rendering="optimizeLegibility">Optical</text><text x="180" y="115" fill="#333" font-family="Arial" font-size="8" font-size-adjust=".5" text-rendering="optimizeLegibility">• Overall diameter: 15-25mm</text><text x="180" y="125" fill="#333" font-family="Arial" font-size="8" font-size-adjust=".5" text-rendering="optimizeLegibility">• Vault height: 100-600 microns</text><text x="180" y="135" fill="#333" font-family="Arial" font-size="8" font-size-adjust=".5" text-rendering="optimizeLegibility">• Settles on sclera (white part)</text><text x="180" y="145" fill="#333" font-family="Arial" font-size="8" font-size-adjust=".5" text-rendering="optimizeLegibility">• Fluid-filled chamber over cornea</text><text x="180" y="155" fill="#333" font-family="Arial" font-size="8" font-size-adjust=".5" text-rendering="optimizeLegibility">• Used for irregular corneas</text><text x="180" y="165" fill="#333" font-family="Arial" font-size="8" font-size-adjust=".5" text-rendering="optimizeLegibility">• Provides therapeutic benefits</text><rect width="240" height="17" x="30" y="175" fill="#fff" stroke="#d0d0d0" stroke-width=".5" rx="2"/><text x="150" y="186" fill="#333" font-family="Arial" font-size="7" font-size-adjust=".5" text-anchor="middle" text-rendering="optimizeLegibility">Proper vault is crucial - too tight: corneal touch; too loose: bubbles &amp; discomfort</text></svg>