<svg xmlns="http://www.w3.org/2000/svg" width="300" height="200" aria-hidden="false" viewBox="0 0 300 200"><defs><linearGradient id="b" x1="0%" x2="0%" y1="0%" y2="100%"><stop offset="0%" stop-color="#fff"/><stop offset="100%" stop-color="#e0e0f0"/></linearGradient><linearGradient id="a" x1="0%" x2="0%" y1="0%" y2="100%"><stop offset="0%" stop-color="#fff"/><stop offset="100%" stop-color="#f0f0f0"/></linearGradient><linearGradient id="c" x1="0%" x2="0%" y1="0%" y2="100%"><stop offset="0%" stop-color="#a7c9f5" stop-opacity=".7"/><stop offset="100%" stop-color="#64b5f6" stop-opacity=".5"/></linearGradient><linearGradient id="d" x1="0%" x2="0%" y1="0%" y2="100%"><stop offset="0%" stop-color="#f5a7a7" stop-opacity=".7"/><stop offset="100%" stop-color="#f66464" stop-opacity=".5"/></linearGradient><linearGradient id="e" x1="0%" x2="0%" y1="0%" y2="100%"><stop offset="0%" stop-color="#a7f5a7" stop-opacity=".7"/><stop offset="100%" stop-color="#64f664" stop-opacity=".5"/></linearGradient></defs><path fill="#f0f0f0" d="M0 0h300v200H0z"/><text x="150" y="20" font-family="Arial" font-size="14" font-size-adjust=".5" font-weight="bold" text-anchor="middle" text-rendering="optimizeLegibility">Soft Contact Lens Fit Assessment</text><g transform="translate(50 60)"><circle cx="25" cy="25" r="25" fill="url(#a)" stroke="#333" stroke-width=".7"/><circle cx="25" cy="25" r="12" fill="url(#b)" stroke="#333" stroke-width=".5"/><path fill="url(#c)" stroke="#2196f3" stroke-width=".8" d="M13 25q12-8 24 0-12 8-24 0"/><text x="25" y="55" font-family="Arial" font-size="10" font-size-adjust=".5" font-weight="bold" text-anchor="middle" text-rendering="optimizeLegibility">Ideal Fit</text><text x="25" y="67" font-family="Arial" font-size="8" font-size-adjust=".5" text-anchor="middle" text-rendering="optimizeLegibility">• Slight movement</text><text x="25" y="77" font-family="Arial" font-size="8" font-size-adjust=".5" text-anchor="middle" text-rendering="optimizeLegibility">• Good centration</text><text x="25" y="87" font-family="Arial" font-size="8" font-size-adjust=".5" text-anchor="middle" text-rendering="optimizeLegibility">• Proper corneal coverage</text></g><g transform="translate(125 60)"><circle cx="25" cy="25" r="25" fill="url(#a)" stroke="#333" stroke-width=".7"/><circle cx="25" cy="25" r="12" fill="url(#b)" stroke="#333" stroke-width=".5"/><path fill="url(#d)" stroke="#f44336" stroke-width=".8" d="M13 25q12-10 24 0-12 5-24 0"/><text x="25" y="55" font-family="Arial" font-size="10" font-size-adjust=".5" font-weight="bold" text-anchor="middle" text-rendering="optimizeLegibility">Tight Fit</text><text x="25" y="67" font-family="Arial" font-size="8" font-size-adjust=".5" text-anchor="middle" text-rendering="optimizeLegibility">• Minimal movement</text><text x="25" y="77" font-family="Arial" font-size="8" font-size-adjust=".5" text-anchor="middle" text-rendering="optimizeLegibility">• Possible blanching</text><text x="25" y="87" font-family="Arial" font-size="8" font-size-adjust=".5" text-anchor="middle" text-rendering="optimizeLegibility">• Discomfort with wear</text></g><g transform="translate(200 60)"><circle cx="25" cy="25" r="25" fill="url(#a)" stroke="#333" stroke-width=".7"/><circle cx="25" cy="25" r="12" fill="url(#b)" stroke="#333" stroke-width=".5"/><path fill="url(#e)" stroke="#4caf50" stroke-width=".8" d="M13 25q12-5 24 0-12 10-24 0"/><text x="25" fill="#333" font-family="Arial" font-size="5" font-size-adjust=".5" text-anchor="middle" text-rendering="optimizeLegibility">Edge</text><text x="25" y="55" font-family="Arial" font-size="10" font-size-adjust=".5" font-weight="bold" text-anchor="middle" text-rendering="optimizeLegibility">Loose Fit</text><text x="25" y="67" font-family="Arial" font-size="8" font-size-adjust=".5" text-anchor="middle" text-rendering="optimizeLegibility">• Excessive movement</text><text x="25" y="77" font-family="Arial" font-size="8" font-size-adjust=".5" text-anchor="middle" text-rendering="optimizeLegibility">• Poor centration</text><text x="25" y="87" font-family="Arial" font-size="8" font-size-adjust=".5" text-anchor="middle" text-rendering="optimizeLegibility">• Edge awareness</text></g><g transform="translate(150 150)"><rect width="240" height="35" x="-120" fill="#e3f2fd" stroke="#1976d2" rx="5" ry="5"/><text y="12" font-family="Arial" font-size="9" font-size-adjust=".5" font-weight="bold" text-anchor="middle" text-rendering="optimizeLegibility">Assessment Techniques</text><text y="25" font-family="Arial" font-size="8" font-size-adjust=".5" text-anchor="middle" text-rendering="optimizeLegibility">Push-up test • Lag assessment • CLARE observation • Patient comfort</text></g></svg>