<svg xmlns="http://www.w3.org/2000/svg" width="300" height="200" aria-hidden="false" viewBox="0 0 300 200"><defs><linearGradient id="a" x1="0%" x2="0%" y1="0%" y2="100%"><stop offset="0%" stop-color="#6a6a6a"/><stop offset="100%" stop-color="#393939"/></linearGradient><linearGradient id="c" x1="0%" x2="0%" y1="0%" y2="100%"><stop offset="0%" stop-color="#ff9d00"/><stop offset="100%" stop-color="#ff4d00"/></linearGradient><filter id="b" width="200%" height="200%" x="-50%" y="-50%"><feGaussianBlur result="blur" stdDeviation="3"/><feComposite in="SourceGraphic" in2="blur"/></filter></defs><rect width="120" height="10" x="90" y="140" fill="#454545" rx="2"/><rect width="150" height="70" x="75" y="70" fill="url(#a)" rx="5"/><rect width="40" height="25" x="85" y="80" fill="#222" rx="2"/><circle cx="105" cy="92.5" r="10" fill="#333" stroke="#444"/><circle cx="105" cy="92.5" r="7" fill="#222"/><path stroke="#fff" stroke-width="1.5" d="m105 92.5 5-5"/><circle cx="120" cy="92.5" r="3" fill="red" filter="url(#b)"/><rect width="60" height="40" x="150" y="85" fill="#555" rx="3"/><rect width="50" height="30" x="155" y="90" fill="url(#c)" filter="url(#b)" rx="2"/><path stroke="#fc0" stroke-width="2" d="M155 105h50"/><path stroke="#fc0" stroke-dasharray="3,2" d="M155 98h50m-50 14h50"/><rect width="110" height="5" x="95" y="125" fill="#222" rx="1"/><rect width="100" height="3" x="100" y="126" fill="#333" rx="1"/><path fill="none" stroke="#333" stroke-width="5" d="M75 110c-25 0-35 20-45 40"/><text x="150" y="160" fill="#444" font-family="Arial" font-size="10" font-size-adjust=".5" text-anchor="middle" text-rendering="optimizeLegibility">OPTICIAN FRAME HEATER</text></svg>