<svg xmlns="http://www.w3.org/2000/svg" width="300" height="200" aria-hidden="false" viewBox="0 0 300 200"><defs><linearGradient id="a" x1="0%" x2="100%" y1="0%" y2="100%"><stop offset="0%" stop-color="#f0f0f0"/><stop offset="50%" stop-color="#d0d0d0"/><stop offset="100%" stop-color="#a0a0a0"/></linearGradient><linearGradient id="c" x1="0%" x2="100%" y1="0%" y2="100%"><stop offset="0%" stop-color="#f66"/><stop offset="50%" stop-color="#f33"/><stop offset="100%" stop-color="#c00"/></linearGradient><linearGradient id="b" x1="0%" x2="100%" y1="0%" y2="100%"><stop offset="0%" stop-color="#fff" stop-opacity=".3"/><stop offset="50%" stop-color="#f0f0f0" stop-opacity=".2"/><stop offset="100%" stop-color="#e0e0e0" stop-opacity=".1"/></linearGradient><filter id="d" width="140%" height="140%" x="-20%" y="-20%"><feGaussianBlur in="SourceAlpha" stdDeviation="2"/><feOffset result="offsetblur"/><feComponentTransfer><feFuncA slope=".5" type="linear"/></feComponentTransfer><feFlood flood-color="#f33" flood-opacity=".5"/><feComposite in2="offsetblur" operator="in"/><feMerge><feMergeNode/><feMergeNode in="SourceGraphic"/></feMerge></filter></defs><path fill="#f8f8f8" d="M0 0h300v200H0z"/><text x="150" y="25" fill="#333" font-family="Arial, sans-serif" font-size="16" font-size-adjust=".5" font-weight="bold" text-anchor="middle" text-rendering="optimizeLegibility">Frame Warmer</text><g transform="translate(80 60)"><rect width="140" height="80" fill="url(#a)" stroke="#666" rx="5" ry="5"/><rect width="120" height="60" x="10" y="10" fill="url(#b)" stroke="#999" rx="3" ry="3"/><rect width="110" height="3" x="15" y="65" fill="url(#c)" filter="url(#d)" rx="1" ry="1"/><g fill="none" stroke="#333" stroke-width="2" filter="url(#d)" transform="translate(25 30)"><ellipse cx="25" cy="15" rx="20" ry="15"/><ellipse cx="75" cy="15" rx="20" ry="15"/><path d="M45 15c5-5 10-5 10 0"/></g><g transform="translate(10 75)"><rect width="120" height="15" fill="#333" stroke="#222" stroke-width=".5" rx="2" ry="2"/><circle cx="15" cy="7.5" r="5" fill="#2ecc71" stroke="#27ae60" stroke-width=".5"/><text x="15" y="10" fill="#fff" font-family="Arial, sans-serif" font-size="6" font-size-adjust=".5" font-weight="bold" text-anchor="middle" text-rendering="optimizeLegibility">ON</text><rect width="30" height="10" x="30" y="2.5" fill="#222" stroke="#555" stroke-width=".5" rx="1" ry="1"/><text x="45" y="9.5" fill="#f60" font-family="Courier, monospace" font-size="7" font-size-adjust=".5" font-weight="bold" text-anchor="middle" text-rendering="optimizeLegibility">160°C</text><path fill="#f0f0f0" d="m75 2.5 5 5-5 5zm20 0-5 5 5 5z"/><text x="110" y="9.5" fill="#3498db" font-family="Courier, monospace" font-size="7" font-size-adjust=".5" font-weight="bold" text-anchor="middle" text-rendering="optimizeLegibility">2:30</text></g></g><path fill="none" stroke="#f33" stroke-opacity=".5" stroke-width=".8" d="M100 65c5-5 10 5 15 0m15 0c5-5 10 5 15 0m15 0c5-5 10 5 15 0m15 0c5-5 10 5 15 0"/><g font-family="Arial, sans-serif" font-size-adjust=".5" text-rendering="optimizeLegibility"><text fill="#333" font-size="10" font-weight="bold" transform="translate(40 160)" font-size-adjust="0.5" text-rendering="optimizeLegibility">Function:</text><text y="15" fill="#555" font-size="9" transform="translate(40 160)" font-size-adjust="0.5" text-rendering="optimizeLegibility">• Heats frames to 120-180°C for safe adjustment</text><text x="155" fill="#333" font-size="10" font-weight="bold" transform="translate(40 160)" font-size-adjust="0.5" text-rendering="optimizeLegibility">Usage:</text><text x="155" y="15" fill="#555" font-size="9" transform="translate(40 160)" font-size-adjust="0.5" text-rendering="optimizeLegibility">• Plastic frames: 2-3 minutes</text><text x="155" y="30" fill="#555" font-size="9" transform="translate(40 160)" font-size-adjust="0.5" text-rendering="optimizeLegibility">• Acetate frames: 1-2 minutes</text></g><text x="150" y="190" fill="#c00" font-family="Arial, sans-serif" font-size="8" font-size-adjust=".5" text-anchor="middle" text-rendering="optimizeLegibility">Caution: Heated frames can cause burns. Use protective gloves.</text><text x="150" y="195" fill="#555" font-family="Arial, sans-serif" font-size="8" font-size-adjust=".5" text-anchor="middle" text-rendering="optimizeLegibility">© Optician Trainer</text></svg>