<svg xmlns="http://www.w3.org/2000/svg" width="800" height="500" aria-hidden="false" viewBox="0 0 800 500"><style>.body{fill:#f2f2f2;stroke:#333;stroke-width:3}.label{font-family:Arial,sans-serif;font-size:14px;text-anchor:middle}.line{stroke:#333;stroke-width:1;stroke-dasharray:3,3}.control,.reticle{fill:#a0a0a0;stroke:#333;stroke-width:1.5}.reticle{fill:none;stroke:red}</style><path fill="#fff" d="M0 0h800v500H0z"/><text x="400" y="40" font-family="Arial,sans-serif" font-size="24" font-size-adjust=".5" font-weight="700" text-anchor="middle" text-rendering="optimizeLegibility">Lensometer Diagram</text><text x="400" y="65" font-family="Arial,sans-serif" font-size="14" font-size-adjust=".5" font-style="italic" text-anchor="middle" text-rendering="optimizeLegibility">Essential tool for measuring lens prescription</text><g transform="translate(250 150)"><rect width="300" height="30" y="200" class="body" rx="5" ry="5"/><rect width="60" height="150" x="120" y="50" class="body" rx="5" ry="5"/><rect width="160" height="50" x="70" class="body" rx="10" ry="10"/><rect width="40" height="30" x="130" y="10" fill="#2c3e50" stroke="#000" stroke-width="1.5" rx="5" ry="5"/><circle cx="150" cy="25" r="12"/><circle cx="150" cy="25" r="8" fill="#333"/><circle cx="150" cy="25" r="4"/><circle cx="152" cy="23" r="1.5" fill="#fff" fill-opacity=".6"/><path fill="#d0d0d0" stroke="#333" stroke-width="2" d="M100 170h100v15H100z"/><circle cx="150" cy="177.5" r="30" fill="#add8e6" fill-opacity=".4" stroke="#333"/><circle cx="150" cy="177.5" r="25" class="reticle"/><path d="M125 177.5h50m-25-25v50" class="reticle"/><rect width="60" height="40" x="200" y="80" class="control" rx="5" ry="5"/><text x="230" y="105" class="label" font-size-adjust=".5" text-rendering="optimizeLegibility">Power</text><rect width="60" height="40" x="200" y="130" class="control" rx="5" ry="5"/><text x="230" y="155" class="label" font-size-adjust=".5" text-rendering="optimizeLegibility">Axis</text><rect width="60" height="40" x="40" y="100" class="control" rx="5" ry="5"/><text x="70" y="125" class="label" font-size-adjust=".5" text-rendering="optimizeLegibility">Light</text><rect width="60" height="30" x="40" y="150" class="control" rx="5" ry="5"/><text x="70" y="170" class="label" font-size-adjust=".5" text-rendering="optimizeLegibility">Marker</text></g><g font-family="Arial" font-size="14"><path d="m420 175 100-45" class="line"/><text x="530" y="130" font-size-adjust=".5" text-rendering="optimizeLegibility">Eyepiece - View reticle and mires</text><path d="m400 325 120 35" class="line"/><text x="530" y="360" font-size-adjust=".5" text-rendering="optimizeLegibility">Lens Stage - Place glasses here</text><path d="m310 230-70 40" class="line"/><text x="180" y="290" font-size-adjust=".5" text-rendering="optimizeLegibility">Marking Device - For lens centration</text><path d="m460 220 90-20" class="line"/><text x="560" y="200" font-size-adjust=".5" text-rendering="optimizeLegibility">Power Drum - Adjust to measure sphere/cylinder</text><path d="m460 270 90 10" class="line"/><text x="560" y="280" font-size-adjust=".5" text-rendering="optimizeLegibility">Axis Drum - Measure astigmatism axis</text><path d="m290 175-110 55" class="line"/><text x="120" y="250" font-size-adjust=".5" text-rendering="optimizeLegibility">Target Illumination Control</text></g><g transform="translate(580 100)"><rect width="160" height="60" fill="#f9f9f9" stroke="#333" rx="5" ry="5"/><text x="80" y="20" font-family="Arial" font-size="12" font-size-adjust=".5" font-weight="bold" text-anchor="middle" text-rendering="optimizeLegibility">Sample Reading</text><text x="80" y="45" font-family="Arial" font-size="12" font-size-adjust=".5" text-anchor="middle" text-rendering="optimizeLegibility">+2.00 -0.75 x 45°</text></g><text x="400" y="480" font-family="Arial" font-size="12" font-size-adjust=".5" text-anchor="middle" text-rendering="optimizeLegibility">© Optician Trainer - Lensometer Diagram</text></svg>