<svg xmlns="http://www.w3.org/2000/svg" width="300" height="200" aria-hidden="false" viewBox="0 0 300 200"><defs><linearGradient id="a" x1="0%" x2="100%" y1="0%" y2="100%"><stop offset="0%" stop-color="#fff"/><stop offset="50%" stop-color="#f0f0f0"/><stop offset="100%" stop-color="#e0e0e0"/></linearGradient><linearGradient id="c" x1="0%" x2="0%" y1="0%" y2="100%"><stop offset="0%" stop-color="#c9e9f6"/><stop offset="100%" stop-color="#a3d8f0"/></linearGradient><linearGradient id="b" x1="0%" x2="100%" y1="0%" y2="100%"><stop offset="0%" stop-color="#e6e6e6" stop-opacity=".8"/><stop offset="80%" stop-color="#ccc" stop-opacity=".9"/><stop offset="100%" stop-color="#b3b3b3"/></linearGradient></defs><path fill="#f8f8f8" d="M0 0h300v200H0z"/><text x="150" y="20" fill="#333" font-family="Arial, sans-serif" font-size="16" font-size-adjust=".5" font-weight="bold" text-anchor="middle" text-rendering="optimizeLegibility">Pupillometer</text><g transform="translate(75 60)"><rect width="150" height="100" fill="url(#a)" stroke="#666" rx="10" ry="10"/><circle cx="25" cy="80" r="8" fill="#3498db" stroke="#2980b9"/><circle cx="50" cy="80" r="8" fill="#3498db" stroke="#2980b9"/><circle cx="75" cy="80" r="4" fill="#2ecc71" stroke="#27ae60"/><rect width="35" height="15" x="100" fill="#e74c3c" stroke="#c0392b" rx="3" ry="3"/><text x="117.5" y="82" fill="#fff" font-family="Arial, sans-serif" font-size="8" font-size-adjust=".5" text-anchor="middle" text-rendering="optimizeLegibility">RESET</text><circle cx="45" cy="35" r="15" fill="url(#b)" stroke="#999"/><circle cx="105" cy="35" r="15" fill="url(#b)" stroke="#999"/><circle cx="75" cy="35" r="6" fill="#f1c40f" stroke="#f39c12"/><path stroke="#c00" stroke-width=".8" d="M45 25v20m60-20v20"/><rect width="40" height="15" x="55" y="55" fill="url(#c)" stroke="#666" stroke-width=".5" rx="2" ry="2"/><text x="75" y="66" fill="#333" font-family="Courier, monospace" font-size="10" font-size-adjust=".5" font-weight="bold" text-anchor="middle" text-rendering="optimizeLegibility">64.5</text></g><g fill="#333"><path d="m120 120-10-5v10Z"/><text x="25" y="65" font-family="Arial, sans-serif" font-size="8" font-size-adjust=".5" text-anchor="middle" text-rendering="optimizeLegibility" transform="translate(75 60)">Left</text><path d="m180 120 10-5v10Z"/><text x="125" y="65" font-family="Arial, sans-serif" font-size="8" font-size-adjust=".5" text-anchor="middle" text-rendering="optimizeLegibility" transform="translate(75 60)">Right</text></g><path stroke="#333" stroke-width=".8" d="M75 145h150m-150 0v5"/><text y="15" fill="#333" font-family="Arial, sans-serif" font-size="8" font-size-adjust=".5" text-anchor="middle" text-rendering="optimizeLegibility" transform="translate(75 145)">50</text><path stroke="#333" stroke-width=".8" d="M105 145v5"/><text x="30" y="15" fill="#333" font-family="Arial, sans-serif" font-size="8" font-size-adjust=".5" text-anchor="middle" text-rendering="optimizeLegibility" transform="translate(75 145)">55</text><path stroke="#333" stroke-width=".8" d="M135 145v5"/><text x="60" y="15" fill="#333" font-family="Arial, sans-serif" font-size="8" font-size-adjust=".5" text-anchor="middle" text-rendering="optimizeLegibility" transform="translate(75 145)">60</text><path stroke="#333" stroke-width=".8" d="M165 145v5"/><text x="90" y="15" fill="#333" font-family="Arial, sans-serif" font-size="8" font-size-adjust=".5" text-anchor="middle" text-rendering="optimizeLegibility" transform="translate(75 145)">65</text><path stroke="#333" stroke-width=".8" d="M195 145v5"/><text x="120" y="15" fill="#333" font-family="Arial, sans-serif" font-size="8" font-size-adjust=".5" text-anchor="middle" text-rendering="optimizeLegibility" transform="translate(75 145)">70</text><path stroke="#333" stroke-width=".8" d="M225 145v5"/><text x="150" y="15" fill="#333" font-family="Arial, sans-serif" font-size="8" font-size-adjust=".5" text-anchor="middle" text-rendering="optimizeLegibility" transform="translate(75 145)">75</text><text x="75" y="25" fill="#333" font-family="Arial, sans-serif" font-size="9" font-size-adjust=".5" text-anchor="middle" text-rendering="optimizeLegibility" transform="translate(75 145)">Pupillary Distance (mm)</text><text x="150" y="175" fill="#555" font-family="Arial, sans-serif" font-size="9" font-size-adjust=".5" text-anchor="middle" text-rendering="optimizeLegibility">Used to measure the distance between pupils for proper lens placement</text><text x="150" y="190" fill="#555" font-family="Arial, sans-serif" font-size="8" font-size-adjust=".5" text-anchor="middle" text-rendering="optimizeLegibility">© Optician Trainer</text></svg>