<svg xmlns="http://www.w3.org/2000/svg" width="300" height="200" aria-hidden="false" viewBox="0 0 300 200"><defs><linearGradient id="a" x1="0%" x2="100%" y1="0%" y2="100%"><stop offset="0%" stop-color="#a0a0a0"/><stop offset="50%" stop-color="gray"/><stop offset="100%" stop-color="#606060"/></linearGradient><linearGradient id="b" x1="0%" x2="100%" y1="0%" y2="100%"><stop offset="0%" stop-color="#e6e6e6" stop-opacity=".3"/><stop offset="100%" stop-color="#ccc" stop-opacity=".1"/></linearGradient></defs><path fill="#f8f8f8" d="M0 0h300v200H0z"/><text x="150" y="15" fill="#333" font-family="Arial, sans-serif" font-size="13" font-size-adjust=".5" font-weight="bold" text-anchor="middle" text-rendering="optimizeLegibility">Frame Measurements for Dispensing</text><g fill="none" stroke="#ccc" stroke-dasharray="2,1" stroke-width=".5" transform="translate(150 100)"><ellipse rx="75" ry="85"/><path d="M-30-5c10 15 20 20 30 20s20-5 30-20"/></g><g stroke="url(#a)" stroke-width="3" transform="translate(150 85)"><ellipse cx="-35" fill="url(#b)" rx="30" ry="25"/><ellipse cx="35" fill="url(#b)" rx="30" ry="25"/><path fill="none" stroke-linecap="round" d="M-5 0H5m-70 0-10 15M65 0l10 15"/></g><g fill="none" stroke="#06c" stroke-width=".8"><path d="M75 120h150"/><path stroke-dasharray="2,1" d="M75 120v-5m150 5v-5"/><text y="45" fill="#06c" font-family="Arial, sans-serif" font-size="9" font-size-adjust=".5" text-anchor="middle" text-rendering="optimizeLegibility" transform="translate(150 85)">Frame Width (A)</text><path d="M115 55h70"/><path stroke-dasharray="2,1" d="M115 55v5m70-5v5"/><text y="-35" fill="#06c" font-family="Arial, sans-serif" font-size="9" font-size-adjust=".5" text-anchor="middle" text-rendering="optimizeLegibility" transform="translate(150 85)">Pupillary Distance (PD)</text><path d="M145 95h10"/><path stroke-dasharray="2,1" d="M145 95v-5m10 5v-5"/><text y="20" fill="#06c" font-family="Arial, sans-serif" font-size="9" font-size-adjust=".5" text-anchor="middle" text-rendering="optimizeLegibility" transform="translate(150 85)">Bridge Width (DBL)</text><path stroke="#c30" stroke-dasharray="2,1" d="M115 70a15 15 0 0 0 0 30"/><text x="-47" y="5" fill="#c30" font-family="Arial, sans-serif" font-size="9" font-size-adjust=".5" text-anchor="middle" text-rendering="optimizeLegibility" transform="translate(150 85)">ED</text></g><g fill="none" stroke="#393" stroke-width=".8"><path d="M95 75v20"/><path stroke-dasharray="2,1" d="M90 75h5m-5 20h5"/><text x="-65" fill="#393" font-family="Arial, sans-serif" font-size="9" font-size-adjust=".5" text-anchor="middle" text-rendering="optimizeLegibility" transform="rotate(-90 52.5 -32.5)">MRP Height</text><path d="M205 85v15"/><path stroke-dasharray="2,1" d="M210 85h-5m5 15h-5"/><text x="65" y="8" fill="#393" font-family="Arial, sans-serif" font-size="9" font-size-adjust=".5" text-anchor="middle" text-rendering="optimizeLegibility" transform="rotate(90 97.5 125.5)">Seg Height</text></g><g transform="translate(150 85)"><path stroke="#c30" stroke-width=".8" d="M-40 0h10m-5-5V5"/><circle cx="-35" r="2" fill="#c30"/><path stroke="#c30" stroke-width=".8" d="M30 0h10m-5-5V5"/><circle cx="35" r="2" fill="#c30"/></g><g font-family="Arial, sans-serif" font-size-adjust=".5" text-rendering="optimizeLegibility"><text y="5" fill="#333" font-size="9" font-weight="bold" transform="translate(20 140)" font-size-adjust="0.5" text-rendering="optimizeLegibility">Key Measurements:</text><text y="20" fill="#555" font-size="8" transform="translate(20 140)" font-size-adjust="0.5" text-rendering="optimizeLegibility">• Frame Width (A): Overall width of frame</text><text y="35" fill="#555" font-size="8" transform="translate(20 140)" font-size-adjust="0.5" text-rendering="optimizeLegibility">• Bridge Width (DBL): Distance between lenses</text><text y="50" fill="#555" font-size="8" transform="translate(20 140)" font-size-adjust="0.5" text-rendering="optimizeLegibility">• Pupillary Distance (PD): Distance between pupils</text><text x="160" y="20" fill="#555" font-size="8" transform="translate(20 140)" font-size-adjust="0.5" text-rendering="optimizeLegibility">• Effective Diameter (ED): Lens size</text><text x="160" y="35" fill="#555" font-size="8" transform="translate(20 140)" font-size-adjust="0.5" text-rendering="optimizeLegibility">• MRP Height: Major reference point height</text><text x="160" y="50" fill="#555" font-size="8" transform="translate(20 140)" font-size-adjust="0.5" text-rendering="optimizeLegibility">• Seg Height: Height for multifocal segment</text></g><text x="150" y="195" fill="#555" font-family="Arial, sans-serif" font-size="8" font-size-adjust=".5" text-anchor="middle" text-rendering="optimizeLegibility">© Optician Trainer</text></svg>