<svg xmlns="http://www.w3.org/2000/svg" width="300" height="200" aria-hidden="false" viewBox="0 0 300 200"><defs><linearGradient id="a" x1="0%" x2="100%" y1="0%" y2="100%"><stop offset="0%" stop-color="#ffdfc4"/><stop offset="100%" stop-color="#f5d0b0"/></linearGradient><linearGradient id="b" x1="0%" x2="100%" y1="0%" y2="0%"><stop offset="0%" stop-color="#6a4a3c"/><stop offset="100%" stop-color="#8b5a2b"/></linearGradient><linearGradient id="d" x1="0%" x2="100%" y1="0%" y2="100%"><stop offset="0%" stop-color="#e6f7ff" stop-opacity=".6"/><stop offset="100%" stop-color="#bfefff" stop-opacity=".4"/></linearGradient><filter id="c" width="120%" height="120%" x="-10%" y="-10%"><feDropShadow dx="1" dy="1" flood-opacity=".3" stdDeviation="1"/></filter></defs><rect width="300" height="200" fill="#f8f8f8" rx="5"/><text x="150" y="20" font-family="Arial" font-size="12" font-size-adjust=".5" font-weight="bold" text-anchor="middle" text-rendering="optimizeLegibility">Segment Height Measurement</text><ellipse cx="150" cy="95" fill="url(#a)" rx="50" ry="60"/><path fill="#f5d0b0" d="M100 95q-10 10-5 20t10 0m95-20q10 10 5 20t-10 0"/><path fill="none" stroke="#5c3317" stroke-width="2" d="M120 60q15-5 30 0m30 0q-15-5-30 0"/><path fill="url(#b)" d="M110 85H95q-2 10 0 20h15Zm80 0h15q2 10 0 20h-15Z" filter="url(#c)"/><path stroke="#8b5a2b" stroke-width="4" d="M110 95h80"/><ellipse cx="125" cy="95" fill="url(#d)" stroke="#8b5a2b" rx="15" ry="12"/><ellipse cx="175" cy="95" fill="url(#d)" stroke="#8b5a2b" rx="15" ry="12"/><path stroke="tomato" stroke-dasharray="2,1" d="M165 95h20"/><path stroke="#1e90ff" d="M165 98q5 2 10 2t10-2"/><path stroke="#32cd32" d="M165 103q5 4 10 4t10-4"/><ellipse cx="125" cy="95" fill="#3c3c3c" rx="5" ry="4"/><ellipse cx="175" cy="95" fill="#3c3c3c" rx="5" ry="4"/><circle cx="127" cy="94" r="1" fill="#fff"/><circle cx="177" cy="94" r="1" fill="#fff"/><path fill="#f0c0a0" d="M150 95q-5 15 0 20 5-5 0-20"/><path fill="none" stroke="#c66" d="M140 130q10 5 20 0"/><path stroke="red" d="M220 95v12m-4-12h8m-8 12h8"/><text x="230" y="103" fill="red" font-family="Arial" font-size="8" font-size-adjust=".5" text-rendering="optimizeLegibility">Seg Height</text><path stroke="#555" stroke-dasharray="2,1" stroke-width=".5" d="M175 95h40m-40 12h40"/><rect width="4" height="35" x="210" y="85" fill="#ccc" stroke="#999" stroke-width=".5" rx="1"/><rect width="240" height="30" x="30" y="160" fill="#f0f0f0" stroke="#ddd" rx="5"/><circle cx="40" cy="170" r="3" fill="tomato"/><text x="50" y="173" font-family="Arial" font-size="7" font-size-adjust=".5" text-rendering="optimizeLegibility">Fitting Cross/Pupil Center</text><circle cx="135" cy="170" r="3" fill="#1e90ff"/><text x="145" y="173" font-family="Arial" font-size="7" font-size-adjust=".5" text-rendering="optimizeLegibility">Near Vision Zone Start</text><circle cx="225" cy="170" r="3" fill="#32cd32"/><text x="235" y="173" font-family="Arial" font-size="7" font-size-adjust=".5" text-rendering="optimizeLegibility">Reading Area</text><text x="30" y="145" fill="#555" font-family="Arial" font-size="7" font-size-adjust=".5" text-rendering="optimizeLegibility">Measure from bottom of frame to where the segment begins.</text><text x="30" y="155" fill="#555" font-family="Arial" font-size="7" font-size-adjust=".5" text-rendering="optimizeLegibility">Typical measurements range from 15mm to 25mm.</text></svg>