<svg xmlns="http://www.w3.org/2000/svg" width="300" height="200" aria-hidden="false" viewBox="0 0 300 200"><defs><linearGradient id="b" x1="0%" x2="100%" y1="0%" y2="100%"><stop offset="0%" stop-color="#e0e0e0"/><stop offset="50%" stop-color="#b0b0b0"/><stop offset="100%" stop-color="#909090"/></linearGradient><linearGradient id="a" x1="0%" x2="100%" y1="0%" y2="100%"><stop offset="0%" stop-color="#2a5298"/><stop offset="100%" stop-color="#1a3366"/></linearGradient></defs><path fill="url(#a)" stroke="#000" d="M60 170c-5-30 5-50 15-70l20 10c-10 15-15 30-13 55Zm180 0c5-30-5-50-15-70l-20 10c10 15 15 30 13 55Z"/><path fill="none" stroke="#666" stroke-width="3" d="m82 165 6-10 6 10 6-10 6 10 6-10 6 10 6-10 6 10 6-10 6 10 6-10 6 10 6-10 6 10 6-10 6 10 6-10 6 10 6-10 6 10 6-10 6 10h4"/><path fill="none" stroke="#666" stroke-width="4" d="m75 100 55-60h40l55 60"/><path fill="url(#b)" stroke="#000" d="m130 40-5-10c0-5 10-5 10 0zm40 0 5-10c0-5-10-5-10 0z"/><circle cx="150" cy="40" r="5" fill="#666" stroke="#000"/><path stroke="#fff" d="m70 140 5 2m155-2-5 2" opacity=".7"/><path stroke="#fff" d="M128 38h4m36 0h4" opacity=".8"/></svg>