<svg xmlns="http://www.w3.org/2000/svg" width="300" height="200" viewBox="0 0 300 200">
    <title>Frame Warmer</title>
    <defs>
        <linearGradient id="metalGradient" x1="0%" y1="0%" x2="100%" y2="100%">
            <stop offset="0%" stop-color="#f0f0f0" />
            <stop offset="50%" stop-color="#d0d0d0" />
            <stop offset="100%" stop-color="#a0a0a0" />
        </linearGradient>
        <linearGradient id="redGradient" x1="0%" y1="0%" x2="100%" y2="100%">
            <stop offset="0%" stop-color="#ff6666" />
            <stop offset="50%" stop-color="#ff3333" />
            <stop offset="100%" stop-color="#cc0000" />
        </linearGradient>
        <linearGradient id="glassGradient" x1="0%" y1="0%" x2="100%" y2="100%">
            <stop offset="0%" stop-color="#ffffff" stop-opacity="0.3" />
            <stop offset="50%" stop-color="#f0f0f0" stop-opacity="0.2" />
            <stop offset="100%" stop-color="#e0e0e0" stop-opacity="0.1" />
        </linearGradient>
        <filter id="warmerGlow" x="-20%" y="-20%" width="140%" height="140%">
            <feGaussianBlur in="SourceAlpha" stdDeviation="2" />
            <feOffset dx="0" dy="0" result="offsetblur" />
            <feComponentTransfer>
                <feFuncA type="linear" slope="0.5" />
            </feComponentTransfer>
            <feFlood flood-color="#ff3333" flood-opacity="0.5" />
            <feComposite in2="offsetblur" operator="in" />
            <feMerge>
                <feMergeNode />
                <feMergeNode in="SourceGraphic" />
            </feMerge>
        </filter>
    </defs>
    
    <!-- Background -->
    <rect width="300" height="200" fill="#f8f8f8" />
    
    <!-- Title -->
    <text x="150" y="25" font-family="Arial, sans-serif" font-size="16" font-weight="bold" text-anchor="middle" fill="#333">Frame Warmer</text>
    
    <!-- Frame Warmer Device -->
    <g transform="translate(80, 60)">
        <!-- Main device body -->
        <rect x="0" y="0" width="140" height="80" rx="5" ry="5" fill="url(#metalGradient)" stroke="#666" stroke-width="1" />
        
        <!-- Glass chamber -->
        <rect x="10" y="10" width="120" height="60" rx="3" ry="3" fill="url(#glassGradient)" stroke="#999" stroke-width="1" />
        
        <!-- Heating element -->
        <rect x="15" y="65" width="110" height="3" rx="1" ry="1" fill="url(#redGradient)" filter="url(#warmerGlow)" />
        
        <!-- Frame being heated inside -->
        <g transform="translate(25, 30)" filter="url(#warmerGlow)">
            <!-- Left eye rim -->
            <ellipse cx="25" cy="15" rx="20" ry="15" fill="none" stroke="#333" stroke-width="2" />
            
            <!-- Right eye rim -->
            <ellipse cx="75" cy="15" rx="20" ry="15" fill="none" stroke="#333" stroke-width="2" />
            
            <!-- Bridge -->
            <path d="M45,15 C50,10 55,10 55,15" fill="none" stroke="#333" stroke-width="2" />
        </g>
        
        <!-- Control panel -->
        <g transform="translate(10, 75)">
            <!-- Panel background -->
            <rect x="0" y="0" width="120" height="15" rx="2" ry="2" fill="#333" stroke="#222" stroke-width="0.5" />
            
            <!-- Power button -->
            <circle cx="15" cy="7.5" r="5" fill="#2ecc71" stroke="#27ae60" stroke-width="0.5" />
            <text x="15" y="10" font-family="Arial, sans-serif" font-size="6" font-weight="bold" text-anchor="middle" fill="white">ON</text>
            
            <!-- Temperature display -->
            <rect x="30" y="2.5" width="30" height="10" rx="1" ry="1" fill="#222" stroke="#555" stroke-width="0.5" />
            <text x="45" y="9.5" font-family="Courier, monospace" font-size="7" font-weight="bold" text-anchor="middle" fill="#ff6600">160°C</text>
            
            <!-- Temperature controls -->
            <polygon points="75,2.5 80,7.5 75,12.5" fill="#f0f0f0" />
            <polygon points="95,2.5 90,7.5 95,12.5" fill="#f0f0f0" />
            
            <!-- Timer display -->
            <text x="110" y="9.5" font-family="Courier, monospace" font-size="7" font-weight="bold" text-anchor="middle" fill="#3498db">2:30</text>
        </g>
    </g>
    
    <!-- Heat waves -->
    <g transform="translate(80, 60)" stroke="#ff3333" stroke-width="0.8" stroke-opacity="0.5" fill="none">
        <path d="M20,5 C25,0 30,10 35,5" />
        <path d="M50,5 C55,0 60,10 65,5" />
        <path d="M80,5 C85,0 90,10 95,5" />
        <path d="M110,5 C115,0 120,10 125,5" />
    </g>
    
    <!-- Description -->
    <g transform="translate(40, 160)">
        <text x="0" y="0" font-family="Arial, sans-serif" font-size="10" font-weight="bold" text-anchor="start" fill="#333">Function:</text>
        <text x="0" y="15" font-family="Arial, sans-serif" font-size="9" text-anchor="start" fill="#555">• Heats frames to 120-180°C for safe adjustment</text>
        <text x="155" y="0" font-family="Arial, sans-serif" font-size="10" font-weight="bold" text-anchor="start" fill="#333">Usage:</text>
        <text x="155" y="15" font-family="Arial, sans-serif" font-size="9" text-anchor="start" fill="#555">• Plastic frames: 2-3 minutes</text>
        <text x="155" y="30" font-family="Arial, sans-serif" font-size="9" text-anchor="start" fill="#555">• Acetate frames: 1-2 minutes</text>
    </g>
    
    <!-- Note about safety -->
    <text x="150" y="190" font-family="Arial, sans-serif" font-size="8" text-anchor="middle" fill="#cc0000">Caution: Heated frames can cause burns. Use protective gloves.</text>
    <text x="150" y="195" font-family="Arial, sans-serif" font-size="8" text-anchor="middle" fill="#555">© Optician Trainer</text>
</svg>