<svg xmlns="http://www.w3.org/2000/svg" width="300" height="200" aria-hidden="false" viewBox="0 0 300 200"><defs><linearGradient id="c" x1="0%" x2="100%" y1="0%" y2="100%"><stop offset="0%" stop-color="#d0d0d0"/><stop offset="50%" stop-color="#a0a0a0"/><stop offset="100%" stop-color="gray"/></linearGradient><linearGradient id="a" x1="0%" x2="100%" y1="0%" y2="100%"><stop offset="0%" stop-color="#3a4a5a"/><stop offset="100%" stop-color="#1e2a3a"/></linearGradient><filter id="b" width="140%" height="140%" x="-20%" y="-20%"><feGaussianBlur in="SourceAlpha" stdDeviation="1"/><feOffset dx="1" dy="1" result="offsetblur"/><feComponentTransfer><feFuncA slope=".5" type="linear"/></feComponentTransfer><feMerge><feMergeNode/><feMergeNode in="SourceGraphic"/></feMerge></filter></defs><path fill="#f9f9f9" d="M0 0h300v200H0z"/><text x="150" y="20" font-family="Arial" font-size="14" font-size-adjust=".5" font-weight="bold" text-anchor="middle" text-rendering="optimizeLegibility">Nose Pad Pliers</text><path fill="url(#a)" d="m110 150 10-80h10l-5 80Zm80 0-10-80h-10l5 80Z" filter="url(#b)"/><path fill="none" stroke="#707070" stroke-width="2" d="M125 120c10-10 40-10 50 0"/><circle cx="150" cy="70" r="5" fill="url(#c)" stroke="#505050"/><path stroke="url(#c)" stroke-linecap="round" stroke-width="5" d="m130 70 5-30m35 30-5-30"/><path fill="none" stroke="url(#c)" stroke-linecap="round" stroke-width="5" d="M135 40c-1-5 1-10 5-12m25 12c1-5-1-10-5-12"/><path stroke="url(#c)" stroke-linecap="round" stroke-width="3" d="m140 28 3-3m17 3-3-3"/><path stroke="#000" stroke-opacity=".3" stroke-width=".5" d="M115 130h5m-4-10h5m-4-10h5m-4-10h5m-4-10h5m-4-10h5m60 50h-5m4-10h-5m4-10h-5m4-10h-5m4-10h-5m4-10h-5"/><ellipse cx="150" cy="50" fill="#e0e0e0" stroke="#a0a0a0" stroke-width=".5" rx="8" ry="5" transform="rotate(-30 150 50)"/><path stroke="#a0a0a0" d="m150 52-2 3"/><text x="110" y="40" fill="#505050" font-family="Arial" font-size="8" font-size-adjust=".5" text-anchor="end" text-rendering="optimizeLegibility">Curved tips</text><path stroke="#505050" stroke-dasharray="2,1" stroke-width=".5" d="m112 38 23-3"/><text x="190" y="40" fill="#505050" font-family="Arial" font-size="8" font-size-adjust=".5" text-rendering="optimizeLegibility">For precision</text><text x="190" y="50" fill="#505050" font-family="Arial" font-size="8" font-size-adjust=".5" text-rendering="optimizeLegibility">adjustment</text><path stroke="#505050" stroke-dasharray="2,1" stroke-width=".5" d="m188 45-23-10"/><text x="140" y="180" fill="#303030" font-family="Arial" font-size="10" font-size-adjust=".5" text-anchor="middle" text-rendering="optimizeLegibility">Used for adjusting nose pads on glasses</text><text x="230" y="90" fill="#505050" font-family="Arial" font-size="8" font-size-adjust=".5" text-rendering="optimizeLegibility">Example uses:</text><text x="230" y="105" fill="#505050" font-family="Arial" font-size="7" font-size-adjust=".5" text-rendering="optimizeLegibility">• Adjust nose pad angle</text><text x="230" y="118" fill="#505050" font-family="Arial" font-size="7" font-size-adjust=".5" text-rendering="optimizeLegibility">• Reposition bent pads</text><text x="230" y="131" fill="#505050" font-family="Arial" font-size="7" font-size-adjust=".5" text-rendering="optimizeLegibility">• Tighten pad arms</text><text x="230" y="144" fill="#505050" font-family="Arial" font-size="7" font-size-adjust=".5" text-rendering="optimizeLegibility">• Replace nose pads</text></svg>