<svg xmlns="http://www.w3.org/2000/svg" width="300" height="200" aria-hidden="false" viewBox="0 0 300 200"><defs><linearGradient id="b" x1="0%" x2="100%" y1="0%" y2="100%"><stop offset="0%" stop-color="#e0e0e0"/><stop offset="50%" stop-color="silver"/><stop offset="100%" stop-color="#a0a0a0"/></linearGradient><linearGradient id="a" x1="0%" x2="100%" y1="0%" y2="100%"><stop offset="0%" stop-color="#3a3a3a"/><stop offset="50%" stop-color="#202020"/><stop offset="100%" stop-color="#101010"/></linearGradient></defs><path fill="#f8f8f8" d="M0 0h300v200H0z"/><text x="150" y="25" fill="#333" font-family="Arial, sans-serif" font-size="16" font-size-adjust=".5" font-weight="bold" text-anchor="middle" text-rendering="optimizeLegibility">Temple Forming Pliers</text><g stroke="#000" transform="rotate(-20 358.564 -375.346)"><path fill="url(#a)" d="m-10-5-70-20q-15-3-20 5l-20 30q-3 10 10 15l25-10 75-10Z"/><path fill="url(#a)" d="m-10 5-70 20q-15 3-20-5l-20-30q-3-10 10-15l25 10 75 10Z"/><circle cx="-10" r="5" fill="url(#b)"/><path fill="url(#b)" d="M-10-5c5 0 10-2 20-2l50 2c10 0 20-2 25-10 2-5 0-10-5-10l-70 5C0-20-5-10-10-5Zm0 10c5 0 10 2 20 2l50-2c10 0 20 2 25 10 2 5 0 10-5 10l-70-5C0 20-5 10-10 5Z"/><path fill="#555" stroke-width=".5" d="M20-12h40c5 0 8 2 10 5v2H20Zm0 24h40c5 0 8-2 10-5V5H20Z"/><path fill="#c87137" stroke-width=".5" d="M20-2h65v4H20Z"/></g><text x="150" y="170" fill="#555" font-family="Arial, sans-serif" font-size="11" font-size-adjust=".5" text-anchor="middle" text-rendering="optimizeLegibility">Used to form eyeglass temples to fit comfortably around the ear</text><text x="150" y="190" fill="#555" font-family="Arial, sans-serif" font-size="10" font-size-adjust=".5" text-anchor="middle" text-rendering="optimizeLegibility">© Optician Trainer</text></svg>